<svg width="302" height="230" viewBox="0 0 302 230" fill="none" xmlns="http://www.w3.org/2000/svg">
<g filter="url(#filter0_ii_55_1405)">
<mask id="mask0_55_1405" style="mask-type:alpha" maskUnits="userSpaceOnUse" x="6" y="2" width="290" height="218">
<path fill-rule="evenodd" clip-rule="evenodd" d="M150.52 2.948C230.318 2.948 295.008 51.3244 295.008 111C295.008 170.675 230.318 219.051 150.52 219.051C70.7215 219.051 6.03223 170.675 6.03223 111C6.03223 80.2546 23.2032 52.5087 50.7647 32.8325L50.7847 3.32207L76.4925 18.1878C98.1428 8.50971 123.463 2.948 150.52 2.948Z" fill="white"/>
</mask>
<g mask="url(#mask0_55_1405)">
<path fill-rule="evenodd" clip-rule="evenodd" d="M150.52 2.948C230.318 2.948 295.008 51.3244 295.008 111C295.008 170.675 230.318 219.051 150.52 219.051C70.7215 219.051 6.03223 170.675 6.03223 111C6.03223 80.2546 23.2032 52.5087 50.7647 32.8325L50.7847 3.32207L76.4925 18.1878C98.1428 8.50971 123.463 2.948 150.52 2.948Z" fill="#FDFDFC"/>
<path d="M50.7647 32.8325L53.7647 32.8345L53.7637 34.3776L52.5078 35.2741L50.7647 32.8325ZM50.7847 3.32209L47.7847 3.32005L47.7883 -1.8761L52.2865 0.725032L50.7847 3.32209ZM76.4925 18.1878L77.7168 20.9266L76.3176 21.5521L74.9907 20.7848L76.4925 18.1878ZM292.008 111C292.008 82.3217 276.471 56.127 250.891 36.9981C225.312 17.8688 189.835 5.94802 150.52 5.94802V-0.0519754C191.003 -0.0519754 227.77 12.2154 254.485 32.1931C281.2 52.1712 298.008 80.0023 298.008 111H292.008ZM150.52 216.051C189.835 216.051 225.312 204.13 250.891 185.001C276.471 165.872 292.008 139.678 292.008 111H298.008C298.008 141.997 281.2 169.828 254.485 189.806C227.77 209.784 191.003 222.051 150.52 222.051V216.051ZM9.03223 111C9.03223 139.678 24.5691 165.872 50.1483 185.001C75.7282 204.13 111.205 216.051 150.52 216.051V222.051C110.036 222.051 73.2694 209.784 46.555 189.806C19.8401 169.828 3.03223 141.997 3.03223 111H9.03223ZM52.5078 35.2741C25.5289 54.5344 9.03223 81.4519 9.03223 111H3.03223C3.03223 79.0573 20.8774 50.483 49.0216 30.3908L52.5078 35.2741ZM53.7847 3.32414L53.7647 32.8345L47.7647 32.8304L47.7847 3.32005L53.7847 3.32414ZM74.9907 20.7848L49.283 5.91915L52.2865 0.725032L77.9943 15.5907L74.9907 20.7848ZM150.52 5.94802C123.869 5.94802 98.9679 11.427 77.7168 20.9266L75.2682 15.4489C97.3177 5.59246 123.056 -0.0519754 150.52 -0.0519754V5.94802Z" fill="black"/>
</g>
</g>
<path d="M225.6 94.65H79.4C75.6721 94.65 72.65 97.6721 72.65 101.4V119.6C72.65 123.328 75.6721 126.35 79.4 126.35H225.6C229.328 126.35 232.35 123.328 232.35 119.6V101.4C232.35 97.6721 229.328 94.65 225.6 94.65Z" fill="white"/>
<path d="M98.8017 111.758H91.7297V120H89.5457V101.852H91.7297V109.86H98.8017V101.852H100.986V120H98.8017V111.758ZM110.076 120.312C109.14 120.312 108.29 120.147 107.528 119.818C106.782 119.489 106.141 119.021 105.604 118.414C105.084 117.79 104.685 117.053 104.408 116.204C104.13 115.337 103.992 114.367 103.992 113.292C103.992 112.235 104.13 111.273 104.408 110.406C104.685 109.539 105.084 108.803 105.604 108.196C106.141 107.572 106.782 107.095 107.528 106.766C108.29 106.437 109.14 106.272 110.076 106.272C111.012 106.272 111.852 106.437 112.598 106.766C113.36 107.095 114.002 107.572 114.522 108.196C115.059 108.803 115.466 109.539 115.744 110.406C116.021 111.273 116.16 112.235 116.16 113.292C116.16 114.367 116.021 115.337 115.744 116.204C115.466 117.053 115.059 117.79 114.522 118.414C114.002 119.021 113.36 119.489 112.598 119.818C111.852 120.147 111.012 120.312 110.076 120.312ZM110.076 118.518C111.237 118.518 112.173 118.171 112.884 117.478C113.594 116.785 113.95 115.71 113.95 114.254V112.33C113.95 110.874 113.594 109.799 112.884 109.106C112.173 108.413 111.237 108.066 110.076 108.066C108.914 108.066 107.978 108.413 107.268 109.106C106.557 109.799 106.202 110.874 106.202 112.33V114.254C106.202 115.71 106.557 116.785 107.268 117.478C107.978 118.171 108.914 118.518 110.076 118.518ZM125.041 120.312C123.637 120.312 122.424 120.078 121.401 119.61C120.396 119.125 119.538 118.483 118.827 117.686L120.231 116.464C120.873 117.14 121.575 117.66 122.337 118.024C123.1 118.388 124.019 118.57 125.093 118.57C126.133 118.57 126.983 118.388 127.641 118.024C128.317 117.643 128.655 117.053 128.655 116.256C128.655 115.909 128.586 115.623 128.447 115.398C128.326 115.155 128.153 114.965 127.927 114.826C127.702 114.687 127.451 114.583 127.173 114.514C126.896 114.427 126.601 114.358 126.289 114.306L124.183 113.994C123.715 113.925 123.204 113.829 122.649 113.708C122.112 113.587 121.618 113.396 121.167 113.136C120.717 112.859 120.335 112.495 120.023 112.044C119.729 111.593 119.581 111.004 119.581 110.276C119.581 109.6 119.711 109.019 119.971 108.534C120.249 108.031 120.63 107.615 121.115 107.286C121.601 106.939 122.173 106.688 122.831 106.532C123.49 106.359 124.209 106.272 124.989 106.272C126.203 106.272 127.251 106.463 128.135 106.844C129.037 107.225 129.808 107.754 130.449 108.43L129.097 109.704C128.941 109.513 128.742 109.323 128.499 109.132C128.274 108.924 127.988 108.742 127.641 108.586C127.312 108.413 126.922 108.274 126.471 108.17C126.021 108.066 125.501 108.014 124.911 108.014C123.854 108.014 123.039 108.196 122.467 108.56C121.913 108.924 121.635 109.453 121.635 110.146C121.635 110.493 121.696 110.787 121.817 111.03C121.956 111.255 122.138 111.437 122.363 111.576C122.589 111.715 122.84 111.827 123.117 111.914C123.412 111.983 123.707 112.044 124.001 112.096L126.107 112.408C126.593 112.477 127.104 112.573 127.641 112.694C128.179 112.815 128.673 113.015 129.123 113.292C129.574 113.552 129.947 113.907 130.241 114.358C130.553 114.809 130.709 115.398 130.709 116.126C130.709 117.461 130.189 118.492 129.149 119.22C128.127 119.948 126.757 120.312 125.041 120.312ZM134.365 106.584H136.445V108.768H136.549C137.416 107.104 138.794 106.272 140.683 106.272C142.33 106.272 143.613 106.887 144.531 108.118C145.467 109.349 145.935 111.073 145.935 113.292C145.935 115.511 145.467 117.235 144.531 118.466C143.613 119.697 142.33 120.312 140.683 120.312C138.794 120.312 137.416 119.48 136.549 117.816H136.445V125.2H134.365V106.584ZM139.877 118.466C141.091 118.466 142.027 118.102 142.685 117.374C143.361 116.629 143.699 115.649 143.699 114.436V112.148C143.699 110.935 143.361 109.964 142.685 109.236C142.027 108.491 141.091 108.118 139.877 108.118C139.409 108.118 138.967 108.179 138.551 108.3C138.135 108.421 137.771 108.603 137.459 108.846C137.147 109.071 136.896 109.357 136.705 109.704C136.532 110.033 136.445 110.423 136.445 110.874V115.71C136.445 116.161 136.532 116.559 136.705 116.906C136.896 117.235 137.147 117.521 137.459 117.764C137.771 117.989 138.135 118.163 138.551 118.284C138.967 118.405 139.409 118.466 139.877 118.466ZM155.337 103.62C154.73 103.62 154.306 103.499 154.063 103.256C153.82 102.996 153.699 102.675 153.699 102.294V101.878C153.699 101.497 153.82 101.185 154.063 100.942C154.306 100.682 154.73 100.552 155.337 100.552C155.944 100.552 156.368 100.682 156.611 100.942C156.854 101.185 156.975 101.497 156.975 101.878V102.294C156.975 102.675 156.854 102.996 156.611 103.256C156.368 103.499 155.944 103.62 155.337 103.62ZM149.461 118.232H154.297V108.352H149.461V106.584H156.377V118.232H160.901V120H149.461V118.232ZM169.965 120C168.942 120 168.188 119.714 167.703 119.142C167.235 118.57 167.001 117.833 167.001 116.932V108.352H162.529V106.584H165.857C166.308 106.584 166.62 106.497 166.793 106.324C166.984 106.133 167.079 105.813 167.079 105.362V101.852H169.081V106.584H175.191V108.352H169.081V118.232H175.191V120H169.965ZM189.195 120C188.38 120 187.799 119.792 187.453 119.376C187.106 118.96 186.889 118.44 186.803 117.816H186.673C186.378 118.596 185.901 119.211 185.243 119.662C184.601 120.095 183.735 120.312 182.643 120.312C181.239 120.312 180.121 119.948 179.289 119.22C178.457 118.492 178.041 117.495 178.041 116.23C178.041 114.982 178.491 114.02 179.393 113.344C180.311 112.668 181.785 112.33 183.813 112.33H186.673V111.004C186.673 110.016 186.395 109.279 185.841 108.794C185.286 108.291 184.497 108.04 183.475 108.04C182.573 108.04 181.837 108.222 181.265 108.586C180.693 108.933 180.233 109.409 179.887 110.016L178.483 108.976C178.656 108.629 178.89 108.291 179.185 107.962C179.479 107.633 179.843 107.347 180.277 107.104C180.71 106.844 181.204 106.645 181.759 106.506C182.313 106.35 182.929 106.272 183.605 106.272C185.182 106.272 186.43 106.671 187.349 107.468C188.285 108.265 188.753 109.375 188.753 110.796V118.18H190.625V120H189.195ZM183.007 118.57C183.544 118.57 184.029 118.509 184.463 118.388C184.913 118.249 185.303 118.076 185.633 117.868C185.962 117.643 186.213 117.383 186.387 117.088C186.577 116.776 186.673 116.447 186.673 116.1V113.89H183.813C182.565 113.89 181.655 114.063 181.083 114.41C180.511 114.757 180.225 115.259 180.225 115.918V116.464C180.225 117.157 180.467 117.686 180.953 118.05C181.455 118.397 182.14 118.57 183.007 118.57ZM193.215 118.232H197.895V102.528H193.215V100.76H199.975V118.232H204.655V120H193.215V118.232ZM213.9 120.312C212.496 120.312 211.283 120.078 210.26 119.61C209.255 119.125 208.397 118.483 207.686 117.686L209.09 116.464C209.732 117.14 210.434 117.66 211.196 118.024C211.959 118.388 212.878 118.57 213.952 118.57C214.992 118.57 215.842 118.388 216.5 118.024C217.176 117.643 217.514 117.053 217.514 116.256C217.514 115.909 217.445 115.623 217.306 115.398C217.185 115.155 217.012 114.965 216.786 114.826C216.561 114.687 216.31 114.583 216.032 114.514C215.755 114.427 215.46 114.358 215.148 114.306L213.042 113.994C212.574 113.925 212.063 113.829 211.508 113.708C210.971 113.587 210.477 113.396 210.026 113.136C209.576 112.859 209.194 112.495 208.882 112.044C208.588 111.593 208.44 111.004 208.44 110.276C208.44 109.6 208.57 109.019 208.83 108.534C209.108 108.031 209.489 107.615 209.974 107.286C210.46 106.939 211.032 106.688 211.69 106.532C212.349 106.359 213.068 106.272 213.848 106.272C215.062 106.272 216.11 106.463 216.994 106.844C217.896 107.225 218.667 107.754 219.308 108.43L217.956 109.704C217.8 109.513 217.601 109.323 217.358 109.132C217.133 108.924 216.847 108.742 216.5 108.586C216.171 108.413 215.781 108.274 215.33 108.17C214.88 108.066 214.36 108.014 213.77 108.014C212.713 108.014 211.898 108.196 211.326 108.56C210.772 108.924 210.494 109.453 210.494 110.146C210.494 110.493 210.555 110.787 210.676 111.03C210.815 111.255 210.997 111.437 211.222 111.576C211.448 111.715 211.699 111.827 211.976 111.914C212.271 111.983 212.566 112.044 212.86 112.096L214.966 112.408C215.452 112.477 215.963 112.573 216.5 112.694C217.038 112.815 217.532 113.015 217.982 113.292C218.433 113.552 218.806 113.907 219.1 114.358C219.412 114.809 219.568 115.398 219.568 116.126C219.568 117.461 219.048 118.492 218.008 119.22C216.986 119.948 215.616 120.312 213.9 120.312Z" fill="black"/>
<path d="M225.6 94.65H79.4C75.6721 94.65 72.65 97.6721 72.65 101.4V119.6C72.65 123.328 75.6721 126.35 79.4 126.35H225.6C229.328 126.35 232.35 123.328 232.35 119.6V101.4C232.35 97.6721 229.328 94.65 225.6 94.65Z" stroke="black" stroke-width="0.7"/>
<defs>
<filter id="filter0_ii_55_1405" x="6.03223" y="2.948" width="288.976" height="220.103" filterUnits="userSpaceOnUse" color-interpolation-filters="sRGB">
<feFlood flood-opacity="0" result="BackgroundImageFix"/>
<feBlend mode="normal" in="SourceGraphic" in2="BackgroundImageFix" result="shape"/>
<feColorMatrix in="SourceAlpha" type="matrix" values="0 0 0 0 0 0 0 0 0 0 0 0 0 0 0 0 0 0 127 0" result="hardAlpha"/>
<feOffset dy="4"/>
<feGaussianBlur stdDeviation="3"/>
<feComposite in2="hardAlpha" operator="arithmetic" k2="-1" k3="1"/>
<feColorMatrix type="matrix" values="0 0 0 0 0 0 0 0 0 0 0 0 0 0 0 0 0 0 0.25 0"/>
<feBlend mode="normal" in2="shape" result="effect1_innerShadow_55_1405"/>
<feColorMatrix in="SourceAlpha" type="matrix" values="0 0 0 0 0 0 0 0 0 0 0 0 0 0 0 0 0 0 127 0" result="hardAlpha"/>
<feOffset dy="4"/>
<feGaussianBlur stdDeviation="2"/>
<feComposite in2="hardAlpha" operator="arithmetic" k2="-1" k3="1"/>
<feColorMatrix type="matrix" values="0 0 0 0 0 0 0 0 0 0 0 0 0 0 0 0 0 0 0.25 0"/>
<feBlend mode="normal" in2="effect1_innerShadow_55_1405" result="effect2_innerShadow_55_1405"/>
</filter>
</defs>
</svg>
