<svg width="271" height="205" viewBox="0 0 271 205" fill="none" xmlns="http://www.w3.org/2000/svg">
<g filter="url(#filter0_ii_55_1396)">
<mask id="mask0_55_1396" style="mask-type:alpha" maskUnits="userSpaceOnUse" x="6" y="2" width="259" height="193">
<path fill-rule="evenodd" clip-rule="evenodd" d="M135.973 194.939C64.7281 194.939 6.9729 151.748 6.9729 98.4696C6.9729 45.1909 64.7281 2 135.973 2C176.042 2 211.844 15.6617 235.505 37.0962L260.995 31.1568L252.933 57.7195C260.658 70.0986 264.973 83.9073 264.973 98.4696C264.973 151.748 207.218 194.939 135.973 194.939Z" fill="white"/>
</mask>
<g mask="url(#mask0_55_1396)">
<path fill-rule="evenodd" clip-rule="evenodd" d="M135.973 194.939C64.7281 194.939 6.9729 151.748 6.9729 98.4696C6.9729 45.1909 64.7281 2 135.973 2C176.042 2 211.844 15.6617 235.505 37.0962L260.995 31.1568L252.933 57.7195C260.658 70.0986 264.973 83.9073 264.973 98.4696C264.973 151.748 207.218 194.939 135.973 194.939Z" fill="#FDFDFC"/>
<path d="M235.505 37.0962L236.186 40.018L234.655 40.3746L233.491 39.3196L235.505 37.0962ZM260.995 31.1568L260.314 28.235L265.375 27.0559L263.866 32.0281L260.995 31.1568ZM252.933 57.7195L250.388 59.3078L249.666 58.152L250.062 56.8482L252.933 57.7195ZM9.9729 98.4696C9.9729 123.949 23.7762 147.248 46.5527 164.281C69.3299 181.315 100.935 191.939 135.973 191.939V197.939C99.7662 197.939 66.8711 186.968 42.9594 169.086C19.0472 151.204 3.9729 126.269 3.9729 98.4696H9.9729ZM135.973 5C100.935 5 69.3299 15.6244 46.5527 32.6578C23.7762 49.6907 9.9729 72.99 9.9729 98.4696H3.9729C3.9729 70.6705 19.0472 45.735 42.9594 27.8528C66.8711 9.97102 99.7662 -1 135.973 -1V5ZM233.491 39.3196C210.45 18.4471 175.396 5 135.973 5V-1C176.688 -1 213.238 12.8764 237.519 34.8729L233.491 39.3196ZM261.676 34.0785L236.186 40.018L234.824 34.1745L260.314 28.235L261.676 34.0785ZM250.062 56.8482L258.124 30.2855L263.866 32.0281L255.804 58.5908L250.062 56.8482ZM261.973 98.4696C261.973 84.5188 257.843 71.2548 250.388 59.3078L255.478 56.1312C263.473 68.9425 267.973 83.2957 267.973 98.4696H261.973ZM135.973 191.939C171.011 191.939 202.616 181.315 225.393 164.281C248.17 147.248 261.973 123.949 261.973 98.4696H267.973C267.973 126.269 252.899 151.204 228.986 169.086C205.075 186.968 172.18 197.939 135.973 197.939V191.939Z" fill="black"/>
</g>
</g>
<path d="M199.573 83.1197H68.3735C64.6455 83.1197 61.6235 86.1418 61.6235 89.8697V108.07C61.6235 111.798 64.6455 114.82 68.3735 114.82H199.573C203.301 114.82 206.323 111.798 206.323 108.07V89.8697C206.323 86.1418 203.301 83.1197 199.573 83.1197Z" fill="white"/>
<path d="M84.0921 108.782C82.4628 108.782 81.1281 108.487 80.0881 107.898C79.0481 107.291 78.1901 106.52 77.5141 105.584L79.1001 104.284C79.8108 105.168 80.5561 105.826 81.3361 106.26C82.1335 106.693 83.0781 106.91 84.1701 106.91C85.4875 106.91 86.4928 106.606 87.1861 106C87.8795 105.393 88.2261 104.544 88.2261 103.452C88.2261 102.568 87.9748 101.883 87.4721 101.398C86.9695 100.895 86.0941 100.54 84.8461 100.332L82.8181 99.9937C81.9341 99.8377 81.1888 99.6037 80.5821 99.2917C79.9928 98.9797 79.5161 98.6071 79.1521 98.1737C78.7881 97.7231 78.5281 97.2377 78.3721 96.7177C78.2161 96.1804 78.1381 95.6257 78.1381 95.0537C78.1381 93.3897 78.6841 92.1331 79.7761 91.2837C80.8681 90.4344 82.3415 90.0097 84.1961 90.0097C85.6521 90.0097 86.8741 90.2524 87.8621 90.7377C88.8675 91.2231 89.6735 91.9077 90.2801 92.7917L88.7461 94.1177C88.2435 93.4591 87.6368 92.9217 86.9261 92.5057C86.2155 92.0897 85.2968 91.8817 84.1701 91.8817C82.9395 91.8817 81.9948 92.1417 81.3361 92.6617C80.6775 93.1817 80.3481 93.9617 80.3481 95.0017C80.3481 95.8164 80.5908 96.4837 81.0761 97.0037C81.5788 97.5064 82.4715 97.8704 83.7541 98.0957L85.7041 98.4337C86.5881 98.5897 87.3335 98.8237 87.9401 99.1357C88.5468 99.4477 89.0321 99.8204 89.3961 100.254C89.7775 100.687 90.0461 101.172 90.2021 101.71C90.3581 102.247 90.4361 102.81 90.4361 103.4C90.4361 105.081 89.8815 106.398 88.7721 107.352C87.6801 108.305 86.1201 108.782 84.0921 108.782ZM99.604 108.47C98.5813 108.47 97.8273 108.184 97.342 107.612C96.874 107.04 96.64 106.303 96.64 105.402V96.8217H92.168V95.0537H95.496C95.9466 95.0537 96.2586 94.9671 96.432 94.7937C96.6226 94.6031 96.718 94.2824 96.718 93.8317V90.3217H98.72V95.0537H104.83V96.8217H98.72V106.702H104.83V108.47H99.604ZM118.834 108.47C118.019 108.47 117.438 108.262 117.092 107.846C116.745 107.43 116.528 106.91 116.442 106.286H116.312C116.017 107.066 115.54 107.681 114.882 108.132C114.24 108.565 113.374 108.782 112.282 108.782C110.878 108.782 109.76 108.418 108.928 107.69C108.096 106.962 107.68 105.965 107.68 104.7C107.68 103.452 108.13 102.49 109.032 101.814C109.95 101.138 111.424 100.8 113.452 100.8H116.312V99.4737C116.312 98.4857 116.034 97.7491 115.48 97.2637C114.925 96.7611 114.136 96.5097 113.114 96.5097C112.212 96.5097 111.476 96.6917 110.904 97.0557C110.332 97.4024 109.872 97.8791 109.526 98.4857L108.122 97.4457C108.295 97.0991 108.529 96.7611 108.824 96.4317C109.118 96.1024 109.482 95.8164 109.916 95.5737C110.349 95.3137 110.843 95.1144 111.398 94.9757C111.952 94.8197 112.568 94.7417 113.244 94.7417C114.821 94.7417 116.069 95.1404 116.988 95.9377C117.924 96.7351 118.392 97.8444 118.392 99.2657V106.65H120.264V108.47H118.834ZM112.646 107.04C113.183 107.04 113.668 106.979 114.102 106.858C114.552 106.719 114.942 106.546 115.272 106.338C115.601 106.112 115.852 105.852 116.026 105.558C116.216 105.246 116.312 104.916 116.312 104.57V102.36H113.452C112.204 102.36 111.294 102.533 110.722 102.88C110.15 103.226 109.864 103.729 109.864 104.388V104.934C109.864 105.627 110.106 106.156 110.592 106.52C111.094 106.866 111.779 107.04 112.646 107.04ZM129.224 108.47C128.201 108.47 127.447 108.184 126.962 107.612C126.494 107.04 126.26 106.303 126.26 105.402V96.8217H121.788V95.0537H125.116C125.566 95.0537 125.878 94.9671 126.052 94.7937C126.242 94.6031 126.338 94.2824 126.338 93.8317V90.3217H128.34V95.0537H134.45V96.8217H128.34V106.702H134.45V108.47H129.224ZM144.216 92.0897C143.609 92.0897 143.184 91.9684 142.942 91.7257C142.699 91.4657 142.578 91.1451 142.578 90.7637V90.3477C142.578 89.9664 142.699 89.6544 142.942 89.4117C143.184 89.1517 143.609 89.0217 144.216 89.0217C144.822 89.0217 145.247 89.1517 145.49 89.4117C145.732 89.6544 145.854 89.9664 145.854 90.3477V90.7637C145.854 91.1451 145.732 91.4657 145.49 91.7257C145.247 91.9684 144.822 92.0897 144.216 92.0897ZM138.34 106.702H143.176V96.8217H138.34V95.0537H145.256V106.702H149.78V108.47H138.34V106.702ZM158.193 108.782C157.257 108.782 156.408 108.617 155.645 108.288C154.9 107.958 154.259 107.49 153.721 106.884C153.201 106.26 152.803 105.523 152.525 104.674C152.248 103.807 152.109 102.836 152.109 101.762C152.109 100.704 152.248 99.7424 152.525 98.8757C152.803 98.0091 153.201 97.2724 153.721 96.6657C154.259 96.0417 154.9 95.5651 155.645 95.2357C156.408 94.9064 157.257 94.7417 158.193 94.7417C159.129 94.7417 159.97 94.9064 160.715 95.2357C161.478 95.5651 162.119 96.0417 162.639 96.6657C163.177 97.2724 163.584 98.0091 163.861 98.8757C164.139 99.7424 164.277 100.704 164.277 101.762C164.277 102.836 164.139 103.807 163.861 104.674C163.584 105.523 163.177 106.26 162.639 106.884C162.119 107.49 161.478 107.958 160.715 108.288C159.97 108.617 159.129 108.782 158.193 108.782ZM158.193 106.988C159.355 106.988 160.291 106.641 161.001 105.948C161.712 105.254 162.067 104.18 162.067 102.724V100.8C162.067 99.3437 161.712 98.2691 161.001 97.5757C160.291 96.8824 159.355 96.5357 158.193 96.5357C157.032 96.5357 156.096 96.8824 155.385 97.5757C154.675 98.2691 154.319 99.3437 154.319 100.8V102.724C154.319 104.18 154.675 105.254 155.385 105.948C156.096 106.641 157.032 106.988 158.193 106.988ZM167.751 108.47V95.0537H169.831V97.2377H169.935C170.074 96.9084 170.247 96.5964 170.455 96.3017C170.663 95.9897 170.915 95.7211 171.209 95.4957C171.521 95.2704 171.885 95.0884 172.301 94.9497C172.717 94.8111 173.203 94.7417 173.757 94.7417C175.161 94.7417 176.288 95.1924 177.137 96.0937C177.987 96.9777 178.411 98.2344 178.411 99.8637V108.47H176.331V100.228C176.331 98.9971 176.063 98.0871 175.525 97.4977C174.988 96.8911 174.199 96.5877 173.159 96.5877C172.743 96.5877 172.336 96.6397 171.937 96.7437C171.539 96.8477 171.183 97.0037 170.871 97.2117C170.559 97.4197 170.308 97.6884 170.117 98.0177C169.927 98.3471 169.831 98.7284 169.831 99.1617V108.47H167.751ZM187.969 108.782C186.565 108.782 185.352 108.548 184.329 108.08C183.324 107.594 182.466 106.953 181.755 106.156L183.159 104.934C183.8 105.61 184.502 106.13 185.265 106.494C186.028 106.858 186.946 107.04 188.021 107.04C189.061 107.04 189.91 106.858 190.569 106.494C191.245 106.112 191.583 105.523 191.583 104.726C191.583 104.379 191.514 104.093 191.375 103.868C191.254 103.625 191.08 103.434 190.855 103.296C190.63 103.157 190.378 103.053 190.101 102.984C189.824 102.897 189.529 102.828 189.217 102.776L187.111 102.464C186.643 102.394 186.132 102.299 185.577 102.178C185.04 102.056 184.546 101.866 184.095 101.606C183.644 101.328 183.263 100.964 182.951 100.514C182.656 100.063 182.509 99.4737 182.509 98.7457C182.509 98.0697 182.639 97.4891 182.899 97.0037C183.176 96.5011 183.558 96.0851 184.043 95.7557C184.528 95.4091 185.1 95.1577 185.759 95.0017C186.418 94.8284 187.137 94.7417 187.917 94.7417C189.13 94.7417 190.179 94.9324 191.063 95.3137C191.964 95.6951 192.736 96.2237 193.377 96.8997L192.025 98.1737C191.869 97.9831 191.67 97.7924 191.427 97.6017C191.202 97.3937 190.916 97.2117 190.569 97.0557C190.24 96.8824 189.85 96.7437 189.399 96.6397C188.948 96.5357 188.428 96.4837 187.839 96.4837C186.782 96.4837 185.967 96.6657 185.395 97.0297C184.84 97.3937 184.563 97.9224 184.563 98.6157C184.563 98.9624 184.624 99.2571 184.745 99.4997C184.884 99.7251 185.066 99.9071 185.291 100.046C185.516 100.184 185.768 100.297 186.045 100.384C186.34 100.453 186.634 100.514 186.929 100.566L189.035 100.878C189.52 100.947 190.032 101.042 190.569 101.164C191.106 101.285 191.6 101.484 192.051 101.762C192.502 102.022 192.874 102.377 193.169 102.828C193.481 103.278 193.637 103.868 193.637 104.596C193.637 105.93 193.117 106.962 192.077 107.69C191.054 108.418 189.685 108.782 187.969 108.782Z" fill="black"/>
<path d="M199.573 83.1197H68.3735C64.6455 83.1197 61.6235 86.1418 61.6235 89.8697V108.07C61.6235 111.798 64.6455 114.82 68.3735 114.82H199.573C203.301 114.82 206.323 111.798 206.323 108.07V89.8697C206.323 86.1418 203.301 83.1197 199.573 83.1197Z" stroke="black" stroke-width="0.7"/>
<defs>
<filter id="filter0_ii_55_1396" x="6.9729" y="2" width="258" height="196.939" filterUnits="userSpaceOnUse" color-interpolation-filters="sRGB">
<feFlood flood-opacity="0" result="BackgroundImageFix"/>
<feBlend mode="normal" in="SourceGraphic" in2="BackgroundImageFix" result="shape"/>
<feColorMatrix in="SourceAlpha" type="matrix" values="0 0 0 0 0 0 0 0 0 0 0 0 0 0 0 0 0 0 127 0" result="hardAlpha"/>
<feOffset dy="4"/>
<feGaussianBlur stdDeviation="3"/>
<feComposite in2="hardAlpha" operator="arithmetic" k2="-1" k3="1"/>
<feColorMatrix type="matrix" values="0 0 0 0 0 0 0 0 0 0 0 0 0 0 0 0 0 0 0.25 0"/>
<feBlend mode="normal" in2="shape" result="effect1_innerShadow_55_1396"/>
<feColorMatrix in="SourceAlpha" type="matrix" values="0 0 0 0 0 0 0 0 0 0 0 0 0 0 0 0 0 0 127 0" result="hardAlpha"/>
<feOffset dy="4"/>
<feGaussianBlur stdDeviation="2"/>
<feComposite in2="hardAlpha" operator="arithmetic" k2="-1" k3="1"/>
<feColorMatrix type="matrix" values="0 0 0 0 0 0 0 0 0 0 0 0 0 0 0 0 0 0 0.25 0"/>
<feBlend mode="normal" in2="effect1_innerShadow_55_1396" result="effect2_innerShadow_55_1396"/>
</filter>
</defs>
</svg>
