<svg width="243" height="185" viewBox="0 0 243 185" fill="none" xmlns="http://www.w3.org/2000/svg">
<g filter="url(#filter0_ii_55_1387)">
<mask id="mask0_55_1387" style="mask-type:alpha" maskUnits="userSpaceOnUse" x="6" y="2" width="231" height="173">
<path fill-rule="evenodd" clip-rule="evenodd" d="M121.437 174.905C57.9244 174.905 6.43713 136.401 6.43713 88.9045C6.43713 41.4081 57.9244 2.90454 121.437 2.90454C184.95 2.90454 236.437 41.4081 236.437 88.9045C236.437 113.375 222.771 135.458 200.834 151.119L200.818 174.607L180.356 162.775C163.125 170.478 142.972 174.905 121.437 174.905Z" fill="white"/>
</mask>
<g mask="url(#mask0_55_1387)">
<path fill-rule="evenodd" clip-rule="evenodd" d="M121.437 174.905C57.9244 174.905 6.43713 136.401 6.43713 88.9045C6.43713 41.4081 57.9244 2.90454 121.437 2.90454C184.95 2.90454 236.437 41.4081 236.437 88.9045C236.437 113.375 222.771 135.458 200.834 151.119L200.818 174.607L180.356 162.775C163.125 170.478 142.972 174.905 121.437 174.905Z" fill="#FDFDFC"/>
<path d="M200.834 151.119L197.834 151.117L197.835 149.574L199.091 148.677L200.834 151.119ZM200.818 174.607L203.818 174.609L203.814 179.805L199.316 177.204L200.818 174.607ZM180.356 162.775L179.132 160.036L180.531 159.411L181.858 160.178L180.356 162.775ZM9.43713 88.9045C9.43713 111.493 21.6734 132.175 41.9165 147.313C62.1602 162.452 90.2651 171.905 121.437 171.905V177.905C89.0965 177.905 59.7013 168.105 38.3232 152.118C16.9444 136.131 3.43713 113.813 3.43713 88.9045H9.43713ZM121.437 5.90454C90.2651 5.90454 62.1602 15.3571 41.9165 30.4959C21.6734 45.6342 9.43713 66.316 9.43713 88.9045H3.43713C3.43713 63.9966 16.9444 41.6784 38.3232 25.6909C59.7013 9.70372 89.0965 -0.095459 121.437 -0.095459V5.90454ZM233.437 88.9045C233.437 66.316 221.201 45.6342 200.958 30.4959C180.714 15.3571 152.609 5.90454 121.437 5.90454V-0.095459C153.778 -0.095459 183.173 9.70372 204.551 25.6909C225.93 41.6784 239.437 63.9966 239.437 88.9045H233.437ZM199.091 148.677C220.445 133.433 233.437 112.178 233.437 88.9045H239.437C239.437 114.572 225.096 137.484 202.577 153.561L199.091 148.677ZM197.818 174.605L197.834 151.117L203.834 151.121L203.818 174.609L197.818 174.605ZM181.858 160.178L202.32 172.01L199.316 177.204L178.855 165.372L181.858 160.178ZM121.437 171.905C142.566 171.905 162.3 167.561 179.132 160.036L181.581 165.514C163.95 173.395 143.378 177.905 121.437 177.905V171.905Z" fill="black"/>
</g>
</g>
<path d="M187.037 72.5545H55.8371C52.1092 72.5545 49.0871 75.5766 49.0871 79.3045V97.5045C49.0871 101.232 52.1092 104.255 55.8371 104.255H187.037C190.765 104.255 193.787 101.232 193.787 97.5045V79.3045C193.787 75.5766 190.765 72.5545 187.037 72.5545Z" fill="white"/>
<path d="M66.1478 97.9045L64.7178 79.7565H66.6678L67.4218 90.1565L67.8118 95.6425H68.0198L70.4118 84.4885H72.8558L75.2478 95.6425H75.4558L75.8458 90.1565L76.5998 79.7565H78.4978L77.0678 97.9045H73.9218L71.7118 87.0625H71.5038L69.2938 97.9045H66.1478ZM86.6516 98.2165C85.6809 98.2165 84.8056 98.0519 84.0256 97.7225C83.2629 97.3932 82.6043 96.9252 82.0496 96.3185C81.5123 95.6945 81.0963 94.9579 80.8016 94.1085C80.5069 93.2419 80.3596 92.2799 80.3596 91.2225C80.3596 90.1479 80.5069 89.1772 80.8016 88.3105C81.1136 87.4439 81.5383 86.7072 82.0756 86.1005C82.6129 85.4765 83.2543 84.9999 83.9996 84.6705C84.7623 84.3412 85.6029 84.1765 86.5216 84.1765C87.4229 84.1765 88.2376 84.3412 88.9656 84.6705C89.7109 84.9999 90.3436 85.4592 90.8636 86.0485C91.3836 86.6205 91.7823 87.3052 92.0596 88.1025C92.3369 88.8999 92.4756 89.7752 92.4756 90.7285V91.7165H82.5436V92.3405C82.5436 92.9299 82.6389 93.4759 82.8296 93.9785C83.0203 94.4812 83.2889 94.9145 83.6356 95.2785C83.9996 95.6425 84.4329 95.9285 84.9356 96.1365C85.4556 96.3272 86.0276 96.4225 86.6516 96.4225C87.5529 96.4225 88.3329 96.2145 88.9916 95.7985C89.6503 95.3825 90.1529 94.8105 90.4996 94.0825L92.0336 95.1225C91.6349 96.0239 90.9676 96.7692 90.0316 97.3585C89.1129 97.9305 87.9863 98.2165 86.6516 98.2165ZM86.5216 85.8925C85.9496 85.8925 85.4209 85.9965 84.9356 86.2045C84.4503 86.4125 84.0256 86.6985 83.6616 87.0625C83.3149 87.4265 83.0376 87.8599 82.8296 88.3625C82.6389 88.8479 82.5436 89.3852 82.5436 89.9745V90.1565H90.2396V89.8705C90.2396 89.2812 90.1443 88.7439 89.9536 88.2585C89.7803 87.7732 89.5289 87.3572 89.1996 87.0105C88.8876 86.6465 88.4976 86.3692 88.0296 86.1785C87.5789 85.9879 87.0763 85.8925 86.5216 85.8925ZM95.8974 78.6645H97.9774V86.6725H98.0814C98.9481 85.0085 100.326 84.1765 102.215 84.1765C103.862 84.1765 105.145 84.7919 106.063 86.0225C106.999 87.2532 107.467 88.9779 107.467 91.1965C107.467 93.4152 106.999 95.1399 106.063 96.3705C105.145 97.6012 103.862 98.2165 102.215 98.2165C100.326 98.2165 98.9481 97.3845 98.0814 95.7205H97.9774V97.9045H95.8974V78.6645ZM101.409 96.3705C102.623 96.3705 103.559 96.0065 104.217 95.2785C104.893 94.5332 105.231 93.5539 105.231 92.3405V90.0525C105.231 88.8392 104.893 87.8685 104.217 87.1405C103.559 86.3952 102.623 86.0225 101.409 86.0225C100.941 86.0225 100.499 86.0832 100.083 86.2045C99.6674 86.3259 99.3034 86.5079 98.9914 86.7505C98.6794 86.9759 98.4281 87.2619 98.2374 87.6085C98.0641 87.9379 97.9774 88.3279 97.9774 88.7785V93.6145C97.9774 94.0652 98.0641 94.4639 98.2374 94.8105C98.4281 95.1399 98.6794 95.4259 98.9914 95.6685C99.3034 95.8939 99.6674 96.0672 100.083 96.1885C100.499 96.3099 100.941 96.3705 101.409 96.3705ZM116.869 81.5245C116.263 81.5245 115.838 81.4032 115.595 81.1605C115.353 80.9005 115.231 80.5799 115.231 80.1985V79.7825C115.231 79.4012 115.353 79.0892 115.595 78.8465C115.838 78.5865 116.263 78.4565 116.869 78.4565C117.476 78.4565 117.901 78.5865 118.143 78.8465C118.386 79.0892 118.507 79.4012 118.507 79.7825V80.1985C118.507 80.5799 118.386 80.9005 118.143 81.1605C117.901 81.4032 117.476 81.5245 116.869 81.5245ZM110.993 96.1365H115.829V86.2565H110.993V84.4885H117.909V96.1365H122.433V97.9045H110.993V96.1365ZM125.595 97.9045V84.4885H127.675V86.6725H127.779C127.918 86.3432 128.091 86.0312 128.299 85.7365C128.507 85.4245 128.758 85.1559 129.053 84.9305C129.365 84.7052 129.729 84.5232 130.145 84.3845C130.561 84.2459 131.046 84.1765 131.601 84.1765C133.005 84.1765 134.132 84.6272 134.981 85.5285C135.83 86.4125 136.255 87.6692 136.255 89.2985V97.9045H134.175V89.6625C134.175 88.4319 133.906 87.5219 133.369 86.9325C132.832 86.3259 132.043 86.0225 131.003 86.0225C130.587 86.0225 130.18 86.0745 129.781 86.1785C129.382 86.2825 129.027 86.4385 128.715 86.6465C128.403 86.8545 128.152 87.1232 127.961 87.4525C127.77 87.7819 127.675 88.1632 127.675 88.5965V97.9045H125.595ZM150.727 97.9045C149.912 97.9045 149.332 97.6965 148.985 97.2805C148.638 96.8645 148.422 96.3445 148.335 95.7205H148.205C147.91 96.5005 147.434 97.1159 146.775 97.5665C146.134 97.9999 145.267 98.2165 144.175 98.2165C142.771 98.2165 141.653 97.8525 140.821 97.1245C139.989 96.3965 139.573 95.3999 139.573 94.1345C139.573 92.8865 140.024 91.9245 140.925 91.2485C141.844 90.5725 143.317 90.2345 145.345 90.2345H148.205V88.9085C148.205 87.9205 147.928 87.1839 147.373 86.6985C146.818 86.1959 146.03 85.9445 145.007 85.9445C144.106 85.9445 143.369 86.1265 142.797 86.4905C142.225 86.8372 141.766 87.3139 141.419 87.9205L140.015 86.8805C140.188 86.5339 140.422 86.1959 140.717 85.8665C141.012 85.5372 141.376 85.2512 141.809 85.0085C142.242 84.7485 142.736 84.5492 143.291 84.4105C143.846 84.2545 144.461 84.1765 145.137 84.1765C146.714 84.1765 147.962 84.5752 148.881 85.3725C149.817 86.1699 150.285 87.2792 150.285 88.7005V96.0845H152.157V97.9045H150.727ZM144.539 96.4745C145.076 96.4745 145.562 96.4139 145.995 96.2925C146.446 96.1539 146.836 95.9805 147.165 95.7725C147.494 95.5472 147.746 95.2872 147.919 94.9925C148.11 94.6805 148.205 94.3512 148.205 94.0045V91.7945H145.345C144.097 91.7945 143.187 91.9679 142.615 92.3145C142.043 92.6612 141.757 93.1639 141.757 93.8225V94.3685C141.757 95.0619 142 95.5905 142.485 95.9545C142.988 96.3012 143.672 96.4745 144.539 96.4745ZM154.669 96.1365H158.595V86.2565H154.669V84.4885H160.675V87.8685H160.805C161.082 86.8112 161.602 85.9879 162.365 85.3985C163.145 84.7919 164.133 84.4885 165.329 84.4885H167.201V86.5685H164.679C163.483 86.5685 162.512 86.9152 161.767 87.6085C161.039 88.3019 160.675 89.2119 160.675 90.3385V96.1365H165.875V97.9045H154.669V96.1365ZM175.433 98.2165C174.029 98.2165 172.815 97.9825 171.793 97.5145C170.787 97.0292 169.929 96.3879 169.219 95.5905L170.623 94.3685C171.264 95.0445 171.966 95.5645 172.729 95.9285C173.491 96.2925 174.41 96.4745 175.485 96.4745C176.525 96.4745 177.374 96.2925 178.033 95.9285C178.709 95.5472 179.047 94.9579 179.047 94.1605C179.047 93.8139 178.977 93.5279 178.839 93.3025C178.717 93.0599 178.544 92.8692 178.319 92.7305C178.093 92.5919 177.842 92.4879 177.565 92.4185C177.287 92.3319 176.993 92.2625 176.681 92.2105L174.575 91.8985C174.107 91.8292 173.595 91.7339 173.041 91.6125C172.503 91.4912 172.009 91.3005 171.559 91.0405C171.108 90.7632 170.727 90.3992 170.415 89.9485C170.12 89.4979 169.973 88.9085 169.973 88.1805C169.973 87.5045 170.103 86.9239 170.363 86.4385C170.64 85.9359 171.021 85.5199 171.507 85.1905C171.992 84.8439 172.564 84.5925 173.223 84.4365C173.881 84.2632 174.601 84.1765 175.381 84.1765C176.594 84.1765 177.643 84.3672 178.527 84.7485C179.428 85.1299 180.199 85.6585 180.841 86.3345L179.489 87.6085C179.333 87.4179 179.133 87.2272 178.891 87.0365C178.665 86.8285 178.379 86.6465 178.033 86.4905C177.703 86.3172 177.313 86.1785 176.863 86.0745C176.412 85.9705 175.892 85.9185 175.303 85.9185C174.245 85.9185 173.431 86.1005 172.859 86.4645C172.304 86.8285 172.027 87.3572 172.027 88.0505C172.027 88.3972 172.087 88.6919 172.209 88.9345C172.347 89.1599 172.529 89.3419 172.755 89.4805C172.98 89.6192 173.231 89.7319 173.509 89.8185C173.803 89.8879 174.098 89.9485 174.393 90.0005L176.499 90.3125C176.984 90.3819 177.495 90.4772 178.033 90.5985C178.57 90.7199 179.064 90.9192 179.515 91.1965C179.965 91.4565 180.338 91.8119 180.633 92.2625C180.945 92.7132 181.101 93.3025 181.101 94.0305C181.101 95.3652 180.581 96.3965 179.541 97.1245C178.518 97.8525 177.149 98.2165 175.433 98.2165Z" fill="black"/>
<path d="M187.037 72.5545H55.8371C52.1092 72.5545 49.0871 75.5766 49.0871 79.3045V97.5045C49.0871 101.232 52.1092 104.255 55.8371 104.255H187.037C190.765 104.255 193.787 101.232 193.787 97.5045V79.3045C193.787 75.5766 190.765 72.5545 187.037 72.5545Z" stroke="black" stroke-width="0.7"/>
<defs>
<filter id="filter0_ii_55_1387" x="6.43713" y="2.90454" width="230" height="176" filterUnits="userSpaceOnUse" color-interpolation-filters="sRGB">
<feFlood flood-opacity="0" result="BackgroundImageFix"/>
<feBlend mode="normal" in="SourceGraphic" in2="BackgroundImageFix" result="shape"/>
<feColorMatrix in="SourceAlpha" type="matrix" values="0 0 0 0 0 0 0 0 0 0 0 0 0 0 0 0 0 0 127 0" result="hardAlpha"/>
<feOffset dy="4"/>
<feGaussianBlur stdDeviation="3"/>
<feComposite in2="hardAlpha" operator="arithmetic" k2="-1" k3="1"/>
<feColorMatrix type="matrix" values="0 0 0 0 0 0 0 0 0 0 0 0 0 0 0 0 0 0 0.25 0"/>
<feBlend mode="normal" in2="shape" result="effect1_innerShadow_55_1387"/>
<feColorMatrix in="SourceAlpha" type="matrix" values="0 0 0 0 0 0 0 0 0 0 0 0 0 0 0 0 0 0 127 0" result="hardAlpha"/>
<feOffset dy="4"/>
<feGaussianBlur stdDeviation="2"/>
<feComposite in2="hardAlpha" operator="arithmetic" k2="-1" k3="1"/>
<feColorMatrix type="matrix" values="0 0 0 0 0 0 0 0 0 0 0 0 0 0 0 0 0 0 0.25 0"/>
<feBlend mode="normal" in2="effect1_innerShadow_55_1387" result="effect2_innerShadow_55_1387"/>
</filter>
</defs>
</svg>
