<svg width="110" height="22" viewBox="0 0 110 22" fill="none" xmlns="http://www.w3.org/2000/svg">
<path fill-rule="evenodd" clip-rule="evenodd" d="M5.24734 4.92789C4.85371 4.53485 4.85371 3.89759 5.24734 3.50454C5.64096 3.1115 6.27916 3.1115 6.67278 3.50454L7.15019 3.98125C6.91503 3.59406 6.96494 3.08272 7.29992 2.74824C7.69355 2.35519 8.33174 2.35519 8.72537 2.74824L11.464 5.48288C11.5006 5.12753 11.6552 4.782 11.9279 4.50972C12.0854 4.3525 12.3406 4.3525 12.4981 4.50972L15.6476 7.65464L15.6569 7.66404L16.6266 8.63233C17.5689 9.57325 17.7986 10.9563 17.3157 12.1127L18.4652 13.2606L14.8384 16.8822L13.7718 15.8172C12.5576 16.4929 10.9953 16.3157 9.96362 15.2855L6.99838 12.3247L6.99838 12.3247L4.76221 10.0918C4.36858 9.69873 4.36858 9.06148 4.76221 8.66843C5.15583 8.27538 5.79403 8.27538 6.18765 8.66843L8.42383 10.9013L8.42389 10.9012L4.2113 6.69485C3.81768 6.30181 3.81768 5.66455 4.2113 5.27151C4.54314 4.94016 5.04877 4.88815 5.43518 5.11546L5.24734 4.92789Z" fill="#1898E3"/>
<path d="M7.15019 3.98125L7.00918 4.12204L7.3207 3.87799L7.15019 3.98125ZM11.464 5.48288L11.323 5.62368L11.6196 5.91976L11.6624 5.50323L11.464 5.48288ZM12.4981 4.50972L12.3571 4.65052L12.4981 4.50972ZM15.6476 7.65464L15.7895 7.51475L15.7886 7.51384L15.6476 7.65464ZM15.6569 7.66404L15.515 7.80393L15.5159 7.80483L15.6569 7.66404ZM17.3157 12.1127L17.1316 12.0361L17.0802 12.1592L17.1747 12.2535L17.3157 12.1127ZM18.4652 13.2606L18.6062 13.4014L18.7473 13.2606L18.6062 13.1198L18.4652 13.2606ZM14.8384 16.8822L14.6973 17.023L14.8384 17.1638L14.9794 17.023L14.8384 16.8822ZM13.7718 15.8172L13.9128 15.6764L13.8063 15.5701L13.6747 15.6433L13.7718 15.8172ZM9.96362 15.2855L10.1046 15.1447L9.96362 15.2855ZM6.99838 12.3247L6.85737 12.1839L6.71636 12.3247L6.85737 12.4655L6.99838 12.3247ZM6.99838 12.3247L7.13939 12.4655L7.28039 12.3247L7.13939 12.1839L6.99838 12.3247ZM4.76221 10.0918L4.6212 10.2326L4.76221 10.0918ZM6.18765 8.66843L6.32866 8.52763L6.18765 8.66843ZM8.42383 10.9013L8.28282 11.0421L8.42383 11.1829L8.56483 11.0421L8.42383 10.9013ZM8.42389 10.9012L8.5649 11.042L8.7059 10.9012L8.5649 10.7604L8.42389 10.9012ZM4.2113 6.69485L4.0703 6.83565L4.2113 6.69485ZM5.43518 5.11546L5.33396 5.28701L5.57618 4.97466L5.43518 5.11546ZM5.10633 3.36375C4.63483 3.83455 4.63483 4.59788 5.10633 5.06869L5.38835 4.7871C5.07259 4.47181 5.07259 3.96063 5.38834 3.64534L5.10633 3.36375ZM6.81379 3.36375C6.34229 2.89294 5.57783 2.89294 5.10633 3.36375L5.38834 3.64534C5.70409 3.33006 6.21603 3.33006 6.53178 3.64534L6.81379 3.36375ZM7.29119 3.84045L6.81379 3.36375L6.53178 3.64534L7.00918 4.12204L7.29119 3.84045ZM7.15892 2.60744C6.75748 3.00828 6.69801 3.62072 6.97968 4.0845L7.3207 3.87799C7.13206 3.5674 7.17241 3.15716 7.44093 2.88903L7.15892 2.60744ZM8.86637 2.60744C8.39487 2.13663 7.63042 2.13663 7.15892 2.60744L7.44093 2.88903C7.75668 2.57375 8.26861 2.57375 8.58436 2.88903L8.86637 2.60744ZM11.605 5.34208L8.86637 2.60744L8.58436 2.88903L11.323 5.62368L11.605 5.34208ZM11.7869 4.36892C11.4806 4.67474 11.3067 5.06331 11.2657 5.46253L11.6624 5.50323C11.6945 5.19175 11.8298 4.88926 12.0689 4.65052L11.7869 4.36892ZM12.6391 4.36892C12.4038 4.13394 12.0222 4.13394 11.7869 4.36892L12.0689 4.65052C12.1485 4.57106 12.2775 4.57106 12.3571 4.65052L12.6391 4.36892ZM15.7886 7.51384L12.6391 4.36892L12.3571 4.65052L15.5066 7.79544L15.7886 7.51384ZM15.7988 7.52415L15.7895 7.51475L15.5057 7.79453L15.515 7.80393L15.7988 7.52415ZM16.7676 8.49153L15.7979 7.52324L15.5159 7.80483L16.4856 8.77313L16.7676 8.49153ZM17.4997 12.1894C18.0127 10.961 17.7691 9.49148 16.7676 8.49153L16.4856 8.77313C17.3688 9.65502 17.5845 10.9516 17.1316 12.0361L17.4997 12.1894ZM17.1747 12.2535L18.3242 13.4014L18.6062 13.1198L17.4567 11.9719L17.1747 12.2535ZM18.3242 13.1198L14.6973 16.7414L14.9794 17.023L18.6062 13.4014L18.3242 13.1198ZM14.9794 16.7414L13.9128 15.6764L13.6308 15.958L14.6973 17.023L14.9794 16.7414ZM9.82261 15.4263C10.9189 16.521 12.5789 16.709 13.8689 15.9912L13.6747 15.6433C12.5363 16.2768 11.0716 16.1103 10.1046 15.1447L9.82261 15.4263ZM6.85737 12.4655L9.82261 15.4263L10.1046 15.1447L7.13938 12.1839L6.85737 12.4655ZM6.85738 12.1839L6.85737 12.1839L7.13938 12.4655L7.13939 12.4655L6.85738 12.1839ZM4.6212 10.2326L6.85738 12.4655L7.13939 12.1839L4.90321 9.95098L4.6212 10.2326ZM4.6212 8.52763C4.1497 8.99844 4.1497 9.76177 4.6212 10.2326L4.90321 9.95098C4.58746 9.63569 4.58746 9.12451 4.90321 8.80923L4.6212 8.52763ZM6.32866 8.52763C5.85716 8.05682 5.0927 8.05682 4.6212 8.52763L4.90321 8.80923C5.21896 8.49394 5.7309 8.49394 6.04665 8.80923L6.32866 8.52763ZM8.56483 10.7605L6.32866 8.52763L6.04665 8.80923L8.28282 11.0421L8.56483 10.7605ZM8.28289 10.7604L8.28282 10.7605L8.56483 11.0421L8.5649 11.042L8.28289 10.7604ZM4.0703 6.83565L8.28289 11.042L8.5649 10.7604L4.35231 6.55406L4.0703 6.83565ZM4.0703 5.13071C3.5988 5.60151 3.5988 6.36484 4.0703 6.83565L4.35231 6.55406C4.03656 6.23877 4.03656 5.72759 4.35231 5.4123L4.0703 5.13071ZM5.5364 4.9439C5.07359 4.67164 4.46797 4.73362 4.0703 5.13071L4.35231 5.4123C4.6183 5.14671 5.02396 5.10465 5.33396 5.28701L5.5364 4.9439ZM5.10633 5.06869L5.29417 5.25625L5.57618 4.97466L5.38835 4.7871L5.10633 5.06869Z" fill="white"/>
<line y1="-0.199265" x2="3.40474" y2="-0.199265" transform="matrix(0.707627 0.706586 -0.707627 0.706586 5.97168 8.68362)" stroke="white" stroke-width="0.39853"/>
<line y1="-0.199265" x2="6.43196" y2="-0.199265" transform="matrix(0.707627 0.706586 -0.707627 0.706586 5.24805 5.16043)" stroke="white" stroke-width="0.39853"/>
<line y1="-0.199265" x2="6.11834" y2="-0.199265" transform="matrix(0.707627 0.706586 -0.707627 0.706586 6.88818 3.95206)" stroke="white" stroke-width="0.39853"/>
<line y1="-0.199265" x2="6.11834" y2="-0.199265" transform="matrix(0.707627 0.706586 -0.707627 0.706586 9.99609 4.25046)" stroke="white" stroke-width="0.39853"/>
<path fill-rule="evenodd" clip-rule="evenodd" d="M4.23928 7.8553C3.84565 7.46225 3.84565 6.825 4.23928 6.43195C4.6329 6.0389 5.2711 6.0389 5.66472 6.43195L6.14213 6.90865C5.90697 6.52146 5.95688 6.01012 6.29186 5.67564C6.68549 5.28259 7.32368 5.28259 7.71731 5.67564L10.456 8.41028C10.4925 8.05494 10.6472 7.70941 10.9198 7.43713C11.0773 7.27991 11.3326 7.27991 11.49 7.43713L14.6396 10.582L14.6484 10.591L15.6186 11.5597C16.5609 12.5006 16.7906 13.8837 16.3076 15.0401L17.4572 16.188L13.8303 19.8096L12.7638 18.7446C11.5495 19.4203 9.98719 19.2431 8.95556 18.2129L7.59924 16.8586L7.59842 16.8578L3.75415 13.0192C3.36052 12.6261 3.36052 11.9889 3.75415 11.5958C4.14777 11.2028 4.78597 11.2028 5.17959 11.5958L7.41576 13.8287L7.41583 13.8286L3.20324 9.62226C2.80962 9.22921 2.80962 8.59196 3.20324 8.19891C3.53507 7.86757 4.04071 7.81555 4.42712 8.04286L4.23928 7.8553Z" fill="#1898E3"/>
<path d="M4.23928 7.8553L4.09827 7.9961L4.23928 7.8553ZM6.14213 6.90865L6.00112 7.04945L6.31263 6.8054L6.14213 6.90865ZM10.456 8.41028L10.315 8.55108L10.6115 8.84716L10.6543 8.43063L10.456 8.41028ZM14.6396 10.582L14.7814 10.4421L14.7806 10.4412L14.6396 10.582ZM14.6484 10.591L14.5065 10.7309L14.5074 10.7317L14.6484 10.591ZM16.3076 15.0401L16.1235 14.9635L16.0721 15.0866L16.1666 15.1809L16.3076 15.0401ZM17.4572 16.188L17.5982 16.3288L17.7392 16.188L17.5982 16.0472L17.4572 16.188ZM13.8303 19.8096L13.6893 19.9504L13.8303 20.0912L13.9713 19.9504L13.8303 19.8096ZM12.7638 18.7446L12.9048 18.6038L12.7983 18.4975L12.6667 18.5707L12.7638 18.7446ZM7.59924 16.8586L7.74024 16.7178L7.74016 16.7177L7.59924 16.8586ZM7.59842 16.8578L7.45742 16.9986L7.4575 16.9987L7.59842 16.8578ZM5.17959 11.5958L5.03859 11.7366L5.17959 11.5958ZM7.41576 13.8287L7.27475 13.9695L7.41576 14.1103L7.55676 13.9695L7.41576 13.8287ZM7.41583 13.8286L7.55683 13.9694L7.69784 13.8286L7.55683 13.6878L7.41583 13.8286ZM3.20324 9.62226L3.34425 9.48146L3.20324 9.62226ZM4.42712 8.04286L4.32589 8.21442L4.56812 7.90206L4.42712 8.04286ZM4.09827 6.29115C3.62677 6.76196 3.62677 7.52529 4.09827 7.9961L4.38028 7.7145C4.06453 7.39921 4.06453 6.88803 4.38028 6.57275L4.09827 6.29115ZM5.80573 6.29115C5.33423 5.82034 4.56977 5.82034 4.09827 6.29115L4.38028 6.57275C4.69603 6.25746 5.20797 6.25746 5.52372 6.57275L5.80573 6.29115ZM6.28313 6.76785L5.80573 6.29115L5.52372 6.57275L6.00112 7.04945L6.28313 6.76785ZM6.15085 5.53484C5.74942 5.93569 5.68995 6.54813 5.97162 7.0119L6.31263 6.8054C6.12399 6.4948 6.16435 6.08456 6.43286 5.81644L6.15085 5.53484ZM7.85831 5.53484C7.38681 5.06403 6.62236 5.06403 6.15085 5.53484L6.43286 5.81644C6.74862 5.50115 7.26055 5.50115 7.5763 5.81644L7.85831 5.53484ZM10.597 8.26948L7.85831 5.53484L7.5763 5.81644L10.315 8.55108L10.597 8.26948ZM10.7788 7.29633C10.4726 7.60215 10.2987 7.99071 10.2576 8.38993L10.6543 8.43063C10.6864 8.11916 10.8217 7.81667 11.0608 7.57792L10.7788 7.29633ZM11.631 7.29633C11.3957 7.06135 11.0142 7.06135 10.7788 7.29633L11.0608 7.57792C11.1404 7.49847 11.2694 7.49847 11.349 7.57792L11.631 7.29633ZM14.7806 10.4412L11.631 7.29633L11.349 7.57792L14.4986 10.7228L14.7806 10.4412ZM14.7902 10.451L14.7814 10.4421L14.4977 10.722L14.5065 10.7309L14.7902 10.451ZM15.7596 11.4189L14.7894 10.4502L14.5074 10.7317L15.4776 11.7005L15.7596 11.4189ZM16.4916 15.1168C17.0046 13.8884 16.761 12.4189 15.7596 11.4189L15.4776 11.7005C16.3608 12.5824 16.5765 13.879 16.1235 14.9635L16.4916 15.1168ZM16.1666 15.1809L17.3162 16.3288L17.5982 16.0472L16.4486 14.8993L16.1666 15.1809ZM17.3162 16.0472L13.6893 19.6688L13.9713 19.9504L17.5982 16.3288L17.3162 16.0472ZM13.9713 19.6688L12.9048 18.6038L12.6228 18.8854L13.6893 19.9504L13.9713 19.6688ZM8.81455 18.3537C9.91086 19.4484 11.5708 19.6364 12.8608 18.9186L12.6667 18.5707C11.5282 19.2042 10.0635 19.0377 9.09656 18.0721L8.81455 18.3537ZM7.45823 16.9994L8.81455 18.3537L9.09656 18.0721L7.74024 16.7178L7.45823 16.9994ZM7.4575 16.9987L7.45831 16.9995L7.74016 16.7177L7.73935 16.7169L7.4575 16.9987ZM3.61314 13.16L7.45742 16.9986L7.73943 16.717L3.89515 12.8784L3.61314 13.16ZM3.61314 11.455C3.14164 11.9258 3.14164 12.6892 3.61314 13.16L3.89515 12.8784C3.5794 12.5631 3.5794 12.0519 3.89515 11.7366L3.61314 11.455ZM5.3206 11.455C4.8491 10.9842 4.08464 10.9842 3.61314 11.455L3.89515 11.7366C4.2109 11.4213 4.72284 11.4213 5.03859 11.7366L5.3206 11.455ZM7.55676 13.6879L5.3206 11.455L5.03859 11.7366L7.27475 13.9695L7.55676 13.6879ZM7.27482 13.6878L7.27475 13.6879L7.55676 13.9695L7.55683 13.9694L7.27482 13.6878ZM3.06224 9.76306L7.27482 13.9694L7.55683 13.6878L3.34425 9.48146L3.06224 9.76306ZM3.06224 8.05811C2.59074 8.52892 2.59074 9.29225 3.06224 9.76306L3.34425 9.48146C3.0285 9.16617 3.0285 8.65499 3.34425 8.33971L3.06224 8.05811ZM4.52834 7.8713C4.06553 7.59904 3.45991 7.66102 3.06224 8.05811L3.34425 8.33971C3.61024 8.07411 4.0159 8.03205 4.32589 8.21442L4.52834 7.8713ZM4.09827 7.9961L4.28611 8.18366L4.56812 7.90206L4.38028 7.7145L4.09827 7.9961Z" fill="white"/>
<line y1="-0.199265" x2="3.40474" y2="-0.199265" transform="matrix(0.707627 0.706586 -0.707627 0.706586 4.96362 11.6111)" stroke="white" stroke-width="0.39853"/>
<line y1="-0.199265" x2="6.43196" y2="-0.199265" transform="matrix(0.707627 0.706586 -0.707627 0.706586 4.23999 8.08792)" stroke="white" stroke-width="0.39853"/>
<line y1="-0.199265" x2="6.11834" y2="-0.199265" transform="matrix(0.707627 0.706586 -0.707627 0.706586 5.88013 6.87955)" stroke="white" stroke-width="0.39853"/>
<line y1="-0.199265" x2="6.11834" y2="-0.199265" transform="matrix(0.707627 0.706586 -0.707627 0.706586 8.98804 7.17795)" stroke="white" stroke-width="0.39853"/>
<rect width="0.704301" height="2.18906" rx="0.35215" transform="matrix(0.258929 0.965896 -0.965955 0.258709 4.78125 15.1699)" fill="#1898E3"/>
<rect width="0.70436" height="2.18887" rx="0.35218" transform="matrix(-0.500171 -0.865927 0.866124 -0.499829 16.2058 6.11359)" fill="#1898E3"/>
<rect width="0.704387" height="2.18879" rx="0.352193" transform="matrix(0.576024 0.817433 -0.81768 0.575673 5.76245 16.6818)" fill="#1898E3"/>
<rect width="0.704469" height="2.18853" rx="0.352235" transform="matrix(-0.76797 -0.640486 0.640831 -0.767682 14.8665 4.90707)" fill="#1898E3"/>
<path fill-rule="evenodd" clip-rule="evenodd" d="M27.6528 11.9972C27.6462 11.9905 27.6396 11.9838 27.633 11.977C25.5169 9.80527 25.5169 6.28423 27.633 4.11252C29.7491 1.94081 33.18 1.94081 35.2961 4.11252C35.2961 4.11254 35.2961 4.11255 35.2961 4.11257L35.2962 4.11252L35.2962 4.11254L35.2962 4.11252C37.4123 1.94081 40.8432 1.94081 42.9593 4.11252C45.0754 6.28423 45.0754 9.80527 42.9593 11.977L42.9459 11.9907L35.2962 19.8415L27.6528 11.9972Z" fill="#FF604E"/>
<path d="M27.6528 11.9972L27.7955 11.8582L27.7948 11.8574L27.6528 11.9972ZM27.633 11.977L27.4903 12.116L27.4903 12.1161L27.633 11.977ZM27.633 4.11252L27.4903 3.97346L27.633 4.11252ZM35.2961 4.11252L35.1534 4.25158L35.1542 4.25245L35.2961 4.11252ZM35.2961 4.11257L35.1543 4.2525L35.2966 4.39683L35.4385 4.25201L35.2961 4.11257ZM35.2962 4.11252L35.4389 3.97344L35.2965 3.82739L35.1538 3.97308L35.2962 4.11252ZM35.2962 4.11254L35.1535 4.25162L35.2959 4.39773L35.4386 4.25192L35.2962 4.11254ZM35.2962 4.11252L35.4386 4.2519L35.4389 4.25158L35.2962 4.11252ZM42.9593 4.11252L42.8166 4.25158L42.8166 4.25158L42.9593 4.11252ZM42.9593 11.977L43.1018 12.1163L43.1021 12.1161L42.9593 11.977ZM42.9459 11.9907L42.8035 11.8514L42.8032 11.8516L42.9459 11.9907ZM35.2962 19.8415L35.1535 19.9805L35.2962 20.127L35.4389 19.9805L35.2962 19.8415ZM27.7948 11.8574C27.7884 11.851 27.7821 11.8445 27.7757 11.8379L27.4903 12.1161C27.4971 12.1231 27.5039 12.13 27.5108 12.137L27.7948 11.8574ZM27.7757 11.8379C25.735 9.74359 25.735 6.34592 27.7757 4.25158L27.4903 3.97346C25.2988 6.22255 25.2988 9.86696 27.4903 12.116L27.7757 11.8379ZM27.7757 4.25158C29.8136 2.16014 33.1155 2.16014 35.1534 4.25158L35.4388 3.97346C33.2445 1.72147 29.6846 1.72147 27.4903 3.97346L27.7757 4.25158ZM35.1542 4.25245L35.1543 4.2525L35.438 3.97264L35.438 3.97259L35.1542 4.25245ZM35.1538 3.97308L35.1538 3.97313L35.4385 4.25201L35.4385 4.25196L35.1538 3.97308ZM35.4389 3.97346L35.4389 3.97344L35.1535 4.2516L35.1535 4.25162L35.4389 3.97346ZM35.1538 3.97314L35.1538 3.97316L35.4386 4.25192L35.4386 4.2519L35.1538 3.97314ZM43.1021 3.97346C40.9077 1.72147 37.3478 1.72147 35.1535 3.97346L35.4389 4.25158C37.4768 2.16014 40.7787 2.16014 42.8166 4.25158L43.1021 3.97346ZM43.1021 12.1161C45.2936 9.86696 45.2936 6.22255 43.1021 3.97346L42.8166 4.25158C44.8573 6.34592 44.8573 9.74359 42.8166 11.8379L43.1021 12.1161ZM43.0884 12.13L43.1018 12.1163L42.8169 11.8377L42.8035 11.8514L43.0884 12.13ZM35.4389 19.9805L43.0886 12.1298L42.8032 11.8516L35.1535 19.7024L35.4389 19.9805ZM27.5101 12.1363L35.1535 19.9805L35.4389 19.7024L27.7955 11.8582L27.5101 12.1363Z" fill="white"/>
<path d="M38.9751 4.6469C40.8231 4.61071 42.451 6.33425 42.4959 8.62539L43.2928 8.60978C43.2415 5.99185 41.353 3.80312 38.9595 3.84999L38.9751 4.6469Z" fill="white"/>
<path fill-rule="evenodd" clip-rule="evenodd" d="M56.6398 2.67596C58.1437 2.67596 59.3628 3.89513 59.3628 5.39905V8.09216H62.9702L64.7847 8.09216C65.568 8.09216 66.2029 8.72712 66.2029 9.51037C66.2029 10.2936 65.568 10.9286 64.7847 10.9286C65.568 10.9286 66.2029 11.5635 66.2029 12.3468C66.2029 13.13 65.568 13.765 64.7847 13.765L64.7694 13.765C65.5527 13.765 66.1876 14.3999 66.1876 15.1832C66.1876 15.9665 65.5527 16.6014 64.7694 16.6014L64.7847 16.6014C65.568 16.6014 66.2029 17.2364 66.2029 18.0196C66.2029 18.8029 65.568 19.4378 64.7847 19.4378H60.3596L57.553 19.4378C56.8188 19.4378 56.2005 18.9414 56.0154 18.2659H53.0444L53.0444 10.6604H55.9589V8.09216H55.959V3.35674C55.959 2.98076 56.2638 2.67596 56.6398 2.67596Z" fill="#37BF3D"/>
<path d="M59.3628 8.09216H59.1636V8.29142H59.3628V8.09216ZM62.9702 8.09216L62.9702 7.89289H62.9702V8.09216ZM64.7847 8.09216L64.7847 8.29143H64.7847V8.09216ZM64.7847 13.765L64.7847 13.5657L64.7847 13.5657L64.7847 13.765ZM64.7694 13.765L64.7694 13.5657L64.7694 13.9643V13.765ZM64.7694 16.6014V16.4021L64.7694 16.8007L64.7694 16.6014ZM64.7847 16.6014L64.7847 16.8007H64.7847V16.6014ZM60.3596 19.4378L60.3596 19.6371H60.3596V19.4378ZM57.553 19.4378L57.553 19.2386H57.553V19.4378ZM56.0154 18.2659L56.2076 18.2133L56.1674 18.0667H56.0154V18.2659ZM53.0444 18.2659L52.8452 18.2659L52.8452 18.4652H53.0444V18.2659ZM53.0444 10.6604V10.4611H52.8452L52.8452 10.6604L53.0444 10.6604ZM55.9589 10.6604V10.8597H56.1581V10.6604H55.9589ZM55.9589 8.09216V7.89289H55.7596V8.09216H55.9589ZM55.959 8.09216V8.29142H56.1582V8.09216H55.959ZM59.5621 5.39905C59.5621 3.78508 58.2537 2.4767 56.6398 2.4767V2.87523C58.0336 2.87523 59.1636 4.00518 59.1636 5.39905H59.5621ZM59.5621 8.09216V5.39905H59.1636V8.09216H59.5621ZM62.9702 7.89289H59.3628V8.29142H62.9702V7.89289ZM64.7847 7.8929L62.9702 7.89289L62.9702 8.29142L64.7847 8.29143L64.7847 7.8929ZM66.4022 9.51037C66.4022 8.61707 65.678 7.8929 64.7847 7.8929V8.29143C65.4579 8.29143 66.0037 8.83717 66.0037 9.51037H66.4022ZM64.7847 11.1278C65.678 11.1278 66.4022 10.4037 66.4022 9.51037H66.0037C66.0037 10.1836 65.4579 10.7293 64.7847 10.7293V11.1278ZM66.4022 12.3468C66.4022 11.4535 65.678 10.7293 64.7847 10.7293L64.7847 11.1278C65.4579 11.1278 66.0037 11.6736 66.0037 12.3468H66.4022ZM64.7847 13.9643C65.678 13.9643 66.4022 13.2401 66.4022 12.3468H66.0037C66.0037 13.02 65.4579 13.5657 64.7847 13.5657V13.9643ZM64.7695 13.9643L64.7848 13.9643L64.7847 13.5657L64.7694 13.5657L64.7695 13.9643ZM66.3869 15.1832C66.3869 14.2899 65.6627 13.5657 64.7694 13.5657V13.9643C65.4426 13.9643 65.9883 14.51 65.9883 15.1832H66.3869ZM64.7694 16.8007C65.6627 16.8007 66.3869 16.0765 66.3869 15.1832H65.9883C65.9883 15.8564 65.4426 16.4021 64.7694 16.4021V16.8007ZM64.7848 16.4021L64.7695 16.4021L64.7694 16.8007L64.7847 16.8007L64.7848 16.4021ZM66.4022 18.0196C66.4022 17.1263 65.678 16.4021 64.7847 16.4021V16.8007C65.4579 16.8007 66.0037 17.3464 66.0037 18.0196H66.4022ZM64.7847 19.6371C65.678 19.6371 66.4022 18.9129 66.4022 18.0196H66.0037C66.0037 18.6928 65.4579 19.2386 64.7847 19.2386V19.6371ZM60.3596 19.6371H64.7847V19.2386H60.3596V19.6371ZM57.553 19.6371L60.3596 19.6371L60.3596 19.2386L57.553 19.2386L57.553 19.6371ZM55.8232 18.3186C56.0314 19.0784 56.7267 19.6371 57.553 19.6371V19.2386C56.9108 19.2386 56.3695 18.8044 56.2076 18.2133L55.8232 18.3186ZM53.0444 18.4652H56.0154V18.0667H53.0444V18.4652ZM52.8452 10.6604L52.8452 18.2659L53.2437 18.2659L53.2437 10.6604L52.8452 10.6604ZM55.9589 10.4611H53.0444V10.8597H55.9589V10.4611ZM55.7596 8.09216V10.6604H56.1581V8.09216H55.7596ZM55.959 7.89289H55.9589V8.29142H55.959V7.89289ZM55.7597 3.35674V8.09216H56.1582V3.35674H55.7597ZM56.6398 2.4767C56.1537 2.4767 55.7597 2.87071 55.7597 3.35674H56.1582C56.1582 3.09081 56.3738 2.87523 56.6398 2.87523V2.4767Z" fill="white"/>
<rect x="60.3442" y="10.9286" width="2.83641" height="5.84337" rx="1.41821" transform="rotate(-90 60.3442 10.9286)" fill="#37BF3D" stroke="white" stroke-width="0.39853"/>
<rect x="60.3442" y="16.6014" width="2.83641" height="5.84337" rx="1.41821" transform="rotate(-90 60.3442 16.6014)" fill="#37BF3D" stroke="white" stroke-width="0.39853"/>
<rect x="60.3442" y="13.765" width="2.83641" height="5.84337" rx="1.41821" transform="rotate(-90 60.3442 13.765)" fill="#37BF3D" stroke="white" stroke-width="0.39853"/>
<rect x="60.3442" y="19.4379" width="2.83641" height="5.84337" rx="1.41821" transform="rotate(-90 60.3442 19.4379)" fill="#37BF3D" stroke="white" stroke-width="0.39853"/>
<rect width="0.704444" height="1.32377" rx="0.352222" transform="matrix(-0.713923 -0.700224 0.700549 -0.713604 60.3442 4.91272)" fill="#37BF3D"/>
<rect width="0.704449" height="1.51953" rx="0.352224" transform="matrix(-0.725435 0.688291 -0.688621 -0.725121 55.3105 4.42786)" fill="#37BF3D"/>
<path fill-rule="evenodd" clip-rule="evenodd" d="M87.0107 14.3334C88.9243 13.277 90.221 11.2341 90.221 8.88731C90.221 5.4569 87.4503 2.67599 84.0325 2.67599C80.6147 2.67599 77.844 5.4569 77.844 8.88731C77.844 11.2341 79.1407 13.277 81.0543 14.3334V15.6991C81.0543 16.1393 81.4111 16.4962 81.8513 16.4962H86.2136C86.6539 16.4962 87.0107 16.1393 87.0107 15.6991V14.3334ZM81.0543 17.2668C81.0543 16.8412 81.3993 16.4962 81.8249 16.4962H86.2401C86.6657 16.4962 87.0107 16.8412 87.0107 17.2668C87.0107 17.6919 86.6665 18.0366 86.2417 18.0374C86.6665 18.0383 87.0107 18.383 87.0107 18.8081C87.0107 19.2337 86.6657 19.5787 86.2401 19.5787H81.8249C81.3993 19.5787 81.0543 19.2337 81.0543 18.8081C81.0543 18.3824 81.3993 18.0374 81.8249 18.0374C81.3993 18.0374 81.0543 17.6924 81.0543 17.2668Z" fill="#FF8C12"/>
<path d="M87.0107 14.3334L86.9144 14.1589L86.8114 14.2158V14.3334H87.0107ZM81.0543 14.3334H81.2535V14.2158L81.1506 14.1589L81.0543 14.3334ZM86.2417 18.0374L86.2413 17.8382L86.2413 18.2367L86.2417 18.0374ZM81.8249 18.0374V18.2367L81.8249 17.8382L81.8249 18.0374ZM90.0217 8.88731C90.0217 11.1589 88.7668 13.1363 86.9144 14.1589L87.107 14.5078C89.0817 13.4176 90.4202 11.3093 90.4202 8.88731H90.0217ZM84.0325 2.87526C87.3396 2.87526 90.0217 5.56626 90.0217 8.88731H90.4202C90.4202 5.34754 87.561 2.47673 84.0325 2.47673V2.87526ZM78.0433 8.88731C78.0433 5.56626 80.7254 2.87526 84.0325 2.87526V2.47673C80.5039 2.47673 77.6447 5.34754 77.6447 8.88731H78.0433ZM81.1506 14.1589C79.2982 13.1363 78.0433 11.1589 78.0433 8.88731H77.6447C77.6447 11.3093 78.9832 13.4176 80.958 14.5078L81.1506 14.1589ZM81.2535 15.6991V14.3334H80.855V15.6991H81.2535ZM81.8513 16.2969C81.5212 16.2969 81.2535 16.0293 81.2535 15.6991H80.855C80.855 16.2494 81.3011 16.6954 81.8513 16.6954V16.2969ZM86.2136 16.2969H81.8513V16.6954H86.2136V16.2969ZM86.8114 15.6991C86.8114 16.0293 86.5438 16.2969 86.2136 16.2969V16.6954C86.7639 16.6954 87.21 16.2494 87.21 15.6991H86.8114ZM86.8114 14.3334V15.6991H87.21V14.3334H86.8114ZM81.8249 16.2969C81.2893 16.2969 80.855 16.7311 80.855 17.2668H81.2535C81.2535 16.9512 81.5094 16.6954 81.8249 16.6954V16.2969ZM86.2401 16.2969H81.8249V16.6954H86.2401V16.2969ZM87.21 17.2668C87.21 16.7311 86.7757 16.2969 86.2401 16.2969V16.6954C86.5556 16.6954 86.8114 16.9512 86.8114 17.2668H87.21ZM86.2421 18.2367C86.7768 18.2356 87.21 17.8018 87.21 17.2668H86.8114C86.8114 17.582 86.5563 17.8375 86.2413 17.8382L86.2421 18.2367ZM86.2413 18.2367C86.5563 18.2373 86.8114 18.4929 86.8114 18.8081H87.21C87.21 18.2731 86.7768 17.8392 86.2421 17.8382L86.2413 18.2367ZM86.8114 18.8081C86.8114 19.1236 86.5556 19.3794 86.2401 19.3794V19.778C86.7757 19.778 87.21 19.3437 87.21 18.8081H86.8114ZM86.2401 19.3794H81.8249V19.778H86.2401V19.3794ZM81.8249 19.3794C81.5094 19.3794 81.2535 19.1236 81.2535 18.8081H80.855C80.855 19.3437 81.2893 19.778 81.8249 19.778V19.3794ZM81.2535 18.8081C81.2535 18.4925 81.5094 18.2367 81.8249 18.2367L81.8249 17.8382C81.2893 17.8382 80.855 18.2724 80.855 18.8081H81.2535ZM80.855 17.2668C80.855 17.8025 81.2893 18.2367 81.8249 18.2367V17.8382C81.5094 17.8382 81.2535 17.5824 81.2535 17.2668H80.855Z" fill="white"/>
<path d="M81.0542 17.2668C81.0542 16.8412 81.3992 16.4962 81.8248 16.4962H86.24C86.6656 16.4962 87.0106 16.8412 87.0106 17.2668V17.2668C87.0106 17.6924 86.6656 18.0375 86.24 18.0375H81.8248C81.3992 18.0375 81.0542 17.6924 81.0542 17.2668V17.2668Z" fill="#FF8C12" stroke="white" stroke-width="0.39853"/>
<path d="M81.0542 18.8081C81.0542 18.3825 81.3992 18.0374 81.8248 18.0374H86.24C86.6656 18.0374 87.0106 18.3825 87.0106 18.8081V18.8081C87.0106 19.2337 86.6656 19.5787 86.24 19.5787H81.8248C81.3992 19.5787 81.0542 19.2337 81.0542 18.8081V18.8081Z" fill="#FF8C12" stroke="white" stroke-width="0.39853"/>
<path d="M84.6079 4.90657C86.5634 4.86828 88.2517 6.60753 88.2963 8.88178L89.0932 8.86617C89.0416 6.23136 87.0634 4.06128 84.5923 4.10966L84.6079 4.90657Z" fill="white"/>
<path d="M106.933 13.0159C106.933 13.5194 106.815 13.9473 106.581 14.2994C106.35 14.6477 106.035 14.9127 105.638 15.0944C105.244 15.2761 104.799 15.367 104.303 15.367C103.807 15.367 103.361 15.2761 102.963 15.0944C102.566 14.9127 102.251 14.6477 102.02 14.2994C101.789 13.9473 101.674 13.5194 101.674 13.0159C101.674 12.6865 101.736 12.3856 101.861 12.113C101.99 11.8366 102.17 11.5962 102.401 11.3917C102.636 11.1873 102.912 11.0302 103.23 10.9204C103.552 10.8068 103.906 10.75 104.292 10.75C104.799 10.75 105.252 10.8485 105.649 11.0453C106.047 11.2384 106.359 11.5053 106.586 11.8461C106.817 12.1868 106.933 12.5767 106.933 13.0159ZM105.876 12.9932C105.876 12.6865 105.81 12.4158 105.678 12.1811C105.545 11.9426 105.36 11.7571 105.121 11.6246C104.883 11.4921 104.606 11.4258 104.292 11.4258C103.97 11.4258 103.692 11.4921 103.457 11.6246C103.226 11.7571 103.046 11.9426 102.918 12.1811C102.789 12.4158 102.725 12.6865 102.725 12.9932C102.725 13.3112 102.787 13.5838 102.912 13.811C103.041 14.0343 103.222 14.2066 103.457 14.3278C103.696 14.4451 103.978 14.5038 104.303 14.5038C104.629 14.5038 104.909 14.4451 105.144 14.3278C105.379 14.2066 105.558 14.0343 105.683 13.811C105.812 13.5838 105.876 13.3112 105.876 12.9932ZM106.74 9.1372C106.74 9.53851 106.634 9.90007 106.422 10.2219C106.21 10.5437 105.92 10.7973 105.553 10.9829C105.185 11.1684 104.769 11.2611 104.303 11.2611C103.83 11.2611 103.408 11.1684 103.037 10.9829C102.67 10.7973 102.382 10.5437 102.174 10.2219C101.965 9.90007 101.861 9.53851 101.861 9.1372C101.861 8.65638 101.965 8.2475 102.174 7.91055C102.386 7.57359 102.675 7.31615 103.043 7.13821C103.41 6.96027 103.828 6.8713 104.298 6.8713C104.771 6.8713 105.191 6.96027 105.558 7.13821C105.926 7.31615 106.213 7.57359 106.422 7.91055C106.634 8.2475 106.74 8.65638 106.74 9.1372ZM105.689 9.15423C105.689 8.87786 105.63 8.63366 105.513 8.42165C105.396 8.20964 105.233 8.04305 105.025 7.9219C104.816 7.79697 104.574 7.7345 104.298 7.7345C104.021 7.7345 103.779 7.79318 103.571 7.91055C103.366 8.02412 103.205 8.18692 103.088 8.39893C102.974 8.61095 102.918 8.86271 102.918 9.15423C102.918 9.43818 102.974 9.68616 103.088 9.89818C103.205 10.1102 103.368 10.2749 103.576 10.3922C103.785 10.5096 104.027 10.5683 104.303 10.5683C104.58 10.5683 104.82 10.5096 105.025 10.3922C105.233 10.2749 105.396 10.1102 105.513 9.89818C105.63 9.68616 105.689 9.43818 105.689 9.15423Z" fill="#797979"/>
</svg>
