<svg width="102" height="104" viewBox="0 0 102 104" fill="none" xmlns="http://www.w3.org/2000/svg">
<g clip-path="url(#clip0_103_2211)">
<rect x="51.2866" y="81.4893" width="3.2782" height="8.18171" rx="1.6391" transform="rotate(-43.0786 51.2866 81.4893)" fill="black" stroke="white" stroke-width="0.753994"/>
<rect width="4.13067" height="12.2515" rx="2.06534" transform="matrix(0.965926 0.258819 -0.332494 0.943105 53.6716 90.8599)" fill="black" stroke="white" stroke-width="0.753994"/>
<path fill-rule="evenodd" clip-rule="evenodd" d="M49.1129 72.349C47.8637 72.349 46.851 73.3617 46.851 74.611V85.8077C46.516 86.4462 46.4854 87.2384 46.8349 87.9003L46.851 87.9307V88.6616H47.237L49.3779 92.7155L46.887 99.7808C46.5077 100.857 47.0935 101.968 48.1952 102.263C49.297 102.558 50.4977 101.926 50.8769 100.85L53.577 93.1912C53.7785 92.6196 53.7076 92.038 53.4316 91.574C53.4235 91.5575 53.415 91.5411 53.4064 91.5247L51.8944 88.6616H55.5803V74.611C55.5803 73.3617 54.5676 72.349 53.3183 72.349H49.1129Z" fill="black"/>
<path d="M46.851 85.8077L47.1848 85.9828L47.228 85.9006V85.8077H46.851ZM46.8349 87.9003L47.1683 87.7243L47.1683 87.7243L46.8349 87.9003ZM46.851 87.9307H47.228V87.8373L47.1843 87.7546L46.851 87.9307ZM46.851 88.6616H46.474V89.0386H46.851V88.6616ZM47.237 88.6616L47.5703 88.4856L47.4642 88.2847H47.237V88.6616ZM49.3779 92.7155L49.7334 92.8409L49.7883 92.6853L49.7113 92.5395L49.3779 92.7155ZM46.887 99.7808L46.5314 99.6555H46.5314L46.887 99.7808ZM48.1952 102.263L48.0977 102.627H48.0977L48.1952 102.263ZM50.8769 100.85L50.5214 100.725L50.8769 100.85ZM53.577 93.1912L53.2215 93.0658L53.577 93.1912ZM53.4316 91.574L53.0938 91.7413L53.1002 91.7543L53.1076 91.7668L53.4316 91.574ZM53.4064 91.5247L53.7398 91.3486L53.7398 91.3486L53.4064 91.5247ZM51.8944 88.6616V88.2847H51.269L51.561 88.8377L51.8944 88.6616ZM55.5803 88.6616V89.0386H55.9573V88.6616H55.5803ZM47.228 74.611C47.228 73.5699 48.0719 72.726 49.1129 72.726V71.972C47.6555 71.972 46.474 73.1535 46.474 74.611H47.228ZM47.228 85.8077V74.611H46.474V85.8077H47.228ZM46.5171 85.6325C46.1291 86.3721 46.0894 87.296 46.5016 88.0764L47.1683 87.7243C46.8813 87.1809 46.9028 86.5203 47.1848 85.9828L46.5171 85.6325ZM46.5016 88.0764L46.5176 88.1067L47.1843 87.7546L47.1683 87.7243L46.5016 88.0764ZM47.228 88.6616V87.9307H46.474V88.6616H47.228ZM47.237 88.2847H46.851V89.0386H47.237V88.2847ZM46.9036 88.8377L49.0445 92.8916L49.7113 92.5395L47.5703 88.4856L46.9036 88.8377ZM49.0223 92.5902L46.5314 99.6555L47.2425 99.9062L49.7334 92.8409L49.0223 92.5902ZM46.5314 99.6555C46.0791 100.938 46.7837 102.275 48.0977 102.627L48.2928 101.899C47.4032 101.661 46.9363 100.775 47.2425 99.9062L46.5314 99.6555ZM48.0977 102.627C49.3897 102.974 50.7877 102.237 51.2325 100.975L50.5214 100.725C50.2076 101.615 49.2044 102.143 48.2928 101.899L48.0977 102.627ZM51.2325 100.975L53.9326 93.3165L53.2215 93.0658L50.5214 100.725L51.2325 100.975ZM53.9326 93.3165C54.1711 92.6399 54.089 91.9417 53.7556 91.3813L53.1076 91.7668C53.3262 92.1342 53.386 92.5993 53.2215 93.0658L53.9326 93.3165ZM53.7695 91.4068C53.7599 91.3873 53.7499 91.3679 53.7398 91.3486L53.073 91.7007C53.0801 91.7142 53.0871 91.7277 53.0938 91.7413L53.7695 91.4068ZM53.7398 91.3486L52.2278 88.4856L51.561 88.8377L53.073 91.7007L53.7398 91.3486ZM55.5803 88.2847H51.8944V89.0386H55.5803V88.2847ZM55.2033 74.611V88.6616H55.9573V74.611H55.2033ZM53.3183 72.726C54.3594 72.726 55.2033 73.5699 55.2033 74.611H55.9573C55.9573 73.1535 54.7758 71.972 53.3183 71.972V72.726ZM49.1129 72.726H53.3183V71.972H49.1129V72.726Z" fill="white"/>
<path d="M35.2627 87.0053C35.2627 86.5889 35.6003 86.2513 36.0167 86.2513H46.6258H48.2229H49.82H60.8951C61.027 86.2513 61.1565 86.2859 61.2709 86.3517L69.6349 91.1602C70.1334 91.4468 70.1406 92.1634 69.648 92.4599L61.2758 97.4992C61.1584 97.5699 61.024 97.6072 60.887 97.6072H52.0559H49.82H47.584H36.0167C35.6003 97.6072 35.2627 97.2696 35.2627 96.8532V87.0053Z" fill="black"/>
<path d="M46.6258 86.2513H36.0167C35.6003 86.2513 35.2627 86.5889 35.2627 87.0053V96.8532C35.2627 97.2696 35.6003 97.6072 36.0167 97.6072H47.584M49.82 86.2513H60.8951C61.027 86.2513 61.1565 86.2859 61.2709 86.3517L69.6349 91.1602C70.1334 91.4468 70.1406 92.1634 69.648 92.4599L61.2758 97.4992C61.1584 97.5699 61.024 97.6072 60.887 97.6072H52.0559" stroke="white" stroke-width="0.753994"/>
<path d="M35.2627 80.8242L41.7363 86.2506H35.2627V80.8242Z" fill="black" stroke="white" stroke-width="0.753994"/>
<path d="M35.2627 103.034L41.7363 97.6076H35.2627V103.034Z" fill="black" stroke="white" stroke-width="0.753994"/>
<line x1="60.9659" y1="86.2513" x2="60.9659" y2="97.6074" stroke="white" stroke-width="0.753994"/>
<circle cx="51.2156" cy="67.6495" r="3.36185" fill="black" stroke="white" stroke-width="0.753994"/>
<path fill-rule="evenodd" clip-rule="evenodd" d="M50.03 74.2037C49.1866 73.8749 48.2363 74.2921 47.9075 75.1355L45.8094 80.518C45.5379 81.2144 45.775 81.9836 46.3407 82.4157L50.6623 87.0374C51.2806 87.6986 52.3178 87.7334 52.979 87.1151C53.6402 86.4968 53.675 85.4596 53.0567 84.7984L49.2474 80.7245L50.9619 76.3262C51.2907 75.4827 50.8734 74.5325 50.03 74.2037Z" fill="black"/>
<path d="M47.9075 75.1355L48.2588 75.2725L47.9075 75.1355ZM50.03 74.2037L49.8931 74.5549V74.5549L50.03 74.2037ZM45.8094 80.518L46.1606 80.655H46.1606L45.8094 80.518ZM46.3407 82.4157L46.616 82.1582L46.5945 82.1353L46.5695 82.1161L46.3407 82.4157ZM50.6623 87.0374L50.9377 86.7799L50.6623 87.0374ZM52.979 87.1151L53.2365 87.3905L52.979 87.1151ZM53.0567 84.7984L53.3321 84.5409V84.5409L53.0567 84.7984ZM49.2474 80.7245L48.8961 80.5876L48.8099 80.8087L48.972 80.982L49.2474 80.7245ZM50.9619 76.3262L50.6106 76.1892L50.9619 76.3262ZM48.2588 75.2725C48.5119 74.623 49.2436 74.3018 49.8931 74.5549L50.1669 73.8524C49.1295 73.448 47.9607 73.9612 47.5563 74.9986L48.2588 75.2725ZM46.1606 80.655L48.2588 75.2725L47.5563 74.9986L45.4581 80.3811L46.1606 80.655ZM46.5695 82.1161C46.1338 81.7833 45.9518 81.1907 46.1606 80.655L45.4581 80.3811C45.124 81.2382 45.4162 82.184 46.1118 82.7153L46.5695 82.1161ZM50.9377 86.7799L46.616 82.1582L46.0653 82.6732L50.3869 87.2949L50.9377 86.7799ZM52.7215 86.8397C52.2124 87.3158 51.4137 87.289 50.9377 86.7799L50.3869 87.2949C51.1474 88.1082 52.4232 88.151 53.2365 87.3905L52.7215 86.8397ZM52.7814 85.0559C53.2575 85.565 53.2307 86.3637 52.7215 86.8397L53.2365 87.3905C54.0498 86.63 54.0926 85.3542 53.3321 84.5409L52.7814 85.0559ZM48.972 80.982L52.7814 85.0559L53.3321 84.5409L49.5227 80.467L48.972 80.982ZM50.6106 76.1892L48.8961 80.5876L49.5986 80.8614L51.3131 76.4631L50.6106 76.1892ZM49.8931 74.5549C50.5425 74.8081 50.8638 75.5398 50.6106 76.1892L51.3131 76.4631C51.7175 75.4256 51.2044 74.2568 50.1669 73.8524L49.8931 74.5549Z" fill="white"/>
<path d="M51.4152 87.4532L53.4062 91.507C53.4801 91.647 53.537 91.7928 53.5776 91.9417C53.7142 92.335 53.7204 92.7805 53.5654 93.2201L50.8653 100.879C50.486 101.955 49.2854 102.587 48.1836 102.292C47.0818 101.997 46.4961 100.885 46.8754 99.8097L49.3807 92.7036L46.8347 87.8827C46.4908 87.2315 46.5148 86.4542 46.8347 85.8212" stroke="white" stroke-width="0.753994"/>
</g>
<path d="M1.21069 6.3213L1.71069 6.3213L1.21069 6.3213ZM6.21069 1.3213L6.21069 0.821296L6.21069 1.3213ZM1.21069 39.4426L0.710693 39.4426L1.21069 39.4426ZM6.21069 44.4426L6.21069 43.9426L6.21069 44.4426ZM46.3695 44.4426L46.783 44.1616L46.6342 43.9426L46.3695 43.9426L46.3695 44.4426ZM51.2865 51.6775L50.873 51.9586L51.2865 52.5671L51.7001 51.9586L51.2865 51.6775ZM56.2036 44.4426L56.2036 43.9426L55.9388 43.9426L55.79 44.1616L56.2036 44.4426ZM96.3623 44.4426L96.3623 44.9426L96.3623 44.4426ZM101.362 39.4426L101.862 39.4426L101.362 39.4426ZM101.362 6.3213L100.862 6.3213L101.362 6.3213ZM96.3623 1.3213L96.3623 1.8213L96.3623 1.3213ZM1.71069 6.3213C1.71069 3.83601 3.72541 1.8213 6.21069 1.8213L6.21069 0.821296C3.17313 0.821297 0.710693 3.28373 0.710693 6.3213L1.71069 6.3213ZM1.71069 39.4426L1.71069 6.3213L0.710693 6.3213L0.710693 39.4426L1.71069 39.4426ZM6.21069 43.9426C3.72541 43.9426 1.71069 41.9279 1.71069 39.4426L0.710693 39.4426C0.710693 42.4802 3.17313 44.9426 6.21069 44.9426L6.21069 43.9426ZM46.3695 43.9426L6.21069 43.9426L6.21069 44.9426L46.3695 44.9426L46.3695 43.9426ZM51.7001 51.3965L46.783 44.1616L45.956 44.7237L50.873 51.9586L51.7001 51.3965ZM55.79 44.1616L50.873 51.3965L51.7001 51.9586L56.6171 44.7237L55.79 44.1616ZM96.3623 43.9426L56.2036 43.9426L56.2036 44.9426L96.3623 44.9426L96.3623 43.9426ZM100.862 39.4426C100.862 41.9279 98.8476 43.9426 96.3623 43.9426L96.3623 44.9426C99.3999 44.9426 101.862 42.4802 101.862 39.4426L100.862 39.4426ZM100.862 6.3213L100.862 39.4426L101.862 39.4426L101.862 6.3213L100.862 6.3213ZM96.3623 1.8213C98.8476 1.8213 100.862 3.83601 100.862 6.3213L101.862 6.3213C101.862 3.28373 99.3999 0.821296 96.3623 0.821296L96.3623 1.8213ZM6.21069 1.8213L96.3623 1.8213L96.3623 0.821296L6.21069 0.821296L6.21069 1.8213Z" fill="white"/>
<path d="M9.34038 13.3809V19.0684H8.58647V13.3809H9.34038ZM11.7232 15.9395V16.5566H9.17632V15.9395H11.7232ZM12.1099 13.3809V13.998H9.17632V13.3809H12.1099ZM15.2583 18.3457V16.1699C15.2583 16.0033 15.2245 15.8587 15.1568 15.7363C15.0917 15.6113 14.9927 15.515 14.8599 15.4473C14.7271 15.3796 14.563 15.3457 14.3677 15.3457C14.1854 15.3457 14.0253 15.377 13.8873 15.4395C13.7518 15.502 13.6451 15.584 13.5669 15.6855C13.4914 15.7871 13.4537 15.8965 13.4537 16.0137H12.731C12.731 15.8626 12.7701 15.7129 12.8482 15.5645C12.9263 15.416 13.0383 15.2819 13.1841 15.1621C13.3326 15.0397 13.5096 14.9434 13.7154 14.873C13.9237 14.8001 14.1555 14.7637 14.4107 14.7637C14.718 14.7637 14.9888 14.8158 15.2232 14.9199C15.4602 15.0241 15.6451 15.1816 15.7779 15.3926C15.9133 15.6009 15.981 15.8626 15.981 16.1777V18.1465C15.981 18.2871 15.9927 18.4368 16.0162 18.5957C16.0422 18.7546 16.08 18.8913 16.1294 19.0059V19.0684H15.3755C15.3391 18.985 15.3104 18.8743 15.2896 18.7363C15.2688 18.5957 15.2583 18.4655 15.2583 18.3457ZM15.3833 16.5059L15.3912 17.0137H14.6607C14.455 17.0137 14.2714 17.0306 14.1099 17.0645C13.9485 17.0957 13.813 17.1439 13.7037 17.209C13.5943 17.2741 13.511 17.3561 13.4537 17.4551C13.3964 17.5514 13.3677 17.6647 13.3677 17.7949C13.3677 17.9277 13.3977 18.0488 13.4576 18.1582C13.5175 18.2676 13.6073 18.3548 13.7271 18.4199C13.8495 18.4824 13.9992 18.5137 14.1763 18.5137C14.3977 18.5137 14.593 18.4668 14.7623 18.373C14.9315 18.2793 15.0656 18.1647 15.1646 18.0293C15.2662 17.8939 15.3208 17.7624 15.3287 17.6348L15.6373 17.9824C15.619 18.0918 15.5695 18.2129 15.4888 18.3457C15.4081 18.4785 15.3 18.6061 15.1646 18.7285C15.0318 18.8483 14.8729 18.9486 14.688 19.0293C14.5057 19.1074 14.3 19.1465 14.0708 19.1465C13.7844 19.1465 13.5331 19.0905 13.3169 18.9785C13.1034 18.8665 12.9367 18.7168 12.8169 18.5293C12.6998 18.3392 12.6412 18.127 12.6412 17.8926C12.6412 17.666 12.6854 17.4668 12.774 17.2949C12.8625 17.1204 12.9901 16.9759 13.1568 16.8613C13.3235 16.7441 13.524 16.6556 13.7583 16.5957C13.9927 16.5358 14.2544 16.5059 14.5435 16.5059H15.3833ZM19.5787 17.9473C19.5787 17.8431 19.5552 17.7467 19.5083 17.6582C19.4641 17.5671 19.3716 17.485 19.231 17.4121C19.093 17.3366 18.8846 17.2715 18.606 17.2168C18.3716 17.1673 18.1594 17.1087 17.9693 17.041C17.7818 16.9733 17.6216 16.8913 17.4888 16.7949C17.3586 16.6986 17.2583 16.5853 17.188 16.4551C17.1177 16.3249 17.0826 16.1725 17.0826 15.998C17.0826 15.8314 17.119 15.6738 17.1919 15.5254C17.2675 15.377 17.3729 15.2454 17.5083 15.1309C17.6464 15.0163 17.8117 14.9264 18.0044 14.8613C18.1971 14.7962 18.412 14.7637 18.649 14.7637C18.9875 14.7637 19.2766 14.8236 19.5162 14.9434C19.7557 15.0632 19.9393 15.2233 20.0669 15.4238C20.1945 15.6217 20.2583 15.8418 20.2583 16.084H19.5357C19.5357 15.9668 19.5005 15.8535 19.4302 15.7441C19.3625 15.6322 19.2623 15.5397 19.1294 15.4668C18.9992 15.3939 18.8391 15.3574 18.649 15.3574C18.4485 15.3574 18.2857 15.3887 18.1607 15.4512C18.0383 15.5111 17.9485 15.5879 17.8912 15.6816C17.8365 15.7754 17.8091 15.8743 17.8091 15.9785C17.8091 16.0566 17.8221 16.127 17.8482 16.1895C17.8768 16.2493 17.9263 16.3053 17.9966 16.3574C18.0669 16.4069 18.1659 16.4538 18.2935 16.498C18.4211 16.5423 18.5839 16.5866 18.7818 16.6309C19.1281 16.709 19.4133 16.8027 19.6373 16.9121C19.8612 17.0215 20.0279 17.1556 20.1373 17.3145C20.2466 17.4733 20.3013 17.666 20.3013 17.8926C20.3013 18.0775 20.2623 18.2467 20.1841 18.4004C20.1086 18.554 19.9979 18.6868 19.8521 18.7988C19.7089 18.9082 19.537 18.9941 19.3365 19.0566C19.1386 19.1165 18.9159 19.1465 18.6685 19.1465C18.2961 19.1465 17.981 19.0801 17.7232 18.9473C17.4654 18.8145 17.2701 18.6426 17.1373 18.4316C17.0044 18.2207 16.938 17.998 16.938 17.7637H17.6646C17.675 17.9616 17.7323 18.1191 17.8365 18.2363C17.9406 18.3509 18.0682 18.4329 18.2193 18.4824C18.3703 18.5293 18.5201 18.5527 18.6685 18.5527C18.8664 18.5527 19.0318 18.5267 19.1646 18.4746C19.3 18.4225 19.4029 18.3509 19.4732 18.2598C19.5435 18.1686 19.5787 18.0645 19.5787 17.9473ZM23.0201 14.8418V15.3965H20.7349V14.8418H23.0201ZM21.5083 13.8145H22.231V18.0215C22.231 18.1647 22.2531 18.2728 22.2974 18.3457C22.3417 18.4186 22.399 18.4668 22.4693 18.4902C22.5396 18.5137 22.6151 18.5254 22.6958 18.5254C22.7557 18.5254 22.8182 18.5202 22.8833 18.5098C22.9511 18.4967 23.0018 18.4863 23.0357 18.4785L23.0396 19.0684C22.9823 19.0866 22.9068 19.1035 22.813 19.1191C22.7219 19.1374 22.6112 19.1465 22.481 19.1465C22.3039 19.1465 22.1412 19.1113 21.9927 19.041C21.8443 18.9707 21.7258 18.8535 21.6373 18.6895C21.5513 18.5228 21.5083 18.2988 21.5083 18.0176V13.8145ZM25.3716 16.3535V16.9473H23.4654V16.3535H25.3716ZM26.8013 15.6543V20.6934H26.0748V14.8418H26.7388L26.8013 15.6543ZM29.649 16.9199V17.002C29.649 17.3092 29.6125 17.5944 29.5396 17.8574C29.4667 18.1178 29.3599 18.3444 29.2193 18.5371C29.0813 18.7298 28.9107 18.8796 28.7076 18.9863C28.5044 19.0931 28.2714 19.1465 28.0083 19.1465C27.7401 19.1465 27.5031 19.1022 27.2974 19.0137C27.0917 18.9251 26.9172 18.7962 26.774 18.627C26.6307 18.4577 26.5162 18.2546 26.4302 18.0176C26.3469 17.7806 26.2896 17.5137 26.2583 17.2168V16.7793C26.2896 16.4668 26.3482 16.1868 26.4341 15.9395C26.5201 15.6921 26.6333 15.4811 26.774 15.3066C26.9172 15.1296 27.0904 14.9954 27.2935 14.9043C27.4966 14.8105 27.731 14.7637 27.9966 14.7637C28.2623 14.7637 28.4979 14.8158 28.7037 14.9199C28.9094 15.0215 29.0826 15.1673 29.2232 15.3574C29.3638 15.5475 29.4693 15.7754 29.5396 16.041C29.6125 16.304 29.649 16.597 29.649 16.9199ZM28.9224 17.002V16.9199C28.9224 16.709 28.9003 16.5111 28.856 16.3262C28.8117 16.1387 28.7427 15.9746 28.649 15.834C28.5578 15.6908 28.4406 15.5788 28.2974 15.498C28.1542 15.4147 27.9836 15.373 27.7857 15.373C27.6034 15.373 27.4445 15.4043 27.3091 15.4668C27.1763 15.5293 27.063 15.6139 26.9693 15.7207C26.8755 15.8249 26.7987 15.9447 26.7388 16.0801C26.6815 16.2129 26.6386 16.3509 26.6099 16.4941V17.5059C26.662 17.6882 26.7349 17.86 26.8287 18.0215C26.9224 18.1803 27.0474 18.3092 27.2037 18.4082C27.3599 18.5046 27.5565 18.5527 27.7935 18.5527C27.9888 18.5527 28.1568 18.5124 28.2974 18.4316C28.4406 18.3483 28.5578 18.235 28.649 18.0918C28.7427 17.9486 28.8117 17.7845 28.856 17.5996C28.9003 17.4121 28.9224 17.2129 28.9224 17.002ZM33.063 18.3457V16.1699C33.063 16.0033 33.0292 15.8587 32.9615 15.7363C32.8964 15.6113 32.7974 15.515 32.6646 15.4473C32.5318 15.3796 32.3677 15.3457 32.1724 15.3457C31.9901 15.3457 31.83 15.377 31.6919 15.4395C31.5565 15.502 31.4498 15.584 31.3716 15.6855C31.2961 15.7871 31.2583 15.8965 31.2583 16.0137H30.5357C30.5357 15.8626 30.5748 15.7129 30.6529 15.5645C30.731 15.416 30.843 15.2819 30.9888 15.1621C31.1373 15.0397 31.3143 14.9434 31.5201 14.873C31.7284 14.8001 31.9602 14.7637 32.2154 14.7637C32.5227 14.7637 32.7935 14.8158 33.0279 14.9199C33.2649 15.0241 33.4498 15.1816 33.5826 15.3926C33.718 15.6009 33.7857 15.8626 33.7857 16.1777V18.1465C33.7857 18.2871 33.7974 18.4368 33.8208 18.5957C33.8469 18.7546 33.8846 18.8913 33.9341 19.0059V19.0684H33.1802C33.1438 18.985 33.1151 18.8743 33.0943 18.7363C33.0735 18.5957 33.063 18.4655 33.063 18.3457ZM33.188 16.5059L33.1958 17.0137H32.4654C32.2596 17.0137 32.0761 17.0306 31.9146 17.0645C31.7531 17.0957 31.6177 17.1439 31.5083 17.209C31.399 17.2741 31.3156 17.3561 31.2583 17.4551C31.2011 17.5514 31.1724 17.6647 31.1724 17.7949C31.1724 17.9277 31.2024 18.0488 31.2623 18.1582C31.3221 18.2676 31.412 18.3548 31.5318 18.4199C31.6542 18.4824 31.8039 18.5137 31.981 18.5137C32.2024 18.5137 32.3977 18.4668 32.5669 18.373C32.7362 18.2793 32.8703 18.1647 32.9693 18.0293C33.0708 17.8939 33.1255 17.7624 33.1333 17.6348L33.4419 17.9824C33.4237 18.0918 33.3742 18.2129 33.2935 18.3457C33.2128 18.4785 33.1047 18.6061 32.9693 18.7285C32.8365 18.8483 32.6776 18.9486 32.4927 19.0293C32.3104 19.1074 32.1047 19.1465 31.8755 19.1465C31.5891 19.1465 31.3378 19.0905 31.1216 18.9785C30.9081 18.8665 30.7414 18.7168 30.6216 18.5293C30.5044 18.3392 30.4458 18.127 30.4458 17.8926C30.4458 17.666 30.4901 17.4668 30.5787 17.2949C30.6672 17.1204 30.7948 16.9759 30.9615 16.8613C31.1281 16.7441 31.3287 16.6556 31.563 16.5957C31.7974 16.5358 32.0591 16.5059 32.3482 16.5059H33.188ZM36.6138 18.5527C36.7857 18.5527 36.9445 18.5176 37.0904 18.4473C37.2362 18.377 37.356 18.2806 37.4498 18.1582C37.5435 18.0332 37.5969 17.8913 37.6099 17.7324H38.2974C38.2844 17.9824 38.1998 18.2155 38.0435 18.4316C37.8899 18.6452 37.688 18.8184 37.438 18.9512C37.188 19.0814 36.9133 19.1465 36.6138 19.1465C36.2961 19.1465 36.0188 19.0905 35.7818 18.9785C35.5474 18.8665 35.3521 18.7129 35.1958 18.5176C35.0422 18.3223 34.9263 18.0983 34.8482 17.8457C34.7727 17.5905 34.7349 17.321 34.7349 17.0371V16.873C34.7349 16.5892 34.7727 16.321 34.8482 16.0684C34.9263 15.8132 35.0422 15.5879 35.1958 15.3926C35.3521 15.1973 35.5474 15.0436 35.7818 14.9316C36.0188 14.8197 36.2961 14.7637 36.6138 14.7637C36.9445 14.7637 37.2336 14.8314 37.481 14.9668C37.7284 15.0996 37.9224 15.2819 38.063 15.5137C38.2063 15.7428 38.2844 16.0033 38.2974 16.2949H37.6099C37.5969 16.1204 37.5474 15.9629 37.4615 15.8223C37.3781 15.6816 37.2636 15.5697 37.1177 15.4863C36.9745 15.4004 36.8065 15.3574 36.6138 15.3574C36.3925 15.3574 36.2063 15.4017 36.0552 15.4902C35.9068 15.5762 35.7883 15.6934 35.6998 15.8418C35.6138 15.9876 35.5513 16.1504 35.5123 16.3301C35.4758 16.5072 35.4576 16.6882 35.4576 16.873V17.0371C35.4576 17.222 35.4758 17.4043 35.5123 17.584C35.5487 17.7637 35.6099 17.9264 35.6958 18.0723C35.7844 18.2181 35.9029 18.3353 36.0513 18.4238C36.2024 18.5098 36.3899 18.5527 36.6138 18.5527ZM40.8638 19.1465C40.5695 19.1465 40.3026 19.097 40.063 18.998C39.8261 18.8965 39.6216 18.7546 39.4498 18.5723C39.2805 18.39 39.1503 18.1738 39.0591 17.9238C38.968 17.6738 38.9224 17.4004 38.9224 17.1035V16.9395C38.9224 16.5957 38.9732 16.2897 39.0748 16.0215C39.1763 15.7507 39.3143 15.5215 39.4888 15.334C39.6633 15.1465 39.8612 15.0046 40.0826 14.9082C40.3039 14.8118 40.5331 14.7637 40.7701 14.7637C41.0721 14.7637 41.3326 14.8158 41.5513 14.9199C41.7727 15.0241 41.9537 15.1699 42.0943 15.3574C42.2349 15.5423 42.3391 15.7611 42.4068 16.0137C42.4745 16.2637 42.5083 16.5371 42.5083 16.834V17.1582H39.3521V16.5684H41.7857V16.5137C41.7753 16.3262 41.7362 16.1439 41.6685 15.9668C41.6034 15.7897 41.4992 15.6439 41.356 15.5293C41.2128 15.4147 41.0175 15.3574 40.7701 15.3574C40.606 15.3574 40.455 15.3926 40.3169 15.4629C40.1789 15.5306 40.0604 15.6322 39.9615 15.7676C39.8625 15.903 39.7857 16.0684 39.731 16.2637C39.6763 16.459 39.649 16.6842 39.649 16.9395V17.1035C39.649 17.304 39.6763 17.4928 39.731 17.6699C39.7883 17.8444 39.8703 17.998 39.9771 18.1309C40.0865 18.2637 40.218 18.3678 40.3716 18.4434C40.5279 18.5189 40.705 18.5566 40.9029 18.5566C41.1581 18.5566 41.3742 18.5046 41.5513 18.4004C41.7284 18.2962 41.8833 18.1569 42.0162 17.9824L42.4537 18.3301C42.3625 18.4681 42.2466 18.5996 42.106 18.7246C41.9654 18.8496 41.7922 18.9512 41.5865 19.0293C41.3833 19.1074 41.1425 19.1465 40.8638 19.1465ZM46.0162 18.248V13.0684H46.7427V19.0684H46.0787L46.0162 18.248ZM43.1724 17.002V16.9199C43.1724 16.597 43.2115 16.304 43.2896 16.041C43.3703 15.7754 43.4836 15.5475 43.6294 15.3574C43.7779 15.1673 43.9537 15.0215 44.1568 14.9199C44.3625 14.8158 44.5917 14.7637 44.8443 14.7637C45.1099 14.7637 45.3417 14.8105 45.5396 14.9043C45.7401 14.9954 45.9094 15.1296 46.0474 15.3066C46.188 15.4811 46.2987 15.6921 46.3794 15.9395C46.4602 16.1868 46.5162 16.4668 46.5474 16.7793V17.1387C46.5188 17.4486 46.4628 17.7272 46.3794 17.9746C46.2987 18.222 46.188 18.4329 46.0474 18.6074C45.9094 18.7819 45.7401 18.916 45.5396 19.0098C45.3391 19.1009 45.1047 19.1465 44.8365 19.1465C44.5891 19.1465 44.3625 19.0931 44.1568 18.9863C43.9537 18.8796 43.7779 18.7298 43.6294 18.5371C43.4836 18.3444 43.3703 18.1178 43.2896 17.8574C43.2115 17.5944 43.1724 17.3092 43.1724 17.002ZM43.899 16.9199V17.002C43.899 17.2129 43.9198 17.4108 43.9615 17.5957C44.0057 17.7806 44.0735 17.9434 44.1646 18.084C44.2557 18.2246 44.3716 18.3353 44.5123 18.416C44.6529 18.4941 44.8208 18.5332 45.0162 18.5332C45.2557 18.5332 45.4524 18.4824 45.606 18.3809C45.7623 18.2793 45.8873 18.1452 45.981 17.9785C46.0748 17.8118 46.1477 17.6309 46.1998 17.4355V16.4941C46.1685 16.3509 46.1229 16.2129 46.063 16.0801C46.0057 15.9447 45.9302 15.8249 45.8365 15.7207C45.7453 15.6139 45.632 15.5293 45.4966 15.4668C45.3638 15.4043 45.2063 15.373 45.024 15.373C44.8261 15.373 44.6555 15.4147 44.5123 15.498C44.3716 15.5788 44.2557 15.6908 44.1646 15.834C44.0735 15.9746 44.0057 16.1387 43.9615 16.3262C43.9198 16.5111 43.899 16.709 43.899 16.9199ZM50.6373 13.0684V19.0684H49.9107V13.0684H50.6373ZM51.606 17.002V16.9121C51.606 16.6074 51.6503 16.3249 51.7388 16.0645C51.8274 15.8014 51.955 15.5736 52.1216 15.3809C52.2883 15.1855 52.4901 15.0345 52.7271 14.9277C52.9641 14.8184 53.2297 14.7637 53.524 14.7637C53.8208 14.7637 54.0878 14.8184 54.3248 14.9277C54.5643 15.0345 54.7675 15.1855 54.9341 15.3809C55.1034 15.5736 55.2323 15.8014 55.3208 16.0645C55.4094 16.3249 55.4537 16.6074 55.4537 16.9121V17.002C55.4537 17.3066 55.4094 17.5892 55.3208 17.8496C55.2323 18.11 55.1034 18.3379 54.9341 18.5332C54.7675 18.7259 54.5656 18.877 54.3287 18.9863C54.0943 19.0931 53.8287 19.1465 53.5318 19.1465C53.2349 19.1465 52.968 19.0931 52.731 18.9863C52.494 18.877 52.2909 18.7259 52.1216 18.5332C51.955 18.3379 51.8274 18.11 51.7388 17.8496C51.6503 17.5892 51.606 17.3066 51.606 17.002ZM52.3287 16.9121V17.002C52.3287 17.2129 52.3534 17.4121 52.4029 17.5996C52.4524 17.7845 52.5266 17.9486 52.6255 18.0918C52.7271 18.235 52.8534 18.3483 53.0044 18.4316C53.1555 18.5124 53.3313 18.5527 53.5318 18.5527C53.7297 18.5527 53.9029 18.5124 54.0513 18.4316C54.2024 18.3483 54.3274 18.235 54.4263 18.0918C54.5253 17.9486 54.5995 17.7845 54.649 17.5996C54.7011 17.4121 54.7271 17.2129 54.7271 17.002V16.9121C54.7271 16.7038 54.7011 16.5072 54.649 16.3223C54.5995 16.1348 54.524 15.9694 54.4224 15.8262C54.3235 15.6803 54.1985 15.5658 54.0474 15.4824C53.899 15.3991 53.7245 15.3574 53.524 15.3574C53.3261 15.3574 53.1516 15.3991 53.0005 15.4824C52.8521 15.5658 52.7271 15.6803 52.6255 15.8262C52.5266 15.9694 52.4524 16.1348 52.4029 16.3223C52.3534 16.5072 52.3287 16.7038 52.3287 16.9121ZM56.1685 17.002V16.9121C56.1685 16.6074 56.2128 16.3249 56.3013 16.0645C56.3899 15.8014 56.5175 15.5736 56.6841 15.3809C56.8508 15.1855 57.0526 15.0345 57.2896 14.9277C57.5266 14.8184 57.7922 14.7637 58.0865 14.7637C58.3833 14.7637 58.6503 14.8184 58.8873 14.9277C59.1268 15.0345 59.33 15.1855 59.4966 15.3809C59.6659 15.5736 59.7948 15.8014 59.8833 16.0645C59.9719 16.3249 60.0162 16.6074 60.0162 16.9121V17.002C60.0162 17.3066 59.9719 17.5892 59.8833 17.8496C59.7948 18.11 59.6659 18.3379 59.4966 18.5332C59.33 18.7259 59.1281 18.877 58.8912 18.9863C58.6568 19.0931 58.3912 19.1465 58.0943 19.1465C57.7974 19.1465 57.5305 19.0931 57.2935 18.9863C57.0565 18.877 56.8534 18.7259 56.6841 18.5332C56.5175 18.3379 56.3899 18.11 56.3013 17.8496C56.2128 17.5892 56.1685 17.3066 56.1685 17.002ZM56.8912 16.9121V17.002C56.8912 17.2129 56.9159 17.4121 56.9654 17.5996C57.0149 17.7845 57.0891 17.9486 57.188 18.0918C57.2896 18.235 57.4159 18.3483 57.5669 18.4316C57.718 18.5124 57.8938 18.5527 58.0943 18.5527C58.2922 18.5527 58.4654 18.5124 58.6138 18.4316C58.7649 18.3483 58.8899 18.235 58.9888 18.0918C59.0878 17.9486 59.162 17.7845 59.2115 17.5996C59.2636 17.4121 59.2896 17.2129 59.2896 17.002V16.9121C59.2896 16.7038 59.2636 16.5072 59.2115 16.3223C59.162 16.1348 59.0865 15.9694 58.9849 15.8262C58.886 15.6803 58.761 15.5658 58.6099 15.4824C58.4615 15.3991 58.287 15.3574 58.0865 15.3574C57.8886 15.3574 57.7141 15.3991 57.563 15.4824C57.4146 15.5658 57.2896 15.6803 57.188 15.8262C57.0891 15.9694 57.0149 16.1348 56.9654 16.3223C56.9159 16.5072 56.8912 16.7038 56.8912 16.9121ZM61.649 13.0684V19.0684H60.9224V13.0684H61.649ZM64.231 14.8418L62.3873 16.8145L61.356 17.8848L61.2974 17.1152L62.0357 16.2324L63.3482 14.8418H64.231ZM63.5708 19.0684L62.063 17.0527L62.438 16.4082L64.4224 19.0684H63.5708ZM68.731 14.8418V15.3965H66.4458V14.8418H68.731ZM67.2193 13.8145H67.9419V18.0215C67.9419 18.1647 67.9641 18.2728 68.0083 18.3457C68.0526 18.4186 68.1099 18.4668 68.1802 18.4902C68.2505 18.5137 68.3261 18.5254 68.4068 18.5254C68.4667 18.5254 68.5292 18.5202 68.5943 18.5098C68.662 18.4967 68.7128 18.4863 68.7466 18.4785L68.7505 19.0684C68.6932 19.0866 68.6177 19.1035 68.524 19.1191C68.4328 19.1374 68.3221 19.1465 68.1919 19.1465C68.0149 19.1465 67.8521 19.1113 67.7037 19.041C67.5552 18.9707 67.4367 18.8535 67.3482 18.6895C67.2623 18.5228 67.2193 18.2988 67.2193 18.0176V13.8145ZM70.3013 13.0684V19.0684H69.5787V13.0684H70.3013ZM70.1294 16.7949L69.8287 16.7832C69.8313 16.4941 69.8742 16.2272 69.9576 15.9824C70.0409 15.735 70.1581 15.5202 70.3091 15.3379C70.4602 15.1556 70.6399 15.015 70.8482 14.916C71.0591 14.8145 71.2922 14.7637 71.5474 14.7637C71.7557 14.7637 71.9432 14.7923 72.1099 14.8496C72.2766 14.9043 72.4185 14.9928 72.5357 15.1152C72.6555 15.2376 72.7466 15.3965 72.8091 15.5918C72.8716 15.7845 72.9029 16.0202 72.9029 16.2988V19.0684H72.1763V16.291C72.1763 16.0697 72.1438 15.8926 72.0787 15.7598C72.0136 15.6243 71.9185 15.5267 71.7935 15.4668C71.6685 15.4043 71.5149 15.373 71.3326 15.373C71.1529 15.373 70.9888 15.4108 70.8404 15.4863C70.6945 15.5618 70.5682 15.666 70.4615 15.7988C70.3573 15.9316 70.2753 16.084 70.2154 16.2559C70.1581 16.4251 70.1294 16.6048 70.1294 16.7949ZM74.7076 15.5059V19.0684H73.9849V14.8418H74.688L74.7076 15.5059ZM76.0279 14.8184L76.024 15.4902C75.9641 15.4772 75.9068 15.4694 75.8521 15.4668C75.8 15.4616 75.7401 15.459 75.6724 15.459C75.5057 15.459 75.3586 15.485 75.231 15.5371C75.1034 15.5892 74.9953 15.6621 74.9068 15.7559C74.8182 15.8496 74.7479 15.9616 74.6958 16.0918C74.6464 16.2194 74.6138 16.36 74.5982 16.5137L74.3951 16.6309C74.3951 16.3757 74.4198 16.1361 74.4693 15.9121C74.5214 15.6882 74.6008 15.4902 74.7076 15.3184C74.8143 15.1439 74.9498 15.0085 75.1138 14.9121C75.2805 14.8132 75.4784 14.7637 75.7076 14.7637C75.7596 14.7637 75.8195 14.7702 75.8873 14.7832C75.955 14.7936 76.0018 14.8053 76.0279 14.8184ZM76.4263 17.002V16.9121C76.4263 16.6074 76.4706 16.3249 76.5591 16.0645C76.6477 15.8014 76.7753 15.5736 76.9419 15.3809C77.1086 15.1855 77.3104 15.0345 77.5474 14.9277C77.7844 14.8184 78.05 14.7637 78.3443 14.7637C78.6412 14.7637 78.9081 14.8184 79.1451 14.9277C79.3846 15.0345 79.5878 15.1855 79.7544 15.3809C79.9237 15.5736 80.0526 15.8014 80.1412 16.0645C80.2297 16.3249 80.274 16.6074 80.274 16.9121V17.002C80.274 17.3066 80.2297 17.5892 80.1412 17.8496C80.0526 18.11 79.9237 18.3379 79.7544 18.5332C79.5878 18.7259 79.386 18.877 79.149 18.9863C78.9146 19.0931 78.649 19.1465 78.3521 19.1465C78.0552 19.1465 77.7883 19.0931 77.5513 18.9863C77.3143 18.877 77.1112 18.7259 76.9419 18.5332C76.7753 18.3379 76.6477 18.11 76.5591 17.8496C76.4706 17.5892 76.4263 17.3066 76.4263 17.002ZM77.149 16.9121V17.002C77.149 17.2129 77.1737 17.4121 77.2232 17.5996C77.2727 17.7845 77.3469 17.9486 77.4458 18.0918C77.5474 18.235 77.6737 18.3483 77.8248 18.4316C77.9758 18.5124 78.1516 18.5527 78.3521 18.5527C78.55 18.5527 78.7232 18.5124 78.8716 18.4316C79.0227 18.3483 79.1477 18.235 79.2466 18.0918C79.3456 17.9486 79.4198 17.7845 79.4693 17.5996C79.5214 17.4121 79.5474 17.2129 79.5474 17.002V16.9121C79.5474 16.7038 79.5214 16.5072 79.4693 16.3223C79.4198 16.1348 79.3443 15.9694 79.2427 15.8262C79.1438 15.6803 79.0188 15.5658 78.8677 15.4824C78.7193 15.3991 78.5448 15.3574 78.3443 15.3574C78.1464 15.3574 77.9719 15.3991 77.8208 15.4824C77.6724 15.5658 77.5474 15.6803 77.4458 15.8262C77.3469 15.9694 77.2727 16.1348 77.2232 16.3223C77.1737 16.5072 77.149 16.7038 77.149 16.9121ZM83.7662 18.0918V14.8418H84.4927V19.0684H83.8013L83.7662 18.0918ZM83.9029 17.2012L84.2037 17.1934C84.2037 17.4746 84.1737 17.735 84.1138 17.9746C84.0565 18.2116 83.9628 18.4173 83.8326 18.5918C83.7024 18.7663 83.5318 18.903 83.3208 19.002C83.1099 19.0983 82.8534 19.1465 82.5513 19.1465C82.3456 19.1465 82.1568 19.1165 81.9849 19.0566C81.8156 18.9967 81.6698 18.9043 81.5474 18.7793C81.425 18.6543 81.33 18.4915 81.2623 18.291C81.1971 18.0905 81.1646 17.8496 81.1646 17.5684V14.8418H81.8873V17.5762C81.8873 17.7663 81.9081 17.9238 81.9498 18.0488C81.994 18.1712 82.0526 18.2689 82.1255 18.3418C82.2011 18.4121 82.2844 18.4616 82.3755 18.4902C82.4693 18.5189 82.5656 18.5332 82.6646 18.5332C82.9719 18.5332 83.2154 18.4746 83.3951 18.3574C83.5748 18.2376 83.7037 18.0775 83.7818 17.877C83.8625 17.6738 83.9029 17.4486 83.9029 17.2012ZM88.3326 14.8418H88.9888V18.9785C88.9888 19.3509 88.9133 19.6686 88.7623 19.9316C88.6112 20.1947 88.4003 20.3939 88.1294 20.5293C87.8612 20.6673 87.5513 20.7363 87.1998 20.7363C87.0539 20.7363 86.882 20.7129 86.6841 20.666C86.4888 20.6217 86.2961 20.5449 86.106 20.4355C85.9185 20.3288 85.761 20.1842 85.6333 20.002L86.0123 19.5723C86.1893 19.7858 86.3742 19.9342 86.5669 20.0176C86.7623 20.1009 86.955 20.1426 87.1451 20.1426C87.3742 20.1426 87.5721 20.0996 87.7388 20.0137C87.9055 19.9277 88.0344 19.8001 88.1255 19.6309C88.2193 19.4642 88.2662 19.2585 88.2662 19.0137V15.7715L88.3326 14.8418ZM85.4224 17.002V16.9199C85.4224 16.597 85.4602 16.304 85.5357 16.041C85.6138 15.7754 85.7245 15.5475 85.8677 15.3574C86.0136 15.1673 86.1893 15.0215 86.3951 14.9199C86.6008 14.8158 86.8326 14.7637 87.0904 14.7637C87.356 14.7637 87.5878 14.8105 87.7857 14.9043C87.9862 14.9954 88.1555 15.1296 88.2935 15.3066C88.4341 15.4811 88.5448 15.6921 88.6255 15.9395C88.7063 16.1868 88.7623 16.4668 88.7935 16.7793V17.1387C88.7649 17.4486 88.7089 17.7272 88.6255 17.9746C88.5448 18.222 88.4341 18.4329 88.2935 18.6074C88.1555 18.7819 87.9862 18.916 87.7857 19.0098C87.5852 19.1009 87.3508 19.1465 87.0826 19.1465C86.83 19.1465 86.6008 19.0931 86.3951 18.9863C86.1919 18.8796 86.0175 18.7298 85.8716 18.5371C85.7258 18.3444 85.6138 18.1178 85.5357 17.8574C85.4602 17.5944 85.4224 17.3092 85.4224 17.002ZM86.1451 16.9199V17.002C86.1451 17.2129 86.1659 17.4108 86.2076 17.5957C86.2518 17.7806 86.3182 17.9434 86.4068 18.084C86.4979 18.2246 86.6138 18.3353 86.7544 18.416C86.8951 18.4941 87.063 18.5332 87.2583 18.5332C87.4979 18.5332 87.6958 18.4824 87.8521 18.3809C88.0083 18.2793 88.132 18.1452 88.2232 17.9785C88.3169 17.8118 88.3899 17.6309 88.4419 17.4355V16.4941C88.4133 16.3509 88.369 16.2129 88.3091 16.0801C88.2518 15.9447 88.1763 15.8249 88.0826 15.7207C87.9914 15.6139 87.8781 15.5293 87.7427 15.4668C87.6073 15.4043 87.4485 15.373 87.2662 15.373C87.0682 15.373 86.8977 15.4147 86.7544 15.498C86.6138 15.5788 86.4979 15.6908 86.4068 15.834C86.3182 15.9746 86.2518 16.1387 86.2076 16.3262C86.1659 16.5111 86.1451 16.709 86.1451 16.9199ZM90.8091 13.0684V19.0684H90.0865V13.0684H90.8091ZM90.6373 16.7949L90.3365 16.7832C90.3391 16.4941 90.382 16.2272 90.4654 15.9824C90.5487 15.735 90.6659 15.5202 90.8169 15.3379C90.968 15.1556 91.1477 15.015 91.356 14.916C91.5669 14.8145 91.8 14.7637 92.0552 14.7637C92.2636 14.7637 92.4511 14.7923 92.6177 14.8496C92.7844 14.9043 92.9263 14.9928 93.0435 15.1152C93.1633 15.2376 93.2544 15.3965 93.3169 15.5918C93.3794 15.7845 93.4107 16.0202 93.4107 16.2988V19.0684H92.6841V16.291C92.6841 16.0697 92.6516 15.8926 92.5865 15.7598C92.5214 15.6243 92.4263 15.5267 92.3013 15.4668C92.1763 15.4043 92.0227 15.373 91.8404 15.373C91.6607 15.373 91.4966 15.4108 91.3482 15.4863C91.2024 15.5618 91.0761 15.666 90.9693 15.7988C90.8651 15.9316 90.7831 16.084 90.7232 16.2559C90.6659 16.4251 90.6373 16.6048 90.6373 16.7949ZM18.0904 26.8418V27.3965H15.8052V26.8418H18.0904ZM16.5787 25.8145H17.3013V30.0215C17.3013 30.1647 17.3235 30.2728 17.3677 30.3457C17.412 30.4186 17.4693 30.4668 17.5396 30.4902C17.6099 30.5137 17.6854 30.5254 17.7662 30.5254C17.8261 30.5254 17.8886 30.5202 17.9537 30.5098C18.0214 30.4967 18.0721 30.4863 18.106 30.4785L18.1099 31.0684C18.0526 31.0866 17.9771 31.1035 17.8833 31.1191C17.7922 31.1374 17.6815 31.1465 17.5513 31.1465C17.3742 31.1465 17.2115 31.1113 17.063 31.041C16.9146 30.9707 16.7961 30.8535 16.7076 30.6895C16.6216 30.5228 16.5787 30.2988 16.5787 30.0176V25.8145ZM18.6685 29.002V28.9121C18.6685 28.6074 18.7128 28.3249 18.8013 28.0645C18.8899 27.8014 19.0175 27.5736 19.1841 27.3809C19.3508 27.1855 19.5526 27.0345 19.7896 26.9277C20.0266 26.8184 20.2922 26.7637 20.5865 26.7637C20.8833 26.7637 21.1503 26.8184 21.3873 26.9277C21.6268 27.0345 21.83 27.1855 21.9966 27.3809C22.1659 27.5736 22.2948 27.8014 22.3833 28.0645C22.4719 28.3249 22.5162 28.6074 22.5162 28.9121V29.002C22.5162 29.3066 22.4719 29.5892 22.3833 29.8496C22.2948 30.11 22.1659 30.3379 21.9966 30.5332C21.83 30.7259 21.6281 30.877 21.3912 30.9863C21.1568 31.0931 20.8912 31.1465 20.5943 31.1465C20.2974 31.1465 20.0305 31.0931 19.7935 30.9863C19.5565 30.877 19.3534 30.7259 19.1841 30.5332C19.0175 30.3379 18.8899 30.11 18.8013 29.8496C18.7128 29.5892 18.6685 29.3066 18.6685 29.002ZM19.3912 28.9121V29.002C19.3912 29.2129 19.4159 29.4121 19.4654 29.5996C19.5149 29.7845 19.5891 29.9486 19.688 30.0918C19.7896 30.235 19.9159 30.3483 20.0669 30.4316C20.218 30.5124 20.3938 30.5527 20.5943 30.5527C20.7922 30.5527 20.9654 30.5124 21.1138 30.4316C21.2649 30.3483 21.3899 30.235 21.4888 30.0918C21.5878 29.9486 21.662 29.7845 21.7115 29.5996C21.7636 29.4121 21.7896 29.2129 21.7896 29.002V28.9121C21.7896 28.7038 21.7636 28.5072 21.7115 28.3223C21.662 28.1348 21.5865 27.9694 21.4849 27.8262C21.386 27.6803 21.261 27.5658 21.1099 27.4824C20.9615 27.3991 20.787 27.3574 20.5865 27.3574C20.3886 27.3574 20.2141 27.3991 20.063 27.4824C19.9146 27.5658 19.7896 27.6803 19.688 27.8262C19.5891 27.9694 19.5149 28.1348 19.4654 28.3223C19.4159 28.5072 19.3912 28.7038 19.3912 28.9121ZM26.4849 31.0684H25.7623V26.3965C25.7623 26.0918 25.8169 25.8353 25.9263 25.627C26.0383 25.416 26.1985 25.2572 26.4068 25.1504C26.6151 25.041 26.8625 24.9863 27.149 24.9863C27.2323 24.9863 27.3156 24.9915 27.399 25.002C27.4849 25.0124 27.5682 25.028 27.649 25.0488L27.6099 25.6387C27.5552 25.6257 27.4927 25.6165 27.4224 25.6113C27.3547 25.6061 27.287 25.6035 27.2193 25.6035C27.0656 25.6035 26.9328 25.6348 26.8208 25.6973C26.7115 25.7572 26.6281 25.8457 26.5708 25.9629C26.5136 26.0801 26.4849 26.2246 26.4849 26.3965V31.0684ZM27.3833 26.8418V27.3965H25.0943V26.8418H27.3833ZM30.774 30.0918V26.8418H31.5005V31.0684H30.8091L30.774 30.0918ZM30.9107 29.2012L31.2115 29.1934C31.2115 29.4746 31.1815 29.735 31.1216 29.9746C31.0643 30.2116 30.9706 30.4173 30.8404 30.5918C30.7102 30.7663 30.5396 30.903 30.3287 31.002C30.1177 31.0983 29.8612 31.1465 29.5591 31.1465C29.3534 31.1465 29.1646 31.1165 28.9927 31.0566C28.8235 30.9967 28.6776 30.9043 28.5552 30.7793C28.4328 30.6543 28.3378 30.4915 28.2701 30.291C28.205 30.0905 28.1724 29.8496 28.1724 29.5684V26.8418H28.8951V29.5762C28.8951 29.7663 28.9159 29.9238 28.9576 30.0488C29.0018 30.1712 29.0604 30.2689 29.1333 30.3418C29.2089 30.4121 29.2922 30.4616 29.3833 30.4902C29.4771 30.5189 29.5735 30.5332 29.6724 30.5332C29.9797 30.5332 30.2232 30.4746 30.4029 30.3574C30.5826 30.2376 30.7115 30.0775 30.7896 29.877C30.8703 29.6738 30.9107 29.4486 30.9107 29.2012ZM34.356 31.1465C34.0617 31.1465 33.7948 31.097 33.5552 30.998C33.3182 30.8965 33.1138 30.7546 32.9419 30.5723C32.7727 30.39 32.6425 30.1738 32.5513 29.9238C32.4602 29.6738 32.4146 29.4004 32.4146 29.1035V28.9395C32.4146 28.5957 32.4654 28.2897 32.5669 28.0215C32.6685 27.7507 32.8065 27.5215 32.981 27.334C33.1555 27.1465 33.3534 27.0046 33.5748 26.9082C33.7961 26.8118 34.0253 26.7637 34.2623 26.7637C34.5643 26.7637 34.8248 26.8158 35.0435 26.9199C35.2649 27.0241 35.4458 27.1699 35.5865 27.3574C35.7271 27.5423 35.8313 27.7611 35.899 28.0137C35.9667 28.2637 36.0005 28.5371 36.0005 28.834V29.1582H32.8443V28.5684H35.2779V28.5137C35.2675 28.3262 35.2284 28.1439 35.1607 27.9668C35.0956 27.7897 34.9914 27.6439 34.8482 27.5293C34.705 27.4147 34.5096 27.3574 34.2623 27.3574C34.0982 27.3574 33.9471 27.3926 33.8091 27.4629C33.6711 27.5306 33.5526 27.6322 33.4537 27.7676C33.3547 27.903 33.2779 28.0684 33.2232 28.2637C33.1685 28.459 33.1412 28.6842 33.1412 28.9395V29.1035C33.1412 29.304 33.1685 29.4928 33.2232 29.6699C33.2805 29.8444 33.3625 29.998 33.4693 30.1309C33.5787 30.2637 33.7102 30.3678 33.8638 30.4434C34.0201 30.5189 34.1971 30.5566 34.3951 30.5566C34.6503 30.5566 34.8664 30.5046 35.0435 30.4004C35.2206 30.2962 35.3755 30.1569 35.5083 29.9824L35.9458 30.3301C35.8547 30.4681 35.7388 30.5996 35.5982 30.7246C35.4576 30.8496 35.2844 30.9512 35.0787 31.0293C34.8755 31.1074 34.6346 31.1465 34.356 31.1465ZM37.6294 25.0684V31.0684H36.9029V25.0684H37.6294ZM40.5826 29.002V28.9121C40.5826 28.6074 40.6268 28.3249 40.7154 28.0645C40.8039 27.8014 40.9315 27.5736 41.0982 27.3809C41.2649 27.1855 41.4667 27.0345 41.7037 26.9277C41.9406 26.8184 42.2063 26.7637 42.5005 26.7637C42.7974 26.7637 43.0643 26.8184 43.3013 26.9277C43.5409 27.0345 43.744 27.1855 43.9107 27.3809C44.08 27.5736 44.2089 27.8014 44.2974 28.0645C44.386 28.3249 44.4302 28.6074 44.4302 28.9121V29.002C44.4302 29.3066 44.386 29.5892 44.2974 29.8496C44.2089 30.11 44.08 30.3379 43.9107 30.5332C43.744 30.7259 43.5422 30.877 43.3052 30.9863C43.0708 31.0931 42.8052 31.1465 42.5083 31.1465C42.2115 31.1465 41.9445 31.0931 41.7076 30.9863C41.4706 30.877 41.2675 30.7259 41.0982 30.5332C40.9315 30.3379 40.8039 30.11 40.7154 29.8496C40.6268 29.5892 40.5826 29.3066 40.5826 29.002ZM41.3052 28.9121V29.002C41.3052 29.2129 41.33 29.4121 41.3794 29.5996C41.4289 29.7845 41.5031 29.9486 41.6021 30.0918C41.7037 30.235 41.83 30.3483 41.981 30.4316C42.132 30.5124 42.3078 30.5527 42.5083 30.5527C42.7063 30.5527 42.8794 30.5124 43.0279 30.4316C43.1789 30.3483 43.3039 30.235 43.4029 30.0918C43.5018 29.9486 43.5761 29.7845 43.6255 29.5996C43.6776 29.4121 43.7037 29.2129 43.7037 29.002V28.9121C43.7037 28.7038 43.6776 28.5072 43.6255 28.3223C43.5761 28.1348 43.5005 27.9694 43.399 27.8262C43.3 27.6803 43.175 27.5658 43.024 27.4824C42.8755 27.3991 42.7011 27.3574 42.5005 27.3574C42.3026 27.3574 42.1281 27.3991 41.9771 27.4824C41.8287 27.5658 41.7037 27.6803 41.6021 27.8262C41.5031 27.9694 41.4289 28.1348 41.3794 28.3223C41.33 28.5072 41.3052 28.7038 41.3052 28.9121ZM47.9224 30.0918V26.8418H48.649V31.0684H47.9576L47.9224 30.0918ZM48.0591 29.2012L48.3599 29.1934C48.3599 29.4746 48.33 29.735 48.2701 29.9746C48.2128 30.2116 48.119 30.4173 47.9888 30.5918C47.8586 30.7663 47.688 30.903 47.4771 31.002C47.2662 31.0983 47.0096 31.1465 46.7076 31.1465C46.5018 31.1465 46.313 31.1165 46.1412 31.0566C45.9719 30.9967 45.8261 30.9043 45.7037 30.7793C45.5813 30.6543 45.4862 30.4915 45.4185 30.291C45.3534 30.0905 45.3208 29.8496 45.3208 29.5684V26.8418H46.0435V29.5762C46.0435 29.7663 46.0643 29.9238 46.106 30.0488C46.1503 30.1712 46.2089 30.2689 46.2818 30.3418C46.3573 30.4121 46.4406 30.4616 46.5318 30.4902C46.6255 30.5189 46.7219 30.5332 46.8208 30.5332C47.1281 30.5332 47.3716 30.4746 47.5513 30.3574C47.731 30.2376 47.8599 30.0775 47.938 29.877C48.0188 29.6738 48.0591 29.4486 48.0591 29.2012ZM50.4732 27.5059V31.0684H49.7505V26.8418H50.4537L50.4732 27.5059ZM51.7935 26.8184L51.7896 27.4902C51.7297 27.4772 51.6724 27.4694 51.6177 27.4668C51.5656 27.4616 51.5057 27.459 51.438 27.459C51.2714 27.459 51.1242 27.485 50.9966 27.5371C50.869 27.5892 50.761 27.6621 50.6724 27.7559C50.5839 27.8496 50.5136 27.9616 50.4615 28.0918C50.412 28.2194 50.3794 28.36 50.3638 28.5137L50.1607 28.6309C50.1607 28.3757 50.1854 28.1361 50.2349 27.9121C50.287 27.6882 50.3664 27.4902 50.4732 27.3184C50.58 27.1439 50.7154 27.0085 50.8794 26.9121C51.0461 26.8132 51.244 26.7637 51.4732 26.7637C51.5253 26.7637 51.5852 26.7702 51.6529 26.7832C51.7206 26.7936 51.7675 26.8053 51.7935 26.8184ZM56.1373 30.5527C56.3091 30.5527 56.468 30.5176 56.6138 30.4473C56.7596 30.377 56.8794 30.2806 56.9732 30.1582C57.0669 30.0332 57.1203 29.8913 57.1333 29.7324H57.8208C57.8078 29.9824 57.7232 30.2155 57.5669 30.4316C57.4133 30.6452 57.2115 30.8184 56.9615 30.9512C56.7115 31.0814 56.4367 31.1465 56.1373 31.1465C55.8195 31.1465 55.5422 31.0905 55.3052 30.9785C55.0708 30.8665 54.8755 30.7129 54.7193 30.5176C54.5656 30.3223 54.4498 30.0983 54.3716 29.8457C54.2961 29.5905 54.2583 29.321 54.2583 29.0371V28.873C54.2583 28.5892 54.2961 28.321 54.3716 28.0684C54.4498 27.8132 54.5656 27.5879 54.7193 27.3926C54.8755 27.1973 55.0708 27.0436 55.3052 26.9316C55.5422 26.8197 55.8195 26.7637 56.1373 26.7637C56.468 26.7637 56.757 26.8314 57.0044 26.9668C57.2518 27.0996 57.4458 27.2819 57.5865 27.5137C57.7297 27.7428 57.8078 28.0033 57.8208 28.2949H57.1333C57.1203 28.1204 57.0708 27.9629 56.9849 27.8223C56.9016 27.6816 56.787 27.5697 56.6412 27.4863C56.4979 27.4004 56.33 27.3574 56.1373 27.3574C55.9159 27.3574 55.7297 27.4017 55.5787 27.4902C55.4302 27.5762 55.3117 27.6934 55.2232 27.8418C55.1373 27.9876 55.0748 28.1504 55.0357 28.3301C54.9992 28.5072 54.981 28.6882 54.981 28.873V29.0371C54.981 29.222 54.9992 29.4043 55.0357 29.584C55.0721 29.7637 55.1333 29.9264 55.2193 30.0723C55.3078 30.2181 55.4263 30.3353 55.5748 30.4238C55.7258 30.5098 55.9133 30.5527 56.1373 30.5527ZM59.356 27.5059V31.0684H58.6333V26.8418H59.3365L59.356 27.5059ZM60.6763 26.8184L60.6724 27.4902C60.6125 27.4772 60.5552 27.4694 60.5005 27.4668C60.4485 27.4616 60.3886 27.459 60.3208 27.459C60.1542 27.459 60.007 27.485 59.8794 27.5371C59.7518 27.5892 59.6438 27.6621 59.5552 27.7559C59.4667 27.8496 59.3964 27.9616 59.3443 28.0918C59.2948 28.2194 59.2623 28.36 59.2466 28.5137L59.0435 28.6309C59.0435 28.3757 59.0682 28.1361 59.1177 27.9121C59.1698 27.6882 59.2492 27.4902 59.356 27.3184C59.4628 27.1439 59.5982 27.0085 59.7623 26.9121C59.9289 26.8132 60.1268 26.7637 60.356 26.7637C60.4081 26.7637 60.468 26.7702 60.5357 26.7832C60.6034 26.7936 60.6503 26.8053 60.6763 26.8184ZM63.0201 31.1465C62.7258 31.1465 62.4589 31.097 62.2193 30.998C61.9823 30.8965 61.7779 30.7546 61.606 30.5723C61.4367 30.39 61.3065 30.1738 61.2154 29.9238C61.1242 29.6738 61.0787 29.4004 61.0787 29.1035V28.9395C61.0787 28.5957 61.1294 28.2897 61.231 28.0215C61.3326 27.7507 61.4706 27.5215 61.6451 27.334C61.8195 27.1465 62.0175 27.0046 62.2388 26.9082C62.4602 26.8118 62.6893 26.7637 62.9263 26.7637C63.2284 26.7637 63.4888 26.8158 63.7076 26.9199C63.9289 27.0241 64.1099 27.1699 64.2505 27.3574C64.3912 27.5423 64.4953 27.7611 64.563 28.0137C64.6307 28.2637 64.6646 28.5371 64.6646 28.834V29.1582H61.5083V28.5684H63.9419V28.5137C63.9315 28.3262 63.8925 28.1439 63.8248 27.9668C63.7596 27.7897 63.6555 27.6439 63.5123 27.5293C63.369 27.4147 63.1737 27.3574 62.9263 27.3574C62.7623 27.3574 62.6112 27.3926 62.4732 27.4629C62.3352 27.5306 62.2167 27.6322 62.1177 27.7676C62.0188 27.903 61.9419 28.0684 61.8873 28.2637C61.8326 28.459 61.8052 28.6842 61.8052 28.9395V29.1035C61.8052 29.304 61.8326 29.4928 61.8873 29.6699C61.9445 29.8444 62.0266 29.998 62.1333 30.1309C62.2427 30.2637 62.3742 30.3678 62.5279 30.4434C62.6841 30.5189 62.8612 30.5566 63.0591 30.5566C63.3143 30.5566 63.5305 30.5046 63.7076 30.4004C63.8846 30.2962 64.0396 30.1569 64.1724 29.9824L64.6099 30.3301C64.5188 30.4681 64.4029 30.5996 64.2623 30.7246C64.1216 30.8496 63.9485 30.9512 63.7427 31.0293C63.5396 31.1074 63.2987 31.1465 63.0201 31.1465ZM68.0005 30.3457V28.1699C68.0005 28.0033 67.9667 27.8587 67.899 27.7363C67.8339 27.6113 67.7349 27.515 67.6021 27.4473C67.4693 27.3796 67.3052 27.3457 67.1099 27.3457C66.9276 27.3457 66.7675 27.377 66.6294 27.4395C66.494 27.502 66.3873 27.584 66.3091 27.6855C66.2336 27.7871 66.1958 27.8965 66.1958 28.0137H65.4732C65.4732 27.8626 65.5123 27.7129 65.5904 27.5645C65.6685 27.416 65.7805 27.2819 65.9263 27.1621C66.0748 27.0397 66.2518 26.9434 66.4576 26.873C66.6659 26.8001 66.8977 26.7637 67.1529 26.7637C67.4602 26.7637 67.731 26.8158 67.9654 26.9199C68.2024 27.0241 68.3873 27.1816 68.5201 27.3926C68.6555 27.6009 68.7232 27.8626 68.7232 28.1777V30.1465C68.7232 30.2871 68.7349 30.4368 68.7583 30.5957C68.7844 30.7546 68.8221 30.8913 68.8716 31.0059V31.0684H68.1177C68.0813 30.985 68.0526 30.8743 68.0318 30.7363C68.011 30.5957 68.0005 30.4655 68.0005 30.3457ZM68.1255 28.5059L68.1333 29.0137H67.4029C67.1971 29.0137 67.0136 29.0306 66.8521 29.0645C66.6906 29.0957 66.5552 29.1439 66.4458 29.209C66.3365 29.2741 66.2531 29.3561 66.1958 29.4551C66.1386 29.5514 66.1099 29.6647 66.1099 29.7949C66.1099 29.9277 66.1399 30.0488 66.1998 30.1582C66.2596 30.2676 66.3495 30.3548 66.4693 30.4199C66.5917 30.4824 66.7414 30.5137 66.9185 30.5137C67.1399 30.5137 67.3352 30.4668 67.5044 30.373C67.6737 30.2793 67.8078 30.1647 67.9068 30.0293C68.0083 29.8939 68.063 29.7624 68.0708 29.6348L68.3794 29.9824C68.3612 30.0918 68.3117 30.2129 68.231 30.3457C68.1503 30.4785 68.0422 30.6061 67.9068 30.7285C67.774 30.8483 67.6151 30.9486 67.4302 31.0293C67.2479 31.1074 67.0422 31.1465 66.813 31.1465C66.5266 31.1465 66.2753 31.0905 66.0591 30.9785C65.8456 30.8665 65.6789 30.7168 65.5591 30.5293C65.4419 30.3392 65.3833 30.127 65.3833 29.8926C65.3833 29.666 65.4276 29.4668 65.5162 29.2949C65.6047 29.1204 65.7323 28.9759 65.899 28.8613C66.0656 28.7441 66.2662 28.6556 66.5005 28.5957C66.7349 28.5358 66.9966 28.5059 67.2857 28.5059H68.1255ZM71.6294 26.8418V27.3965H69.3443V26.8418H71.6294ZM70.1177 25.8145H70.8404V30.0215C70.8404 30.1647 70.8625 30.2728 70.9068 30.3457C70.9511 30.4186 71.0083 30.4668 71.0787 30.4902C71.149 30.5137 71.2245 30.5254 71.3052 30.5254C71.3651 30.5254 71.4276 30.5202 71.4927 30.5098C71.5604 30.4967 71.6112 30.4863 71.6451 30.4785L71.649 31.0684C71.5917 31.0866 71.5162 31.1035 71.4224 31.1191C71.3313 31.1374 71.2206 31.1465 71.0904 31.1465C70.9133 31.1465 70.7505 31.1113 70.6021 31.041C70.4537 30.9707 70.3352 30.8535 70.2466 30.6895C70.1607 30.5228 70.1177 30.2988 70.1177 30.0176V25.8145ZM73.2623 26.8418V31.0684H72.5357V26.8418H73.2623ZM72.481 25.7207C72.481 25.6035 72.5162 25.5046 72.5865 25.4238C72.6594 25.3431 72.7662 25.3027 72.9068 25.3027C73.0448 25.3027 73.1503 25.3431 73.2232 25.4238C73.2987 25.5046 73.3365 25.6035 73.3365 25.7207C73.3365 25.8327 73.2987 25.929 73.2232 26.0098C73.1503 26.0879 73.0448 26.127 72.9068 26.127C72.7662 26.127 72.6594 26.0879 72.5865 26.0098C72.5162 25.929 72.481 25.8327 72.481 25.7207ZM75.7076 30.416L76.8638 26.8418H77.6021L76.0826 31.0684H75.5982L75.7076 30.416ZM74.7427 26.8418L75.9341 30.4355L76.0162 31.0684H75.5318L74.0005 26.8418H74.7427ZM79.0826 26.8418V31.0684H78.356V26.8418H79.0826ZM78.3013 25.7207C78.3013 25.6035 78.3365 25.5046 78.4068 25.4238C78.4797 25.3431 78.5865 25.3027 78.7271 25.3027C78.8651 25.3027 78.9706 25.3431 79.0435 25.4238C79.119 25.5046 79.1568 25.6035 79.1568 25.7207C79.1568 25.8327 79.119 25.929 79.0435 26.0098C78.9706 26.0879 78.8651 26.127 78.7271 26.127C78.5865 26.127 78.4797 26.0879 78.4068 26.0098C78.3365 25.929 78.3013 25.8327 78.3013 25.7207ZM82.0123 26.8418V27.3965H79.7271V26.8418H82.0123ZM80.5005 25.8145H81.2232V30.0215C81.2232 30.1647 81.2453 30.2728 81.2896 30.3457C81.3339 30.4186 81.3912 30.4668 81.4615 30.4902C81.5318 30.5137 81.6073 30.5254 81.688 30.5254C81.7479 30.5254 81.8104 30.5202 81.8755 30.5098C81.9432 30.4967 81.994 30.4863 82.0279 30.4785L82.0318 31.0684C81.9745 31.0866 81.899 31.1035 81.8052 31.1191C81.7141 31.1374 81.6034 31.1465 81.4732 31.1465C81.2961 31.1465 81.1333 31.1113 80.9849 31.041C80.8365 30.9707 80.718 30.8535 80.6294 30.6895C80.5435 30.5228 80.5005 30.2988 80.5005 30.0176V25.8145ZM84.0474 30.6309L85.2232 26.8418H85.9966L84.3013 31.7207C84.2623 31.8249 84.2102 31.9368 84.1451 32.0566C84.0826 32.179 84.0018 32.2949 83.9029 32.4043C83.8039 32.5137 83.6841 32.6022 83.5435 32.6699C83.4055 32.7402 83.2401 32.7754 83.0474 32.7754C82.9901 32.7754 82.9172 32.7676 82.8287 32.752C82.7401 32.7363 82.6776 32.7233 82.6412 32.7129L82.6373 32.127C82.6581 32.1296 82.6906 32.1322 82.7349 32.1348C82.7818 32.14 82.8143 32.1426 82.8326 32.1426C82.9966 32.1426 83.136 32.1204 83.2505 32.0762C83.3651 32.0345 83.4615 31.9629 83.5396 31.8613C83.6203 31.7624 83.6893 31.6257 83.7466 31.4512L84.0474 30.6309ZM83.1841 26.8418L84.2818 30.123L84.4693 30.8848L83.9498 31.1504L82.3951 26.8418H83.1841Z" fill="white"/>
<defs>
<clipPath id="clip0_103_2211">
<rect width="40.7157" height="40.7157" fill="white" transform="translate(30.8574 63)"/>
</clipPath>
</defs>
</svg>
