<svg width="103" height="104" viewBox="0 0 103 104" fill="none" xmlns="http://www.w3.org/2000/svg">
<rect x="51.5513" y="80.8315" width="3.2782" height="8.18171" rx="1.6391" transform="rotate(-43.0786 51.5513 80.8315)" fill="black" stroke="white" stroke-width="0.753994"/>
<circle cx="51.2095" cy="67.6495" r="3.36185" fill="black" stroke="white" stroke-width="0.753994"/>
<path fill-rule="evenodd" clip-rule="evenodd" d="M46.8451 74.6111C46.8451 73.3618 47.8578 72.3491 49.1071 72.3491H53.3124C54.5617 72.3491 55.5744 73.3618 55.5744 74.6111V85.4272C55.6055 85.8324 55.5293 86.2471 55.3321 86.6204L53.4676 90.151L57.8222 98.3966C58.3548 99.4052 58.0047 100.716 57.0401 101.325C56.0755 101.934 54.8618 101.61 54.3291 100.601L51.1389 94.5605L48.0685 100.374C47.5358 101.383 46.322 101.707 45.3574 101.098C44.3929 100.49 44.0427 99.1784 44.5754 98.1697L48.8102 90.151L47.0654 86.8473C46.838 86.4166 46.7715 85.9307 46.8451 85.4679V74.6111ZM51.0164 85.5097L51.1389 85.7415L51.2613 85.5097H51.0164Z" fill="black"/>
<path d="M55.5744 85.4272H55.1974V85.4416L55.1985 85.456L55.5744 85.4272ZM55.3321 86.6204L55.6655 86.7965V86.7965L55.3321 86.6204ZM53.4676 90.151L53.1342 89.975L53.0412 90.151L53.1342 90.3271L53.4676 90.151ZM57.8222 98.3966L58.1555 98.2206L57.8222 98.3966ZM57.0401 101.325L56.8389 101.006H56.8389L57.0401 101.325ZM54.3291 100.601L53.9957 100.777L54.3291 100.601ZM51.1389 94.5605L51.4722 94.3845L51.1389 93.7532L50.8055 94.3845L51.1389 94.5605ZM48.0685 100.374L48.4018 100.551L48.0685 100.374ZM45.3574 101.098L45.5587 100.78L45.3574 101.098ZM44.5754 98.1697L44.9088 98.3458H44.9088L44.5754 98.1697ZM48.8102 90.151L49.1435 90.3271L49.2365 90.151L49.1435 89.975L48.8102 90.151ZM47.0654 86.8473L46.7321 87.0233L47.0654 86.8473ZM46.8451 85.4679L47.2174 85.5271L47.2221 85.4977V85.4679H46.8451ZM51.0164 85.5097V85.1327H50.391L50.6831 85.6857L51.0164 85.5097ZM51.1389 85.7415L50.8055 85.9176L51.1389 86.5488L51.4722 85.9176L51.1389 85.7415ZM51.2613 85.5097L51.5947 85.6857L51.8868 85.1327H51.2613V85.5097ZM49.1071 71.9721C47.6496 71.9721 46.4681 73.1536 46.4681 74.6111H47.2221C47.2221 73.5701 48.066 72.7261 49.1071 72.7261V71.9721ZM53.3124 71.9721H49.1071V72.7261H53.3124V71.9721ZM55.9514 74.6111C55.9514 73.1536 54.7699 71.9721 53.3124 71.9721V72.7261C54.3535 72.7261 55.1974 73.5701 55.1974 74.6111H55.9514ZM55.9514 85.4272V74.6111H55.1974V85.4272H55.9514ZM55.6655 86.7965C55.8981 86.3561 55.9865 85.8697 55.9503 85.3983L55.1985 85.456C55.2245 85.7951 55.1605 86.1381 54.9988 86.4444L55.6655 86.7965ZM53.8009 90.3271L55.6655 86.7965L54.9988 86.4444L53.1342 89.975L53.8009 90.3271ZM53.1342 90.3271L57.4888 98.5727L58.1555 98.2206L53.8009 89.975L53.1342 90.3271ZM57.4888 98.5727C57.9295 99.4072 57.6369 100.503 56.8389 101.006L57.2413 101.644C58.3725 100.93 58.7802 99.4033 58.1555 98.2206L57.4888 98.5727ZM56.8389 101.006C56.0601 101.498 55.0926 101.24 54.6625 100.425L53.9957 100.777C54.631 101.98 56.091 102.37 57.2413 101.644L56.8389 101.006ZM54.6625 100.425L51.4722 94.3845L50.8055 94.7366L53.9957 100.777L54.6625 100.425ZM48.4018 100.551L51.4722 94.7366L50.8055 94.3845L47.7351 100.198L48.4018 100.551ZM45.1562 101.417C46.3066 102.143 47.7666 101.753 48.4018 100.551L47.7351 100.198C47.305 101.013 46.3375 101.271 45.5587 100.78L45.1562 101.417ZM44.242 97.9937C43.6174 99.1765 44.0251 100.703 45.1562 101.417L45.5587 100.78C44.7606 100.276 44.4681 99.1803 44.9088 98.3458L44.242 97.9937ZM48.4768 89.975L44.242 97.9937L44.9088 98.3458L49.1435 90.3271L48.4768 89.975ZM49.1435 89.975L47.3988 86.6712L46.7321 87.0233L48.4768 90.3271L49.1435 89.975ZM47.3988 86.6712C47.2122 86.318 47.1556 85.9155 47.2174 85.5271L46.4728 85.4087C46.3873 85.9459 46.4637 86.5152 46.7321 87.0233L47.3988 86.6712ZM46.4681 74.6111V85.4679H47.2221V74.6111H46.4681ZM50.6831 85.6857L50.8055 85.9176L51.4722 85.5655L51.3498 85.3336L50.6831 85.6857ZM50.928 85.3336L50.8055 85.5655L51.4722 85.9176L51.5947 85.6857L50.928 85.3336ZM51.0164 85.8867H51.2613V85.1327H51.0164V85.8867Z" fill="white"/>
<path d="M47.2375 87.1854L54.3143 100.605C54.845 101.611 56.0554 101.935 57.0174 101.328V101.328C57.9828 100.718 58.3301 99.404 57.7915 98.398L52.5894 88.6815" stroke="white" stroke-width="0.753994"/>
<path fill-rule="evenodd" clip-rule="evenodd" d="M50.0241 74.2037C49.1807 73.8749 48.2304 74.2921 47.9017 75.1355L45.8035 80.518C45.532 81.2145 45.7692 81.9838 46.335 82.4159L50.6565 87.0374C51.2747 87.6986 52.312 87.7334 52.9732 87.1151C53.6344 86.4968 53.6692 85.4595 53.0509 84.7983L49.2415 80.7245L50.956 76.3262C51.2848 75.4827 50.8676 74.5325 50.0241 74.2037Z" fill="black"/>
<path d="M47.9017 75.1355L48.2529 75.2725L47.9017 75.1355ZM50.0241 74.2037L49.8872 74.5549V74.5549L50.0241 74.2037ZM45.8035 80.518L46.1548 80.655L45.8035 80.518ZM46.335 82.4159L46.6103 82.1584L46.5888 82.1354L46.5638 82.1162L46.335 82.4159ZM50.6565 87.0374L50.3811 87.2948V87.2948L50.6565 87.0374ZM52.9732 87.1151L53.2307 87.3904H53.2307L52.9732 87.1151ZM53.0509 84.7983L53.3263 84.5408V84.5408L53.0509 84.7983ZM49.2415 80.7245L48.8903 80.5876L48.8041 80.8087L48.9661 80.982L49.2415 80.7245ZM50.956 76.3262L50.6048 76.1892L50.956 76.3262ZM48.2529 75.2725C48.5061 74.623 49.2378 74.3018 49.8872 74.5549L50.1611 73.8524C49.1236 73.448 47.9548 73.9612 47.5504 74.9986L48.2529 75.2725ZM46.1548 80.655L48.2529 75.2725L47.5504 74.9986L45.4523 80.3811L46.1548 80.655ZM46.5638 82.1162C46.128 81.7834 45.9459 81.1907 46.1548 80.655L45.4523 80.3811C45.1182 81.2383 45.4104 82.1842 46.1061 82.7155L46.5638 82.1162ZM50.9318 86.7799L46.6103 82.1584L46.0596 82.6733L50.3811 87.2948L50.9318 86.7799ZM52.7157 86.8397C52.2066 87.3158 51.4079 87.289 50.9318 86.7799L50.3811 87.2948C51.1416 88.1081 52.4174 88.1509 53.2307 87.3904L52.7157 86.8397ZM52.7755 85.0558C53.2516 85.565 53.2248 86.3636 52.7157 86.8397L53.2307 87.3904C54.044 86.6299 54.0868 85.3541 53.3263 84.5408L52.7755 85.0558ZM48.9661 80.982L52.7755 85.0558L53.3263 84.5408L49.5169 80.467L48.9661 80.982ZM50.6048 76.1892L48.8903 80.5876L49.5928 80.8614L51.3073 76.4631L50.6048 76.1892ZM49.8872 74.5549C50.5367 74.8081 50.8579 75.5398 50.6048 76.1892L51.3073 76.4631C51.7117 75.4256 51.1985 74.2568 50.1611 73.8524L49.8872 74.5549Z" fill="white"/>
<path d="M1.47534 6.3213L1.97534 6.3213L1.47534 6.3213ZM6.47534 1.3213L6.47534 0.821296L6.47534 1.3213ZM1.47534 39.4426L0.975341 39.4426L1.47534 39.4426ZM6.47534 44.4426L6.47534 43.9426L6.47534 44.4426ZM46.634 44.4426L47.0476 44.1616L46.8988 43.9426L46.634 43.9426L46.634 44.4426ZM51.5511 51.6775L51.1375 51.9586L51.5511 52.5671L51.9646 51.9586L51.5511 51.6775ZM56.4681 44.4426L56.4681 43.9426L56.2034 43.9426L56.0546 44.1616L56.4681 44.4426ZM96.627 44.4426L96.627 44.9426L96.627 44.4426ZM101.627 39.4426L102.127 39.4426L101.627 39.4426ZM101.627 6.3213L101.127 6.3213L101.627 6.3213ZM96.627 1.3213L96.627 1.8213L96.627 1.3213ZM1.97534 6.3213C1.97534 3.83601 3.99006 1.8213 6.47534 1.8213L6.47534 0.821296C3.43778 0.821297 0.975342 3.28373 0.975342 6.3213L1.97534 6.3213ZM1.97534 39.4426L1.97534 6.3213L0.975342 6.3213L0.975341 39.4426L1.97534 39.4426ZM6.47534 43.9426C3.99006 43.9426 1.97534 41.9279 1.97534 39.4426L0.975341 39.4426C0.975341 42.4802 3.43778 44.9426 6.47534 44.9426L6.47534 43.9426ZM46.634 43.9426L6.47534 43.9426L6.47534 44.9426L46.634 44.9426L46.634 43.9426ZM51.9646 51.3965L47.0476 44.1616L46.2205 44.7237L51.1375 51.9586L51.9646 51.3965ZM56.0546 44.1616L51.1375 51.3965L51.9646 51.9586L56.8816 44.7237L56.0546 44.1616ZM96.627 43.9426L56.4681 43.9426L56.4681 44.9426L96.627 44.9426L96.627 43.9426ZM101.127 39.4426C101.127 41.9279 99.1122 43.9426 96.627 43.9426L96.627 44.9426C99.6645 44.9426 102.127 42.4802 102.127 39.4426L101.127 39.4426ZM101.127 6.3213L101.127 39.4426L102.127 39.4426L102.127 6.3213L101.127 6.3213ZM96.627 1.8213C99.1122 1.8213 101.127 3.83601 101.127 6.3213L102.127 6.3213C102.127 3.28373 99.6645 0.821296 96.627 0.821296L96.627 1.8213ZM6.47534 1.8213L96.627 1.8213L96.627 0.821296L6.47534 0.821296L6.47534 1.8213Z" fill="white"/>
<path d="M12.105 13.3809V19.0684H11.3628V13.3809H12.105ZM13.9332 13.3809V13.998H9.53862V13.3809H13.9332ZM15.3902 13.0684V19.0684H14.6675V13.0684H15.3902ZM15.2183 16.7949L14.9175 16.7832C14.9201 16.4941 14.9631 16.2272 15.0464 15.9824C15.1298 15.735 15.247 15.5202 15.398 15.3379C15.549 15.1556 15.7287 15.015 15.9371 14.916C16.148 14.8145 16.3811 14.7637 16.6363 14.7637C16.8446 14.7637 17.0321 14.7923 17.1988 14.8496C17.3654 14.9043 17.5074 14.9928 17.6246 15.1152C17.7443 15.2376 17.8355 15.3965 17.898 15.5918C17.9605 15.7845 17.9917 16.0202 17.9917 16.2988V19.0684H17.2652V16.291C17.2652 16.0697 17.2326 15.8926 17.1675 15.7598C17.1024 15.6243 17.0074 15.5267 16.8824 15.4668C16.7574 15.4043 16.6037 15.373 16.4214 15.373C16.2417 15.373 16.0777 15.4108 15.9292 15.4863C15.7834 15.5618 15.6571 15.666 15.5503 15.7988C15.4462 15.9316 15.3641 16.084 15.3042 16.2559C15.247 16.4251 15.2183 16.6048 15.2183 16.7949ZM18.8824 17.002V16.9121C18.8824 16.6074 18.9266 16.3249 19.0152 16.0645C19.1037 15.8014 19.2313 15.5736 19.398 15.3809C19.5647 15.1855 19.7665 15.0345 20.0035 14.9277C20.2404 14.8184 20.5061 14.7637 20.8003 14.7637C21.0972 14.7637 21.3641 14.8184 21.6011 14.9277C21.8407 15.0345 22.0438 15.1855 22.2105 15.3809C22.3798 15.5736 22.5087 15.8014 22.5972 16.0645C22.6858 16.3249 22.73 16.6074 22.73 16.9121V17.002C22.73 17.3066 22.6858 17.5892 22.5972 17.8496C22.5087 18.11 22.3798 18.3379 22.2105 18.5332C22.0438 18.7259 21.842 18.877 21.605 18.9863C21.3707 19.0931 21.105 19.1465 20.8082 19.1465C20.5113 19.1465 20.2443 19.0931 20.0074 18.9863C19.7704 18.877 19.5673 18.7259 19.398 18.5332C19.2313 18.3379 19.1037 18.11 19.0152 17.8496C18.9266 17.5892 18.8824 17.3066 18.8824 17.002ZM19.605 16.9121V17.002C19.605 17.2129 19.6298 17.4121 19.6792 17.5996C19.7287 17.7845 19.8029 17.9486 19.9019 18.0918C20.0035 18.235 20.1298 18.3483 20.2808 18.4316C20.4318 18.5124 20.6076 18.5527 20.8082 18.5527C21.0061 18.5527 21.1792 18.5124 21.3277 18.4316C21.4787 18.3483 21.6037 18.235 21.7027 18.0918C21.8016 17.9486 21.8759 17.7845 21.9253 17.5996C21.9774 17.4121 22.0035 17.2129 22.0035 17.002V16.9121C22.0035 16.7038 21.9774 16.5072 21.9253 16.3223C21.8759 16.1348 21.8003 15.9694 21.6988 15.8262C21.5998 15.6803 21.4748 15.5658 21.3238 15.4824C21.1753 15.3991 21.0009 15.3574 20.8003 15.3574C20.6024 15.3574 20.4279 15.3991 20.2769 15.4824C20.1285 15.5658 20.0035 15.6803 19.9019 15.8262C19.8029 15.9694 19.7287 16.1348 19.6792 16.3223C19.6298 16.5072 19.605 16.7038 19.605 16.9121ZM24.3589 15.5059V19.0684H23.6363V14.8418H24.3394L24.3589 15.5059ZM25.6792 14.8184L25.6753 15.4902C25.6154 15.4772 25.5582 15.4694 25.5035 15.4668C25.4514 15.4616 25.3915 15.459 25.3238 15.459C25.1571 15.459 25.01 15.485 24.8824 15.5371C24.7548 15.5892 24.6467 15.6621 24.5582 15.7559C24.4696 15.8496 24.3993 15.9616 24.3472 16.0918C24.2977 16.2194 24.2652 16.36 24.2496 16.5137L24.0464 16.6309C24.0464 16.3757 24.0712 16.1361 24.1207 15.9121C24.1727 15.6882 24.2522 15.4902 24.3589 15.3184C24.4657 15.1439 24.6011 15.0085 24.7652 14.9121C24.9318 14.8132 25.1298 14.7637 25.3589 14.7637C25.411 14.7637 25.4709 14.7702 25.5386 14.7832C25.6063 14.7936 25.6532 14.8053 25.6792 14.8184ZM26.0777 17.002V16.9121C26.0777 16.6074 26.122 16.3249 26.2105 16.0645C26.299 15.8014 26.4266 15.5736 26.5933 15.3809C26.76 15.1855 26.9618 15.0345 27.1988 14.9277C27.4358 14.8184 27.7014 14.7637 27.9957 14.7637C28.2925 14.7637 28.5595 14.8184 28.7964 14.9277C29.036 15.0345 29.2391 15.1855 29.4058 15.3809C29.5751 15.5736 29.704 15.8014 29.7925 16.0645C29.8811 16.3249 29.9253 16.6074 29.9253 16.9121V17.002C29.9253 17.3066 29.8811 17.5892 29.7925 17.8496C29.704 18.11 29.5751 18.3379 29.4058 18.5332C29.2391 18.7259 29.0373 18.877 28.8003 18.9863C28.566 19.0931 28.3003 19.1465 28.0035 19.1465C27.7066 19.1465 27.4397 19.0931 27.2027 18.9863C26.9657 18.877 26.7626 18.7259 26.5933 18.5332C26.4266 18.3379 26.299 18.11 26.2105 17.8496C26.122 17.5892 26.0777 17.3066 26.0777 17.002ZM26.8003 16.9121V17.002C26.8003 17.2129 26.8251 17.4121 26.8746 17.5996C26.924 17.7845 26.9983 17.9486 27.0972 18.0918C27.1988 18.235 27.3251 18.3483 27.4761 18.4316C27.6272 18.5124 27.8029 18.5527 28.0035 18.5527C28.2014 18.5527 28.3746 18.5124 28.523 18.4316C28.674 18.3483 28.799 18.235 28.898 18.0918C28.997 17.9486 29.0712 17.7845 29.1207 17.5996C29.1727 17.4121 29.1988 17.2129 29.1988 17.002V16.9121C29.1988 16.7038 29.1727 16.5072 29.1207 16.3223C29.0712 16.1348 28.9957 15.9694 28.8941 15.8262C28.7951 15.6803 28.6701 15.5658 28.5191 15.4824C28.3707 15.3991 28.1962 15.3574 27.9957 15.3574C27.7977 15.3574 27.6233 15.3991 27.4722 15.4824C27.3238 15.5658 27.1988 15.6803 27.0972 15.8262C26.9983 15.9694 26.924 16.1348 26.8746 16.3223C26.8251 16.5072 26.8003 16.7038 26.8003 16.9121ZM33.4175 18.0918V14.8418H34.1441V19.0684H33.4527L33.4175 18.0918ZM33.5542 17.2012L33.855 17.1934C33.855 17.4746 33.8251 17.735 33.7652 17.9746C33.7079 18.2116 33.6141 18.4173 33.4839 18.5918C33.3537 18.7663 33.1832 18.903 32.9722 19.002C32.7613 19.0983 32.5048 19.1465 32.2027 19.1465C31.997 19.1465 31.8082 19.1165 31.6363 19.0566C31.467 18.9967 31.3212 18.9043 31.1988 18.7793C31.0764 18.6543 30.9813 18.4915 30.9136 18.291C30.8485 18.0905 30.816 17.8496 30.816 17.5684V14.8418H31.5386V17.5762C31.5386 17.7663 31.5595 17.9238 31.6011 18.0488C31.6454 18.1712 31.704 18.2689 31.7769 18.3418C31.8524 18.4121 31.9358 18.4616 32.0269 18.4902C32.1207 18.5189 32.217 18.5332 32.316 18.5332C32.6233 18.5332 32.8667 18.4746 33.0464 18.3574C33.2261 18.2376 33.355 18.0775 33.4332 17.877C33.5139 17.6738 33.5542 17.4486 33.5542 17.2012ZM37.9839 14.8418H38.6402V18.9785C38.6402 19.3509 38.5647 19.6686 38.4136 19.9316C38.2626 20.1947 38.0516 20.3939 37.7808 20.5293C37.5126 20.6673 37.2027 20.7363 36.8511 20.7363C36.7053 20.7363 36.5334 20.7129 36.3355 20.666C36.1402 20.6217 35.9475 20.5449 35.7574 20.4355C35.5699 20.3288 35.4123 20.1842 35.2847 20.002L35.6636 19.5723C35.8407 19.7858 36.0256 19.9342 36.2183 20.0176C36.4136 20.1009 36.6063 20.1426 36.7964 20.1426C37.0256 20.1426 37.2235 20.0996 37.3902 20.0137C37.5568 19.9277 37.6858 19.8001 37.7769 19.6309C37.8707 19.4642 37.9175 19.2585 37.9175 19.0137V15.7715L37.9839 14.8418ZM35.0738 17.002V16.9199C35.0738 16.597 35.1115 16.304 35.1871 16.041C35.2652 15.7754 35.3759 15.5475 35.5191 15.3574C35.6649 15.1673 35.8407 15.0215 36.0464 14.9199C36.2522 14.8158 36.4839 14.7637 36.7417 14.7637C37.0074 14.7637 37.2391 14.8105 37.4371 14.9043C37.6376 14.9954 37.8068 15.1296 37.9449 15.3066C38.0855 15.4811 38.1962 15.6921 38.2769 15.9395C38.3576 16.1868 38.4136 16.4668 38.4449 16.7793V17.1387C38.4162 17.4486 38.3602 17.7272 38.2769 17.9746C38.1962 18.222 38.0855 18.4329 37.9449 18.6074C37.8068 18.7819 37.6376 18.916 37.4371 19.0098C37.2365 19.1009 37.0022 19.1465 36.7339 19.1465C36.4813 19.1465 36.2522 19.0931 36.0464 18.9863C35.8433 18.8796 35.6688 18.7298 35.523 18.5371C35.3772 18.3444 35.2652 18.1178 35.1871 17.8574C35.1115 17.5944 35.0738 17.3092 35.0738 17.002ZM35.7964 16.9199V17.002C35.7964 17.2129 35.8173 17.4108 35.8589 17.5957C35.9032 17.7806 35.9696 17.9434 36.0582 18.084C36.1493 18.2246 36.2652 18.3353 36.4058 18.416C36.5464 18.4941 36.7144 18.5332 36.9097 18.5332C37.1493 18.5332 37.3472 18.4824 37.5035 18.3809C37.6597 18.2793 37.7834 18.1452 37.8746 17.9785C37.9683 17.8118 38.0412 17.6309 38.0933 17.4355V16.4941C38.0647 16.3509 38.0204 16.2129 37.9605 16.0801C37.9032 15.9447 37.8277 15.8249 37.7339 15.7207C37.6428 15.6139 37.5295 15.5293 37.3941 15.4668C37.2587 15.4043 37.0998 15.373 36.9175 15.373C36.7196 15.373 36.549 15.4147 36.4058 15.498C36.2652 15.5788 36.1493 15.6908 36.0582 15.834C35.9696 15.9746 35.9032 16.1387 35.8589 16.3262C35.8173 16.5111 35.7964 16.709 35.7964 16.9199ZM40.4605 13.0684V19.0684H39.7378V13.0684H40.4605ZM40.2886 16.7949L39.9878 16.7832C39.9904 16.4941 40.0334 16.2272 40.1167 15.9824C40.2001 15.735 40.3173 15.5202 40.4683 15.3379C40.6193 15.1556 40.799 15.015 41.0074 14.916C41.2183 14.8145 41.4514 14.7637 41.7066 14.7637C41.9149 14.7637 42.1024 14.7923 42.2691 14.8496C42.4358 14.9043 42.5777 14.9928 42.6949 15.1152C42.8147 15.2376 42.9058 15.3965 42.9683 15.5918C43.0308 15.7845 43.0621 16.0202 43.0621 16.2988V19.0684H42.3355V16.291C42.3355 16.0697 42.3029 15.8926 42.2378 15.7598C42.1727 15.6243 42.0777 15.5267 41.9527 15.4668C41.8277 15.4043 41.674 15.373 41.4917 15.373C41.3121 15.373 41.148 15.4108 40.9996 15.4863C40.8537 15.5618 40.7274 15.666 40.6207 15.7988C40.5165 15.9316 40.4345 16.084 40.3746 16.2559C40.3173 16.4251 40.2886 16.6048 40.2886 16.7949ZM48.7925 18.248V13.0684H49.5191V19.0684H48.855L48.7925 18.248ZM45.9488 17.002V16.9199C45.9488 16.597 45.9878 16.304 46.066 16.041C46.1467 15.7754 46.26 15.5475 46.4058 15.3574C46.5542 15.1673 46.73 15.0215 46.9332 14.9199C47.1389 14.8158 47.368 14.7637 47.6207 14.7637C47.8863 14.7637 48.118 14.8105 48.316 14.9043C48.5165 14.9954 48.6858 15.1296 48.8238 15.3066C48.9644 15.4811 49.0751 15.6921 49.1558 15.9395C49.2365 16.1868 49.2925 16.4668 49.3238 16.7793V17.1387C49.2951 17.4486 49.2391 17.7272 49.1558 17.9746C49.0751 18.222 48.9644 18.4329 48.8238 18.6074C48.6858 18.7819 48.5165 18.916 48.316 19.0098C48.1154 19.1009 47.8811 19.1465 47.6128 19.1465C47.3654 19.1465 47.1389 19.0931 46.9332 18.9863C46.73 18.8796 46.5542 18.7298 46.4058 18.5371C46.26 18.3444 46.1467 18.1178 46.066 17.8574C45.9878 17.5944 45.9488 17.3092 45.9488 17.002ZM46.6753 16.9199V17.002C46.6753 17.2129 46.6962 17.4108 46.7378 17.5957C46.7821 17.7806 46.8498 17.9434 46.941 18.084C47.0321 18.2246 47.148 18.3353 47.2886 18.416C47.4292 18.4941 47.5972 18.5332 47.7925 18.5332C48.0321 18.5332 48.2287 18.4824 48.3824 18.3809C48.5386 18.2793 48.6636 18.1452 48.7574 17.9785C48.8511 17.8118 48.924 17.6309 48.9761 17.4355V16.4941C48.9449 16.3509 48.8993 16.2129 48.8394 16.0801C48.7821 15.9447 48.7066 15.8249 48.6128 15.7207C48.5217 15.6139 48.4084 15.5293 48.273 15.4668C48.1402 15.4043 47.9826 15.373 47.8003 15.373C47.6024 15.373 47.4318 15.4147 47.2886 15.498C47.148 15.5788 47.0321 15.6908 46.941 15.834C46.8498 15.9746 46.7821 16.1387 46.7378 16.3262C46.6962 16.5111 46.6753 16.709 46.6753 16.9199ZM51.4292 14.8418V19.0684H50.7027V14.8418H51.4292ZM50.648 13.7207C50.648 13.6035 50.6832 13.5046 50.7535 13.4238C50.8264 13.3431 50.9332 13.3027 51.0738 13.3027C51.2118 13.3027 51.3173 13.3431 51.3902 13.4238C51.4657 13.5046 51.5035 13.6035 51.5035 13.7207C51.5035 13.8327 51.4657 13.929 51.3902 14.0098C51.3173 14.0879 51.2118 14.127 51.0738 14.127C50.9332 14.127 50.8264 14.0879 50.7535 14.0098C50.6832 13.929 50.648 13.8327 50.648 13.7207ZM55.0503 17.9473C55.0503 17.8431 55.0269 17.7467 54.98 17.6582C54.9358 17.5671 54.8433 17.485 54.7027 17.4121C54.5647 17.3366 54.3563 17.2715 54.0777 17.2168C53.8433 17.1673 53.6311 17.1087 53.441 17.041C53.2535 16.9733 53.0933 16.8913 52.9605 16.7949C52.8303 16.6986 52.73 16.5853 52.6597 16.4551C52.5894 16.3249 52.5542 16.1725 52.5542 15.998C52.5542 15.8314 52.5907 15.6738 52.6636 15.5254C52.7391 15.377 52.8446 15.2454 52.98 15.1309C53.118 15.0163 53.2834 14.9264 53.4761 14.8613C53.6688 14.7962 53.8837 14.7637 54.1207 14.7637C54.4592 14.7637 54.7483 14.8236 54.9878 14.9434C55.2274 15.0632 55.411 15.2233 55.5386 15.4238C55.6662 15.6217 55.73 15.8418 55.73 16.084H55.0074C55.0074 15.9668 54.9722 15.8535 54.9019 15.7441C54.8342 15.6322 54.7339 15.5397 54.6011 15.4668C54.4709 15.3939 54.3108 15.3574 54.1207 15.3574C53.9201 15.3574 53.7574 15.3887 53.6324 15.4512C53.51 15.5111 53.4201 15.5879 53.3628 15.6816C53.3082 15.7754 53.2808 15.8743 53.2808 15.9785C53.2808 16.0566 53.2938 16.127 53.3199 16.1895C53.3485 16.2493 53.398 16.3053 53.4683 16.3574C53.5386 16.4069 53.6376 16.4538 53.7652 16.498C53.8928 16.5423 54.0555 16.5866 54.2535 16.6309C54.5998 16.709 54.885 16.8027 55.1089 16.9121C55.3329 17.0215 55.4996 17.1556 55.6089 17.3145C55.7183 17.4733 55.773 17.666 55.773 17.8926C55.773 18.0775 55.7339 18.2467 55.6558 18.4004C55.5803 18.554 55.4696 18.6868 55.3238 18.7988C55.1805 18.9082 55.0087 18.9941 54.8082 19.0566C54.6102 19.1165 54.3876 19.1465 54.1402 19.1465C53.7678 19.1465 53.4527 19.0801 53.1949 18.9473C52.9371 18.8145 52.7417 18.6426 52.6089 18.4316C52.4761 18.2207 52.4097 17.998 52.4097 17.7637H53.1363C53.1467 17.9616 53.204 18.1191 53.3082 18.2363C53.4123 18.3509 53.5399 18.4329 53.691 18.4824C53.842 18.5293 53.9917 18.5527 54.1402 18.5527C54.3381 18.5527 54.5035 18.5267 54.6363 18.4746C54.7717 18.4225 54.8746 18.3509 54.9449 18.2598C55.0152 18.1686 55.0503 18.0645 55.0503 17.9473ZM58.4136 18.5527C58.5855 18.5527 58.7443 18.5176 58.8902 18.4473C59.036 18.377 59.1558 18.2806 59.2496 18.1582C59.3433 18.0332 59.3967 17.8913 59.4097 17.7324H60.0972C60.0842 17.9824 59.9996 18.2155 59.8433 18.4316C59.6897 18.6452 59.4878 18.8184 59.2378 18.9512C58.9878 19.0814 58.7131 19.1465 58.4136 19.1465C58.0959 19.1465 57.8186 19.0905 57.5816 18.9785C57.3472 18.8665 57.1519 18.7129 56.9957 18.5176C56.842 18.3223 56.7261 18.0983 56.648 17.8457C56.5725 17.5905 56.5347 17.321 56.5347 17.0371V16.873C56.5347 16.5892 56.5725 16.321 56.648 16.0684C56.7261 15.8132 56.842 15.5879 56.9957 15.3926C57.1519 15.1973 57.3472 15.0436 57.5816 14.9316C57.8186 14.8197 58.0959 14.7637 58.4136 14.7637C58.7443 14.7637 59.0334 14.8314 59.2808 14.9668C59.5282 15.0996 59.7222 15.2819 59.8628 15.5137C60.0061 15.7428 60.0842 16.0033 60.0972 16.2949H59.4097C59.3967 16.1204 59.3472 15.9629 59.2613 15.8223C59.1779 15.6816 59.0634 15.5697 58.9175 15.4863C58.7743 15.4004 58.6063 15.3574 58.4136 15.3574C58.1923 15.3574 58.0061 15.4017 57.855 15.4902C57.7066 15.5762 57.5881 15.6934 57.4996 15.8418C57.4136 15.9876 57.3511 16.1504 57.3121 16.3301C57.2756 16.5072 57.2574 16.6882 57.2574 16.873V17.0371C57.2574 17.222 57.2756 17.4043 57.3121 17.584C57.3485 17.7637 57.4097 17.9264 57.4957 18.0723C57.5842 18.2181 57.7027 18.3353 57.8511 18.4238C58.0022 18.5098 58.1897 18.5527 58.4136 18.5527ZM63.4957 18.0918V14.8418H64.2222V19.0684H63.5308L63.4957 18.0918ZM63.6324 17.2012L63.9332 17.1934C63.9332 17.4746 63.9032 17.735 63.8433 17.9746C63.786 18.2116 63.6923 18.4173 63.5621 18.5918C63.4318 18.7663 63.2613 18.903 63.0503 19.002C62.8394 19.0983 62.5829 19.1465 62.2808 19.1465C62.0751 19.1465 61.8863 19.1165 61.7144 19.0566C61.5451 18.9967 61.3993 18.9043 61.2769 18.7793C61.1545 18.6543 61.0595 18.4915 60.9917 18.291C60.9266 18.0905 60.8941 17.8496 60.8941 17.5684V14.8418H61.6167V17.5762C61.6167 17.7663 61.6376 17.9238 61.6792 18.0488C61.7235 18.1712 61.7821 18.2689 61.855 18.3418C61.9305 18.4121 62.0139 18.4616 62.105 18.4902C62.1988 18.5189 62.2951 18.5332 62.3941 18.5332C62.7014 18.5332 62.9449 18.4746 63.1246 18.3574C63.3042 18.2376 63.4332 18.0775 63.5113 17.877C63.592 17.6738 63.6324 17.4486 63.6324 17.2012ZM67.7847 17.9473C67.7847 17.8431 67.7613 17.7467 67.7144 17.6582C67.6701 17.5671 67.5777 17.485 67.4371 17.4121C67.299 17.3366 67.0907 17.2715 66.8121 17.2168C66.5777 17.1673 66.3654 17.1087 66.1753 17.041C65.9878 16.9733 65.8277 16.8913 65.6949 16.7949C65.5647 16.6986 65.4644 16.5853 65.3941 16.4551C65.3238 16.3249 65.2886 16.1725 65.2886 15.998C65.2886 15.8314 65.3251 15.6738 65.398 15.5254C65.4735 15.377 65.579 15.2454 65.7144 15.1309C65.8524 15.0163 66.0178 14.9264 66.2105 14.8613C66.4032 14.7962 66.618 14.7637 66.855 14.7637C67.1936 14.7637 67.4826 14.8236 67.7222 14.9434C67.9618 15.0632 68.1454 15.2233 68.273 15.4238C68.4006 15.6217 68.4644 15.8418 68.4644 16.084H67.7417C67.7417 15.9668 67.7066 15.8535 67.6363 15.7441C67.5686 15.6322 67.4683 15.5397 67.3355 15.4668C67.2053 15.3939 67.0451 15.3574 66.855 15.3574C66.6545 15.3574 66.4917 15.3887 66.3667 15.4512C66.2443 15.5111 66.1545 15.5879 66.0972 15.6816C66.0425 15.7754 66.0152 15.8743 66.0152 15.9785C66.0152 16.0566 66.0282 16.127 66.0542 16.1895C66.0829 16.2493 66.1324 16.3053 66.2027 16.3574C66.273 16.4069 66.372 16.4538 66.4996 16.498C66.6272 16.5423 66.7899 16.5866 66.9878 16.6309C67.3342 16.709 67.6193 16.8027 67.8433 16.9121C68.0673 17.0215 68.2339 17.1556 68.3433 17.3145C68.4527 17.4733 68.5074 17.666 68.5074 17.8926C68.5074 18.0775 68.4683 18.2467 68.3902 18.4004C68.3147 18.554 68.204 18.6868 68.0582 18.7988C67.9149 18.9082 67.743 18.9941 67.5425 19.0566C67.3446 19.1165 67.122 19.1465 66.8746 19.1465C66.5022 19.1465 66.1871 19.0801 65.9292 18.9473C65.6714 18.8145 65.4761 18.6426 65.3433 18.4316C65.2105 18.2207 65.1441 17.998 65.1441 17.7637H65.8707C65.8811 17.9616 65.9384 18.1191 66.0425 18.2363C66.1467 18.3509 66.2743 18.4329 66.4253 18.4824C66.5764 18.5293 66.7261 18.5527 66.8746 18.5527C67.0725 18.5527 67.2378 18.5267 67.3707 18.4746C67.5061 18.4225 67.6089 18.3509 67.6792 18.2598C67.7496 18.1686 67.7847 18.0645 67.7847 17.9473ZM71.9175 17.9473C71.9175 17.8431 71.8941 17.7467 71.8472 17.6582C71.8029 17.5671 71.7105 17.485 71.5699 17.4121C71.4318 17.3366 71.2235 17.2715 70.9449 17.2168C70.7105 17.1673 70.4983 17.1087 70.3082 17.041C70.1207 16.9733 69.9605 16.8913 69.8277 16.7949C69.6975 16.6986 69.5972 16.5853 69.5269 16.4551C69.4566 16.3249 69.4214 16.1725 69.4214 15.998C69.4214 15.8314 69.4579 15.6738 69.5308 15.5254C69.6063 15.377 69.7118 15.2454 69.8472 15.1309C69.9852 15.0163 70.1506 14.9264 70.3433 14.8613C70.536 14.7962 70.7509 14.7637 70.9878 14.7637C71.3264 14.7637 71.6154 14.8236 71.855 14.9434C72.0946 15.0632 72.2782 15.2233 72.4058 15.4238C72.5334 15.6217 72.5972 15.8418 72.5972 16.084H71.8746C71.8746 15.9668 71.8394 15.8535 71.7691 15.7441C71.7014 15.6322 71.6011 15.5397 71.4683 15.4668C71.3381 15.3939 71.1779 15.3574 70.9878 15.3574C70.7873 15.3574 70.6246 15.3887 70.4996 15.4512C70.3772 15.5111 70.2873 15.5879 70.23 15.6816C70.1753 15.7754 70.148 15.8743 70.148 15.9785C70.148 16.0566 70.161 16.127 70.1871 16.1895C70.2157 16.2493 70.2652 16.3053 70.3355 16.3574C70.4058 16.4069 70.5048 16.4538 70.6324 16.498C70.76 16.5423 70.9227 16.5866 71.1207 16.6309C71.467 16.709 71.7522 16.8027 71.9761 16.9121C72.2001 17.0215 72.3667 17.1556 72.4761 17.3145C72.5855 17.4733 72.6402 17.666 72.6402 17.8926C72.6402 18.0775 72.6011 18.2467 72.523 18.4004C72.4475 18.554 72.3368 18.6868 72.191 18.7988C72.0477 18.9082 71.8759 18.9941 71.6753 19.0566C71.4774 19.1165 71.2548 19.1465 71.0074 19.1465C70.635 19.1465 70.3199 19.0801 70.0621 18.9473C69.8042 18.8145 69.6089 18.6426 69.4761 18.4316C69.3433 18.2207 69.2769 17.998 69.2769 17.7637H70.0035C70.0139 17.9616 70.0712 18.1191 70.1753 18.2363C70.2795 18.3509 70.4071 18.4329 70.5582 18.4824C70.7092 18.5293 70.8589 18.5527 71.0074 18.5527C71.2053 18.5527 71.3707 18.5267 71.5035 18.4746C71.6389 18.4225 71.7417 18.3509 71.8121 18.2598C71.8824 18.1686 71.9175 18.0645 71.9175 17.9473ZM74.3746 14.8418V19.0684H73.648V14.8418H74.3746ZM73.5933 13.7207C73.5933 13.6035 73.6285 13.5046 73.6988 13.4238C73.7717 13.3431 73.8785 13.3027 74.0191 13.3027C74.1571 13.3027 74.2626 13.3431 74.3355 13.4238C74.411 13.5046 74.4488 13.6035 74.4488 13.7207C74.4488 13.8327 74.411 13.929 74.3355 14.0098C74.2626 14.0879 74.1571 14.127 74.0191 14.127C73.8785 14.127 73.7717 14.0879 73.6988 14.0098C73.6285 13.929 73.5933 13.8327 73.5933 13.7207ZM75.3433 17.002V16.9121C75.3433 16.6074 75.3876 16.3249 75.4761 16.0645C75.5647 15.8014 75.6923 15.5736 75.8589 15.3809C76.0256 15.1855 76.2274 15.0345 76.4644 14.9277C76.7014 14.8184 76.967 14.7637 77.2613 14.7637C77.5582 14.7637 77.8251 14.8184 78.0621 14.9277C78.3016 15.0345 78.5048 15.1855 78.6714 15.3809C78.8407 15.5736 78.9696 15.8014 79.0582 16.0645C79.1467 16.3249 79.191 16.6074 79.191 16.9121V17.002C79.191 17.3066 79.1467 17.5892 79.0582 17.8496C78.9696 18.11 78.8407 18.3379 78.6714 18.5332C78.5048 18.7259 78.3029 18.877 78.066 18.9863C77.8316 19.0931 77.566 19.1465 77.2691 19.1465C76.9722 19.1465 76.7053 19.0931 76.4683 18.9863C76.2313 18.877 76.0282 18.7259 75.8589 18.5332C75.6923 18.3379 75.5647 18.11 75.4761 17.8496C75.3876 17.5892 75.3433 17.3066 75.3433 17.002ZM76.066 16.9121V17.002C76.066 17.2129 76.0907 17.4121 76.1402 17.5996C76.1897 17.7845 76.2639 17.9486 76.3628 18.0918C76.4644 18.235 76.5907 18.3483 76.7417 18.4316C76.8928 18.5124 77.0686 18.5527 77.2691 18.5527C77.467 18.5527 77.6402 18.5124 77.7886 18.4316C77.9397 18.3483 78.0647 18.235 78.1636 18.0918C78.2626 17.9486 78.3368 17.7845 78.3863 17.5996C78.4384 17.4121 78.4644 17.2129 78.4644 17.002V16.9121C78.4644 16.7038 78.4384 16.5072 78.3863 16.3223C78.3368 16.1348 78.2613 15.9694 78.1597 15.8262C78.0608 15.6803 77.9358 15.5658 77.7847 15.4824C77.6363 15.3991 77.4618 15.3574 77.2613 15.3574C77.0634 15.3574 76.8889 15.3991 76.7378 15.4824C76.5894 15.5658 76.4644 15.6803 76.3628 15.8262C76.2639 15.9694 76.1897 16.1348 76.1402 16.3223C76.0907 16.5072 76.066 16.7038 76.066 16.9121ZM80.8199 15.7441V19.0684H80.0972V14.8418H80.7808L80.8199 15.7441ZM80.648 16.7949L80.3472 16.7832C80.3498 16.4941 80.3928 16.2272 80.4761 15.9824C80.5595 15.735 80.6766 15.5202 80.8277 15.3379C80.9787 15.1556 81.1584 15.015 81.3667 14.916C81.5777 14.8145 81.8108 14.7637 82.066 14.7637C82.2743 14.7637 82.4618 14.7923 82.6285 14.8496C82.7951 14.9043 82.9371 14.9928 83.0542 15.1152C83.174 15.2376 83.2652 15.3965 83.3277 15.5918C83.3902 15.7845 83.4214 16.0202 83.4214 16.2988V19.0684H82.6949V16.291C82.6949 16.0697 82.6623 15.8926 82.5972 15.7598C82.5321 15.6243 82.4371 15.5267 82.3121 15.4668C82.1871 15.4043 82.0334 15.373 81.8511 15.373C81.6714 15.373 81.5074 15.4108 81.3589 15.4863C81.2131 15.5618 81.0868 15.666 80.98 15.7988C80.8759 15.9316 80.7938 16.084 80.7339 16.2559C80.6766 16.4251 80.648 16.6048 80.648 16.7949ZM88.273 14.8418V15.3965H85.9878V14.8418H88.273ZM86.7613 13.8145H87.4839V18.0215C87.4839 18.1647 87.5061 18.2728 87.5503 18.3457C87.5946 18.4186 87.6519 18.4668 87.7222 18.4902C87.7925 18.5137 87.868 18.5254 87.9488 18.5254C88.0087 18.5254 88.0712 18.5202 88.1363 18.5098C88.204 18.4967 88.2548 18.4863 88.2886 18.4785L88.2925 19.0684C88.2352 19.0866 88.1597 19.1035 88.066 19.1191C87.9748 19.1374 87.8641 19.1465 87.7339 19.1465C87.5568 19.1465 87.3941 19.1113 87.2457 19.041C87.0972 18.9707 86.9787 18.8535 86.8902 18.6895C86.8042 18.5228 86.7613 18.2988 86.7613 18.0176V13.8145ZM88.8511 17.002V16.9121C88.8511 16.6074 88.8954 16.3249 88.9839 16.0645C89.0725 15.8014 89.2001 15.5736 89.3667 15.3809C89.5334 15.1855 89.7352 15.0345 89.9722 14.9277C90.2092 14.8184 90.4748 14.7637 90.7691 14.7637C91.066 14.7637 91.3329 14.8184 91.5699 14.9277C91.8095 15.0345 92.0126 15.1855 92.1792 15.3809C92.3485 15.5736 92.4774 15.8014 92.566 16.0645C92.6545 16.3249 92.6988 16.6074 92.6988 16.9121V17.002C92.6988 17.3066 92.6545 17.5892 92.566 17.8496C92.4774 18.11 92.3485 18.3379 92.1792 18.5332C92.0126 18.7259 91.8108 18.877 91.5738 18.9863C91.3394 19.0931 91.0738 19.1465 90.7769 19.1465C90.48 19.1465 90.2131 19.0931 89.9761 18.9863C89.7391 18.877 89.536 18.7259 89.3667 18.5332C89.2001 18.3379 89.0725 18.11 88.9839 17.8496C88.8954 17.5892 88.8511 17.3066 88.8511 17.002ZM89.5738 16.9121V17.002C89.5738 17.2129 89.5985 17.4121 89.648 17.5996C89.6975 17.7845 89.7717 17.9486 89.8707 18.0918C89.9722 18.235 90.0985 18.3483 90.2496 18.4316C90.4006 18.5124 90.5764 18.5527 90.7769 18.5527C90.9748 18.5527 91.148 18.5124 91.2964 18.4316C91.4475 18.3483 91.5725 18.235 91.6714 18.0918C91.7704 17.9486 91.8446 17.7845 91.8941 17.5996C91.9462 17.4121 91.9722 17.2129 91.9722 17.002V16.9121C91.9722 16.7038 91.9462 16.5072 91.8941 16.3223C91.8446 16.1348 91.7691 15.9694 91.6675 15.8262C91.5686 15.6803 91.4436 15.5658 91.2925 15.4824C91.1441 15.3991 90.9696 15.3574 90.7691 15.3574C90.5712 15.3574 90.3967 15.3991 90.2457 15.4824C90.0972 15.5658 89.9722 15.6803 89.8707 15.8262C89.7717 15.9694 89.6975 16.1348 89.648 16.3223C89.5985 16.5072 89.5738 16.7038 89.5738 16.9121ZM22.4253 30.248V25.0684H23.1519V31.0684H22.4878L22.4253 30.248ZM19.5816 29.002V28.9199C19.5816 28.597 19.6207 28.304 19.6988 28.041C19.7795 27.7754 19.8928 27.5475 20.0386 27.3574C20.1871 27.1673 20.3628 27.0215 20.566 26.9199C20.7717 26.8158 21.0009 26.7637 21.2535 26.7637C21.5191 26.7637 21.7509 26.8105 21.9488 26.9043C22.1493 26.9954 22.3186 27.1296 22.4566 27.3066C22.5972 27.4811 22.7079 27.6921 22.7886 27.9395C22.8693 28.1868 22.9253 28.4668 22.9566 28.7793V29.1387C22.9279 29.4486 22.872 29.7272 22.7886 29.9746C22.7079 30.222 22.5972 30.4329 22.4566 30.6074C22.3186 30.7819 22.1493 30.916 21.9488 31.0098C21.7483 31.1009 21.5139 31.1465 21.2457 31.1465C20.9983 31.1465 20.7717 31.0931 20.566 30.9863C20.3628 30.8796 20.1871 30.7298 20.0386 30.5371C19.8928 30.3444 19.7795 30.1178 19.6988 29.8574C19.6207 29.5944 19.5816 29.3092 19.5816 29.002ZM20.3082 28.9199V29.002C20.3082 29.2129 20.329 29.4108 20.3707 29.5957C20.4149 29.7806 20.4826 29.9434 20.5738 30.084C20.6649 30.2246 20.7808 30.3353 20.9214 30.416C21.0621 30.4941 21.23 30.5332 21.4253 30.5332C21.6649 30.5332 21.8615 30.4824 22.0152 30.3809C22.1714 30.2793 22.2964 30.1452 22.3902 29.9785C22.4839 29.8118 22.5568 29.6309 22.6089 29.4355V28.4941C22.5777 28.3509 22.5321 28.2129 22.4722 28.0801C22.4149 27.9447 22.3394 27.8249 22.2457 27.7207C22.1545 27.6139 22.0412 27.5293 21.9058 27.4668C21.773 27.4043 21.6154 27.373 21.4332 27.373C21.2352 27.373 21.0647 27.4147 20.9214 27.498C20.7808 27.5788 20.6649 27.6908 20.5738 27.834C20.4826 27.9746 20.4149 28.1387 20.3707 28.3262C20.329 28.5111 20.3082 28.709 20.3082 28.9199ZM25.0621 26.8418V31.0684H24.3355V26.8418H25.0621ZM24.2808 25.7207C24.2808 25.6035 24.316 25.5046 24.3863 25.4238C24.4592 25.3431 24.566 25.3027 24.7066 25.3027C24.8446 25.3027 24.9501 25.3431 25.023 25.4238C25.0985 25.5046 25.1363 25.6035 25.1363 25.7207C25.1363 25.8327 25.0985 25.929 25.023 26.0098C24.9501 26.0879 24.8446 26.127 24.7066 26.127C24.566 26.127 24.4592 26.0879 24.3863 26.0098C24.316 25.929 24.2808 25.8327 24.2808 25.7207ZM27.5074 30.416L28.6636 26.8418H29.4019L27.8824 31.0684H27.398L27.5074 30.416ZM26.5425 26.8418L27.7339 30.4355L27.816 31.0684H27.3316L25.8003 26.8418H26.5425ZM31.7964 31.1465C31.5022 31.1465 31.2352 31.097 30.9957 30.998C30.7587 30.8965 30.5542 30.7546 30.3824 30.5723C30.2131 30.39 30.0829 30.1738 29.9917 29.9238C29.9006 29.6738 29.855 29.4004 29.855 29.1035V28.9395C29.855 28.5957 29.9058 28.2897 30.0074 28.0215C30.1089 27.7507 30.247 27.5215 30.4214 27.334C30.5959 27.1465 30.7938 27.0046 31.0152 26.9082C31.2365 26.8118 31.4657 26.7637 31.7027 26.7637C32.0048 26.7637 32.2652 26.8158 32.4839 26.9199C32.7053 27.0241 32.8863 27.1699 33.0269 27.3574C33.1675 27.5423 33.2717 27.7611 33.3394 28.0137C33.4071 28.2637 33.441 28.5371 33.441 28.834V29.1582H30.2847V28.5684H32.7183V28.5137C32.7079 28.3262 32.6688 28.1439 32.6011 27.9668C32.536 27.7897 32.4318 27.6439 32.2886 27.5293C32.1454 27.4147 31.9501 27.3574 31.7027 27.3574C31.5386 27.3574 31.3876 27.3926 31.2496 27.4629C31.1115 27.5306 30.993 27.6322 30.8941 27.7676C30.7951 27.903 30.7183 28.0684 30.6636 28.2637C30.6089 28.459 30.5816 28.6842 30.5816 28.9395V29.1035C30.5816 29.304 30.6089 29.4928 30.6636 29.6699C30.7209 29.8444 30.8029 29.998 30.9097 30.1309C31.0191 30.2637 31.1506 30.3678 31.3042 30.4434C31.4605 30.5189 31.6376 30.5566 31.8355 30.5566C32.0907 30.5566 32.3068 30.5046 32.4839 30.4004C32.661 30.2962 32.816 30.1569 32.9488 29.9824L33.3863 30.3301C33.2951 30.4681 33.1792 30.5996 33.0386 30.7246C32.898 30.8496 32.7248 30.9512 32.5191 31.0293C32.316 31.1074 32.0751 31.1465 31.7964 31.1465ZM37.0542 26.8418V31.0684H36.3277V26.8418H37.0542ZM36.273 25.7207C36.273 25.6035 36.3082 25.5046 36.3785 25.4238C36.4514 25.3431 36.5582 25.3027 36.6988 25.3027C36.8368 25.3027 36.9423 25.3431 37.0152 25.4238C37.0907 25.5046 37.1285 25.6035 37.1285 25.7207C37.1285 25.8327 37.0907 25.929 37.0152 26.0098C36.9423 26.0879 36.8368 26.127 36.6988 26.127C36.5582 26.127 36.4514 26.0879 36.3785 26.0098C36.3082 25.929 36.273 25.8327 36.273 25.7207ZM38.9371 27.7441V31.0684H38.2144V26.8418H38.898L38.9371 27.7441ZM38.7652 28.7949L38.4644 28.7832C38.467 28.4941 38.51 28.2272 38.5933 27.9824C38.6766 27.735 38.7938 27.5202 38.9449 27.3379C39.0959 27.1556 39.2756 27.015 39.4839 26.916C39.6949 26.8145 39.9279 26.7637 40.1832 26.7637C40.3915 26.7637 40.579 26.7923 40.7457 26.8496C40.9123 26.9043 41.0542 26.9928 41.1714 27.1152C41.2912 27.2376 41.3824 27.3965 41.4449 27.5918C41.5074 27.7845 41.5386 28.0202 41.5386 28.2988V31.0684H40.8121V28.291C40.8121 28.0697 40.7795 27.8926 40.7144 27.7598C40.6493 27.6243 40.5542 27.5267 40.4292 27.4668C40.3042 27.4043 40.1506 27.373 39.9683 27.373C39.7886 27.373 39.6246 27.4108 39.4761 27.4863C39.3303 27.5618 39.204 27.666 39.0972 27.7988C38.993 27.9316 38.911 28.084 38.8511 28.2559C38.7938 28.4251 38.7652 28.6048 38.7652 28.7949ZM44.4058 26.8418V27.3965H42.1207V26.8418H44.4058ZM42.8941 25.8145H43.6167V30.0215C43.6167 30.1647 43.6389 30.2728 43.6832 30.3457C43.7274 30.4186 43.7847 30.4668 43.855 30.4902C43.9253 30.5137 44.0009 30.5254 44.0816 30.5254C44.1415 30.5254 44.204 30.5202 44.2691 30.5098C44.3368 30.4967 44.3876 30.4863 44.4214 30.4785L44.4253 31.0684C44.368 31.0866 44.2925 31.1035 44.1988 31.1191C44.1076 31.1374 43.997 31.1465 43.8667 31.1465C43.6897 31.1465 43.5269 31.1113 43.3785 31.041C43.23 30.9707 43.1115 30.8535 43.023 30.6895C42.9371 30.5228 42.8941 30.2988 42.8941 30.0176V25.8145ZM44.9839 29.002V28.9121C44.9839 28.6074 45.0282 28.3249 45.1167 28.0645C45.2053 27.8014 45.3329 27.5736 45.4996 27.3809C45.6662 27.1855 45.868 27.0345 46.105 26.9277C46.342 26.8184 46.6076 26.7637 46.9019 26.7637C47.1988 26.7637 47.4657 26.8184 47.7027 26.9277C47.9423 27.0345 48.1454 27.1855 48.3121 27.3809C48.4813 27.5736 48.6102 27.8014 48.6988 28.0645C48.7873 28.3249 48.8316 28.6074 48.8316 28.9121V29.002C48.8316 29.3066 48.7873 29.5892 48.6988 29.8496C48.6102 30.11 48.4813 30.3379 48.3121 30.5332C48.1454 30.7259 47.9436 30.877 47.7066 30.9863C47.4722 31.0931 47.2066 31.1465 46.9097 31.1465C46.6128 31.1465 46.3459 31.0931 46.1089 30.9863C45.872 30.877 45.6688 30.7259 45.4996 30.5332C45.3329 30.3379 45.2053 30.11 45.1167 29.8496C45.0282 29.5892 44.9839 29.3066 44.9839 29.002ZM45.7066 28.9121V29.002C45.7066 29.2129 45.7313 29.4121 45.7808 29.5996C45.8303 29.7845 45.9045 29.9486 46.0035 30.0918C46.105 30.235 46.2313 30.3483 46.3824 30.4316C46.5334 30.5124 46.7092 30.5527 46.9097 30.5527C47.1076 30.5527 47.2808 30.5124 47.4292 30.4316C47.5803 30.3483 47.7053 30.235 47.8042 30.0918C47.9032 29.9486 47.9774 29.7845 48.0269 29.5996C48.079 29.4121 48.105 29.2129 48.105 29.002V28.9121C48.105 28.7038 48.079 28.5072 48.0269 28.3223C47.9774 28.1348 47.9019 27.9694 47.8003 27.8262C47.7014 27.6803 47.5764 27.5658 47.4253 27.4824C47.2769 27.3991 47.1024 27.3574 46.9019 27.3574C46.704 27.3574 46.5295 27.3991 46.3785 27.4824C46.23 27.5658 46.105 27.6803 46.0035 27.8262C45.9045 27.9694 45.8303 28.1348 45.7808 28.3223C45.7313 28.5072 45.7066 28.7038 45.7066 28.9121ZM53.4761 31.1465C53.1818 31.1465 52.9149 31.097 52.6753 30.998C52.4384 30.8965 52.2339 30.7546 52.0621 30.5723C51.8928 30.39 51.7626 30.1738 51.6714 29.9238C51.5803 29.6738 51.5347 29.4004 51.5347 29.1035V28.9395C51.5347 28.5957 51.5855 28.2897 51.6871 28.0215C51.7886 27.7507 51.9266 27.5215 52.1011 27.334C52.2756 27.1465 52.4735 27.0046 52.6949 26.9082C52.9162 26.8118 53.1454 26.7637 53.3824 26.7637C53.6845 26.7637 53.9449 26.8158 54.1636 26.9199C54.385 27.0241 54.566 27.1699 54.7066 27.3574C54.8472 27.5423 54.9514 27.7611 55.0191 28.0137C55.0868 28.2637 55.1207 28.5371 55.1207 28.834V29.1582H51.9644V28.5684H54.398V28.5137C54.3876 28.3262 54.3485 28.1439 54.2808 27.9668C54.2157 27.7897 54.1115 27.6439 53.9683 27.5293C53.8251 27.4147 53.6298 27.3574 53.3824 27.3574C53.2183 27.3574 53.0673 27.3926 52.9292 27.4629C52.7912 27.5306 52.6727 27.6322 52.5738 27.7676C52.4748 27.903 52.398 28.0684 52.3433 28.2637C52.2886 28.459 52.2613 28.6842 52.2613 28.9395V29.1035C52.2613 29.304 52.2886 29.4928 52.3433 29.6699C52.4006 29.8444 52.4826 29.998 52.5894 30.1309C52.6988 30.2637 52.8303 30.3678 52.9839 30.4434C53.1402 30.5189 53.3173 30.5566 53.5152 30.5566C53.7704 30.5566 53.9865 30.5046 54.1636 30.4004C54.3407 30.2962 54.4957 30.1569 54.6285 29.9824L55.066 30.3301C54.9748 30.4681 54.8589 30.5996 54.7183 30.7246C54.5777 30.8496 54.4045 30.9512 54.1988 31.0293C53.9957 31.1074 53.7548 31.1465 53.4761 31.1465ZM58.4566 30.3457V28.1699C58.4566 28.0033 58.4227 27.8587 58.355 27.7363C58.2899 27.6113 58.191 27.515 58.0582 27.4473C57.9253 27.3796 57.7613 27.3457 57.566 27.3457C57.3837 27.3457 57.2235 27.377 57.0855 27.4395C56.9501 27.502 56.8433 27.584 56.7652 27.6855C56.6897 27.7871 56.6519 27.8965 56.6519 28.0137H55.9292C55.9292 27.8626 55.9683 27.7129 56.0464 27.5645C56.1246 27.416 56.2365 27.2819 56.3824 27.1621C56.5308 27.0397 56.7079 26.9434 56.9136 26.873C57.122 26.8001 57.3537 26.7637 57.6089 26.7637C57.9162 26.7637 58.1871 26.8158 58.4214 26.9199C58.6584 27.0241 58.8433 27.1816 58.9761 27.3926C59.1115 27.6009 59.1792 27.8626 59.1792 28.1777V30.1465C59.1792 30.2871 59.191 30.4368 59.2144 30.5957C59.2404 30.7546 59.2782 30.8913 59.3277 31.0059V31.0684H58.5738C58.5373 30.985 58.5087 30.8743 58.4878 30.7363C58.467 30.5957 58.4566 30.4655 58.4566 30.3457ZM58.5816 28.5059L58.5894 29.0137H57.8589C57.6532 29.0137 57.4696 29.0306 57.3082 29.0645C57.1467 29.0957 57.0113 29.1439 56.9019 29.209C56.7925 29.2741 56.7092 29.3561 56.6519 29.4551C56.5946 29.5514 56.566 29.6647 56.566 29.7949C56.566 29.9277 56.5959 30.0488 56.6558 30.1582C56.7157 30.2676 56.8055 30.3548 56.9253 30.4199C57.0477 30.4824 57.1975 30.5137 57.3746 30.5137C57.5959 30.5137 57.7912 30.4668 57.9605 30.373C58.1298 30.2793 58.2639 30.1647 58.3628 30.0293C58.4644 29.8939 58.5191 29.7624 58.5269 29.6348L58.8355 29.9824C58.8173 30.0918 58.7678 30.2129 58.6871 30.3457C58.6063 30.4785 58.4983 30.6061 58.3628 30.7285C58.23 30.8483 58.0712 30.9486 57.8863 31.0293C57.704 31.1074 57.4983 31.1465 57.2691 31.1465C56.9826 31.1465 56.7313 31.0905 56.5152 30.9785C56.3016 30.8665 56.135 30.7168 56.0152 30.5293C55.898 30.3392 55.8394 30.127 55.8394 29.8926C55.8394 29.666 55.8837 29.4668 55.9722 29.2949C56.0608 29.1204 56.1884 28.9759 56.355 28.8613C56.5217 28.7441 56.7222 28.6556 56.9566 28.5957C57.191 28.5358 57.4527 28.5059 57.7417 28.5059H58.5816ZM62.0074 30.5527C62.1792 30.5527 62.3381 30.5176 62.4839 30.4473C62.6298 30.377 62.7496 30.2806 62.8433 30.1582C62.9371 30.0332 62.9904 29.8913 63.0035 29.7324H63.691C63.6779 29.9824 63.5933 30.2155 63.4371 30.4316C63.2834 30.6452 63.0816 30.8184 62.8316 30.9512C62.5816 31.0814 62.3068 31.1465 62.0074 31.1465C61.6897 31.1465 61.4123 31.0905 61.1753 30.9785C60.941 30.8665 60.7457 30.7129 60.5894 30.5176C60.4358 30.3223 60.3199 30.0983 60.2417 29.8457C60.1662 29.5905 60.1285 29.321 60.1285 29.0371V28.873C60.1285 28.5892 60.1662 28.321 60.2417 28.0684C60.3199 27.8132 60.4358 27.5879 60.5894 27.3926C60.7457 27.1973 60.941 27.0436 61.1753 26.9316C61.4123 26.8197 61.6897 26.7637 62.0074 26.7637C62.3381 26.7637 62.6272 26.8314 62.8746 26.9668C63.122 27.0996 63.316 27.2819 63.4566 27.5137C63.5998 27.7428 63.6779 28.0033 63.691 28.2949H63.0035C62.9904 28.1204 62.941 27.9629 62.855 27.8223C62.7717 27.6816 62.6571 27.5697 62.5113 27.4863C62.368 27.4004 62.2001 27.3574 62.0074 27.3574C61.786 27.3574 61.5998 27.4017 61.4488 27.4902C61.3003 27.5762 61.1818 27.6934 61.0933 27.8418C61.0074 27.9876 60.9449 28.1504 60.9058 28.3301C60.8693 28.5072 60.8511 28.6882 60.8511 28.873V29.0371C60.8511 29.222 60.8693 29.4043 60.9058 29.584C60.9423 29.7637 61.0035 29.9264 61.0894 30.0723C61.1779 30.2181 61.2964 30.3353 61.4449 30.4238C61.5959 30.5098 61.7834 30.5527 62.0074 30.5527ZM65.2261 25.0684V31.0684H64.5035V25.0684H65.2261ZM65.0542 28.7949L64.7535 28.7832C64.7561 28.4941 64.799 28.2272 64.8824 27.9824C64.9657 27.735 65.0829 27.5202 65.2339 27.3379C65.385 27.1556 65.5647 27.015 65.773 26.916C65.9839 26.8145 66.217 26.7637 66.4722 26.7637C66.6805 26.7637 66.868 26.7923 67.0347 26.8496C67.2014 26.9043 67.3433 26.9928 67.4605 27.1152C67.5803 27.2376 67.6714 27.3965 67.7339 27.5918C67.7964 27.7845 67.8277 28.0202 67.8277 28.2988V31.0684H67.1011V28.291C67.1011 28.0697 67.0686 27.8926 67.0035 27.7598C66.9384 27.6243 66.8433 27.5267 66.7183 27.4668C66.5933 27.4043 66.4397 27.373 66.2574 27.373C66.0777 27.373 65.9136 27.4108 65.7652 27.4863C65.6193 27.5618 65.493 27.666 65.3863 27.7988C65.2821 27.9316 65.2001 28.084 65.1402 28.2559C65.0829 28.4251 65.0542 28.6048 65.0542 28.7949ZM72.5855 30.5527C72.7574 30.5527 72.9162 30.5176 73.0621 30.4473C73.2079 30.377 73.3277 30.2806 73.4214 30.1582C73.5152 30.0332 73.5686 29.8913 73.5816 29.7324H74.2691C74.2561 29.9824 74.1714 30.2155 74.0152 30.4316C73.8615 30.6452 73.6597 30.8184 73.4097 30.9512C73.1597 31.0814 72.885 31.1465 72.5855 31.1465C72.2678 31.1465 71.9904 31.0905 71.7535 30.9785C71.5191 30.8665 71.3238 30.7129 71.1675 30.5176C71.0139 30.3223 70.898 30.0983 70.8199 29.8457C70.7443 29.5905 70.7066 29.321 70.7066 29.0371V28.873C70.7066 28.5892 70.7443 28.321 70.8199 28.0684C70.898 27.8132 71.0139 27.5879 71.1675 27.3926C71.3238 27.1973 71.5191 27.0436 71.7535 26.9316C71.9904 26.8197 72.2678 26.7637 72.5855 26.7637C72.9162 26.7637 73.2053 26.8314 73.4527 26.9668C73.7001 27.0996 73.8941 27.2819 74.0347 27.5137C74.1779 27.7428 74.2561 28.0033 74.2691 28.2949H73.5816C73.5686 28.1204 73.5191 27.9629 73.4332 27.8223C73.3498 27.6816 73.2352 27.5697 73.0894 27.4863C72.9462 27.4004 72.7782 27.3574 72.5855 27.3574C72.3641 27.3574 72.1779 27.4017 72.0269 27.4902C71.8785 27.5762 71.76 27.6934 71.6714 27.8418C71.5855 27.9876 71.523 28.1504 71.4839 28.3301C71.4475 28.5072 71.4292 28.6882 71.4292 28.873V29.0371C71.4292 29.222 71.4475 29.4043 71.4839 29.584C71.5204 29.7637 71.5816 29.9264 71.6675 30.0723C71.7561 30.2181 71.8746 30.3353 72.023 30.4238C72.174 30.5098 72.3615 30.5527 72.5855 30.5527ZM77.6675 30.0918V26.8418H78.3941V31.0684H77.7027L77.6675 30.0918ZM77.8042 29.2012L78.105 29.1934C78.105 29.4746 78.0751 29.735 78.0152 29.9746C77.9579 30.2116 77.8641 30.4173 77.7339 30.5918C77.6037 30.7663 77.4332 30.903 77.2222 31.002C77.0113 31.0983 76.7548 31.1465 76.4527 31.1465C76.247 31.1465 76.0582 31.1165 75.8863 31.0566C75.717 30.9967 75.5712 30.9043 75.4488 30.7793C75.3264 30.6543 75.2313 30.4915 75.1636 30.291C75.0985 30.0905 75.066 29.8496 75.066 29.5684V26.8418H75.7886V29.5762C75.7886 29.7663 75.8095 29.9238 75.8511 30.0488C75.8954 30.1712 75.954 30.2689 76.0269 30.3418C76.1024 30.4121 76.1858 30.4616 76.2769 30.4902C76.3707 30.5189 76.467 30.5332 76.566 30.5332C76.8733 30.5332 77.1167 30.4746 77.2964 30.3574C77.4761 30.2376 77.605 30.0775 77.6832 29.877C77.7639 29.6738 77.8042 29.4486 77.8042 29.2012ZM81.2496 31.1465C80.9553 31.1465 80.6884 31.097 80.4488 30.998C80.2118 30.8965 80.0074 30.7546 79.8355 30.5723C79.6662 30.39 79.536 30.1738 79.4449 29.9238C79.3537 29.6738 79.3082 29.4004 79.3082 29.1035V28.9395C79.3082 28.5957 79.3589 28.2897 79.4605 28.0215C79.5621 27.7507 79.7001 27.5215 79.8746 27.334C80.049 27.1465 80.247 27.0046 80.4683 26.9082C80.6897 26.8118 80.9188 26.7637 81.1558 26.7637C81.4579 26.7637 81.7183 26.8158 81.9371 26.9199C82.1584 27.0241 82.3394 27.1699 82.48 27.3574C82.6207 27.5423 82.7248 27.7611 82.7925 28.0137C82.8602 28.2637 82.8941 28.5371 82.8941 28.834V29.1582H79.7378V28.5684H82.1714V28.5137C82.161 28.3262 82.122 28.1439 82.0542 27.9668C81.9891 27.7897 81.885 27.6439 81.7417 27.5293C81.5985 27.4147 81.4032 27.3574 81.1558 27.3574C80.9917 27.3574 80.8407 27.3926 80.7027 27.4629C80.5647 27.5306 80.4462 27.6322 80.3472 27.7676C80.2483 27.903 80.1714 28.0684 80.1167 28.2637C80.0621 28.459 80.0347 28.6842 80.0347 28.9395V29.1035C80.0347 29.304 80.0621 29.4928 80.1167 29.6699C80.174 29.8444 80.2561 29.998 80.3628 30.1309C80.4722 30.2637 80.6037 30.3678 80.7574 30.4434C80.9136 30.5189 81.0907 30.5566 81.2886 30.5566C81.5438 30.5566 81.76 30.5046 81.9371 30.4004C82.1141 30.2962 82.2691 30.1569 82.4019 29.9824L82.8394 30.3301C82.7483 30.4681 82.6324 30.5996 82.4917 30.7246C82.3511 30.8496 82.1779 30.9512 81.9722 31.0293C81.7691 31.1074 81.5282 31.1465 81.2496 31.1465Z" fill="white"/>
</svg>
